SplineFontDB: 3.0
FontName: Endeavour
FullName: Endeavour
FamilyName: Endeavour
Weight: Book
Copyright: Created by Jan Luecker with PfaEdit 1.0 (http://pfaedit.sf.net)\nModified by Guenther Brammer with FontForge (http://fontforge.sourceforge.net)
Version: 000.805
ItalicAngle: 0
UnderlinePosition: -125
UnderlineWidth: 50
Ascent: 819
Descent: 205
LayerCount: 2
Layer: 0 1 "Back"  1
Layer: 1 1 "Fore"  0
XUID: [1021 719 1869416399 1319376]
FSType: 0
OS2Version: 0
OS2_WeightWidthSlopeOnly: 0
OS2_UseTypoMetrics: 1
CreationTime: 1131985304
ModificationTime: 1326328484
PfmFamily: 81
TTFWeight: 400
TTFWidth: 5
LineGap: 0
VLineGap: 0
OS2TypoAscent: 0
OS2TypoAOffset: 1
OS2TypoDescent: 0
OS2TypoDOffset: 1
OS2TypoLinegap: 571
OS2WinAscent: 0
OS2WinAOffset: 1
OS2WinDescent: 0
OS2WinDOffset: 1
HheadAscent: 0
HheadAOffset: 1
HheadDescent: 0
HheadDOffset: 1
OS2Vendor: 'PfEd'
Lookup: 4 8 0 "'frac' Diagonal Fractions in Latin lookup 0"  {"'frac' Diagonal Fractions in Latin lookup 0 subtable"  } ['frac' ('latn' <'dflt' > ) ]
Lookup: 4 0 1 "'liga' Standard Ligatures in Latin lookup 1"  {"'liga' Standard Ligatures in Latin lookup 1 subtable"  } ['liga' ('latn' <'dflt' > ) ]
Lookup: 4 0 1 "'liga' Standard Ligatures lookup 2"  {"'liga' Standard Ligatures lookup 2 subtable"  } ['liga' ('cyrl' <'dflt' > 'grek' <'dflt' > 'latn' <'dflt' > ) ]
MarkAttachClasses: 1
DEI: 91125
ShortTable: cvt  5
  33
  633
  648
  68
  1297
EndShort
ShortTable: maxp 16
  1
  0
  408
  92
  4
  105
  6
  2
  0
  1
  1
  0
  64
  0
  2
  2
EndShort
LangName: 1033 "" "" "Medium" "" "" "" "" "" "" "" "" "" "http://www.clonk.de/" 
GaspTable: 1 65535 2
Encoding: UnicodeBmp
UnicodeInterp: none
NameList: Adobe Glyph List
DisplaySize: -24
AntiAlias: 1
FitToEm: 1
WinInfo: 55 55 25
BeginPrivate: 0
EndPrivate
TeXData: 1 0 0 332800 166400 110933 534528 1048576 110933 783286 444596 497025 792723 393216 433062 380633 303038 157286 324010 404750 52429 2506097 1059062 262144
BeginChars: 65539 412

StartChar: .notdef
Encoding: 65536 -1 0
Width: 443
Flags: MW
LayerCount: 2
Fore
SplineSet
34 0 m 1,0,-1
 34 682 l 1,1,-1
 375 682 l 1,2,-1
 375 0 l 1,3,-1
 34 0 l 1,0,-1
68 34 m 1,4,-1
 341 34 l 1,5,-1
 341 648 l 1,6,-1
 68 648 l 1,7,-1
 68 34 l 1,4,-1
EndSplineSet
Validated: 1
EndChar

StartChar: exclam
Encoding: 33 33 4
Width: 362
GlyphClass: 2
Flags: HMW
LayerCount: 2
Fore
SplineSet
226 126 m 0,0,1
 251 113 251 113 260 82 c 0,2,3
 264 68 264 68 264 58 c 0,4,5
 264 33 264 33 245 19 c 128,-1,6
 226 5 226 5 206 5 c 128,-1,7
 186 5 186 5 164 15 c 0,8,9
 120 35 120 35 120 70 c 128,-1,10
 120 105 120 105 152 122 c 0,11,12
 174 134 174 134 193 134 c 2,13,-1
 194 134 l 2,14,15
 211 134 211 134 226 126 c 0,0,1
194 820 m 1,16,-1
 203 820 l 2,17,18
 204 820 204 820 205 820 c 128,-1,19
 206 820 206 820 207 820 c 0,20,21
 222 822 222 822 249 786 c 1,22,23
 257 725 257 725 257 688 c 2,24,-1
 257 634 l 2,25,26
 257 631 257 631 257 628 c 128,-1,27
 257 625 257 625 257 622 c 0,28,29
 258 486 258 486 210 258 c 1,30,31
 199 248 199 248 194.5 247 c 128,-1,32
 190 246 190 246 182 246 c 128,-1,33
 174 246 174 246 156 264 c 1,34,35
 154 286 154 286 145 396 c 128,-1,36
 136 506 136 506 136 599.5 c 128,-1,37
 136 693 136 693 144 774 c 1,38,39
 156 802 156 802 172 810 c 128,-1,40
 188 818 188 818 194 820 c 1,16,-1
EndSplineSet
Validated: 33
EndChar

StartChar: quotedbl
Encoding: 34 34 5
Width: 442
GlyphClass: 2
Flags: MW
LayerCount: 2
Fore
SplineSet
359 476 m 1,0,1
 319.327 446.245 319.327 446.245 296.352 446.245 c 0,2,3
 277.633 446.245 277.633 446.245 270 466 c 1,4,-1
 268 492 l 1,5,6
 273 511 273 511 274 514 c 2,7,-1
 286 592 l 2,8,9
 291 628 291 628 387 762 c 1,10,11
 385 551 385 551 359 476 c 1,0,1
117 737 m 1,12,13
 137 770 137 770 142 773 c 0,14,15
 145.667 775.667 145.667 775.667 153 775.667 c 0,16,17
 167.667 775.667 167.667 775.667 197 765 c 1,18,19
 179 594 179 594 103 466 c 0,20,21
 97 456 97 456 80 436 c 1,22,23
 59.9545 452.227 59.9545 452.227 59.9545 497.612 c 0,24,25
 59.9545 547.318 59.9545 547.318 84 632 c 0,26,27
 96 674 96 674 117 737 c 1,12,13
EndSplineSet
Validated: 1
EndChar

StartChar: numbersign
Encoding: 35 35 6
Width: 760
GlyphClass: 2
Flags: MW
LayerCount: 2
Fore
SplineSet
519 548 m 1,0,1
 528.889 547.556 528.889 547.556 538.457 547.556 c 0,2,3
 615 547.556 615 547.556 671 576 c 1,4,5
 695 560 695 560 695 537.5 c 128,-1,6
 695 515 695 515 671 486 c 1,7,8
 615.941 466.118 615.941 466.118 552.111 466.118 c 0,9,10
 532.471 466.118 532.471 466.118 512 468 c 1,11,12
 501 372 501 372 501 312 c 1,13,14
 533.333 306.667 533.333 306.667 578.333 306.667 c 128,-1,15
 623.333 306.667 623.333 306.667 674 328 c 1,16,17
 699.253 313.859 699.253 313.859 699.253 294.303 c 128,-1,18
 699.253 274.747 699.253 274.747 675 250 c 1,19,20
 621.333 217.333 621.333 217.333 549.518 217.333 c 0,21,22
 529 217.333 529 217.333 507 220 c 1,23,24
 517 158 517 158 540 106 c 1,25,26
 513.104 88.7463 513.104 88.7463 487.366 88.7463 c 128,-1,27
 461.627 88.7463 461.627 88.7463 437 105 c 1,28,29
 423 164 423 164 423 232 c 1,30,31
 297 259 297 259 289 259 c 1,32,33
 293 173 293 173 314 111 c 1,34,35
 296.212 90.2471 296.212 90.2471 275.742 90.2471 c 128,-1,36
 255.271 90.2471 255.271 90.2471 232 112 c 1,37,38
 214 178 214 178 214 266 c 1,39,40
 208.2 266.2 208.2 266.2 202.48 266.2 c 0,41,42
 151 266.2 151 266.2 106 250 c 1,43,44
 79.99 264.28 79.99 264.28 79.99 283.89 c 128,-1,45
 79.99 303.5 79.99 303.5 104 328 c 1,46,47
 156 352 156 352 218 354 c 1,48,-1
 234 504 l 1,49,50
 221.333 504.667 221.333 504.667 208.889 504.667 c 0,51,52
 146.667 504.667 146.667 504.667 90 488 c 1,53,54
 66.7273 512.727 66.7273 512.727 66.7273 534.281 c 0,55,56
 66.7273 554.727 66.7273 554.727 90 578 c 1,57,58
 134.778 596.778 134.778 596.778 193.117 596.778 c 0,59,60
 215.556 596.778 215.556 596.778 240 594 c 1,61,62
 240.286 604 240.286 604 240.286 637.857 c 128,-1,63
 240.286 671.714 240.286 671.714 230 718 c 1,64,65
 252.4 737.6 252.4 737.6 265.6 737.6 c 128,-1,66
 278.8 737.6 278.8 737.6 295.9 729.8 c 128,-1,67
 313 722 313 722 313 717 c 0,68,69
 317.923 680.077 317.923 680.077 317.923 645.462 c 128,-1,70
 317.923 610.846 317.923 610.846 316 582 c 1,71,72
 435 557 435 557 448 555 c 1,73,74
 448.25 566 448.25 566 448.25 608.75 c 128,-1,75
 448.25 651.5 448.25 651.5 436 711 c 1,76,77
 460.471 726.059 460.471 726.059 468.294 726.059 c 0,78,79
 503.284 726.059 503.284 726.059 515 712 c 1,80,81
 521.722 670.444 521.722 670.444 521.722 627.888 c 128,-1,82
 521.722 585.333 521.722 585.333 519 548 c 1,0,1
307 498 m 1,83,84
 293 384 293 384 291 351 c 1,85,86
 319 348 319 348 427 324 c 1,87,-1
 442 474 l 1,88,89
 324 496 324 496 307 498 c 1,83,84
EndSplineSet
Validated: 1
EndChar

StartChar: dollar
Encoding: 36 36 7
Width: 541
GlyphClass: 2
Flags: MW
LayerCount: 2
Fore
SplineSet
269 84 m 1,0,-1
 253 25 l 1,1,2
 224 10 224 10 204 10 c 0,3,4
 178 11 178 11 168 36 c 1,5,-1
 177 78 l 1,6,-1
 110 95 l 1,7,8
 89 119 89 119 89 137 c 0,9,10
 89 152 89 152 104 163 c 0,11,12
 112 169 112 169 122 169 c 0,13,14
 126 169 126 169 130 168 c 2,15,-1
 198 155 l 1,16,17
 225 267 225 267 239 372 c 1,18,19
 228 375 228 375 226 375 c 0,20,21
 93 375 93 375 62 490 c 0,22,23
 59 501 59 501 59 519 c 0,24,25
 59 570 59 570 93 647 c 0,26,27
 123 715 123 715 272 734 c 1,28,-1
 272 802 l 1,29,30
 289 807 289 807 304 807 c 0,31,32
 327 807 327 807 346 795 c 1,33,34
 346 764 346 764 345 749 c 1,35,36
 357 750 357 750 366 750 c 0,37,38
 408 750 408 750 458 737 c 1,39,40
 465 715 465 715 465 700 c 0,41,42
 465 683 465 683 456 676 c 0,43,44
 449 671 449 671 440 667 c 1,45,46
 391 678 391 678 343 678 c 1,47,48
 339 542 339 542 318 417 c 1,49,50
 455 385 455 385 489 263 c 0,51,52
 494 245 494 245 494 227 c 0,53,54
 494 178 494 178 460 122 c 0,55,56
 431.401 75.6505 431.401 75.6505 350.958 75.6505 c 0,57,58
 349.829 75.6505 349.829 75.6505 348.69 75.6596 c 0,59,60
 314.368 75.9346 314.368 75.9346 269 84 c 1,0,-1
269 664 m 1,61,62
 141 627 141 627 133 573 c 0,63,64
 130.333 556.333 130.333 556.333 130.333 542.111 c 0,65,66
 130.333 513.667 130.333 513.667 141 495 c 0,67,68
 174 438 174 438 247 430 c 1,69,70
 264 558 264 558 269 664 c 1,61,62
311 347 m 1,71,72
 305 240 305 240 283 152 c 1,73,74
 403 165 403 165 412 181 c 0,75,76
 419.143 194.214 419.143 194.214 419.143 212.02 c 0,77,78
 419.143 244.071 419.143 244.071 396 291 c 0,79,80
 381 321 381 321 311 347 c 1,71,72
EndSplineSet
Validated: 1
EndChar

StartChar: percent
Encoding: 37 37 8
Width: 664
GlyphClass: 2
Flags: MW
LayerCount: 2
Fore
SplineSet
33 111 m 0,0,1
 45 120 45 120 56 130 c 0,2,3
 158 214 158 214 245 343 c 0,4,5
 322 458 322 458 334 474 c 0,6,7
 423 591 423 591 564 666 c 0,8,9
 569.077 668.769 569.077 668.769 574.58 668.769 c 0,10,11
 581 668.769 581 668.769 588 665 c 0,12,13
 615 651 615 651 627 607 c 0,14,15
 631.122 591.781 631.122 591.781 631.122 580.381 c 0,16,17
 631.122 555.829 631.122 555.829 612 549 c 0,18,19
 564 532 564 532 525 511 c 0,20,21
 426 457 426 457 357 351 c 2,22,-1
 279 217 l 2,23,24
 204 92 204 92 102 18 c 0,25,26
 95.1429 12.8571 95.1429 12.8571 86.8163 12.8571 c 0,27,28
 85.4286 12.8571 85.4286 12.8571 84 13 c 0,29,30
 57 16 57 16 35 53 c 0,31,32
 21.9792 73.8333 21.9792 73.8333 21.9792 88.6988 c 0,33,34
 21.9792 102.375 21.9792 102.375 33 111 c 0,0,1
489 237 m 0,35,36
 491 237.098 491 237.098 492.96 237.098 c 0,37,38
 531.171 237.098 531.171 237.098 554 200 c 0,39,40
 568.205 177.273 568.205 177.273 568.205 155.191 c 0,41,42
 568.205 138.409 568.205 138.409 560 122 c 0,43,44
 544 88 544 88 500 80 c 0,45,46
 496.585 79.3902 496.585 79.3902 493.037 79.3902 c 0,47,48
 467.488 79.3902 467.488 79.3902 435 111 c 0,49,50
 419.923 128.769 419.923 128.769 419.923 150.888 c 0,51,52
 419.923 169.846 419.923 169.846 431 192 c 0,53,54
 453 235 453 235 489 237 c 0,35,36
159 645 m 0,55,56
 194 640 194 640 211 600 c 0,57,58
 219.022 580.578 219.022 580.578 219.022 563.651 c 0,59,60
 219.022 540.489 219.022 540.489 204 522 c 0,61,62
 184.485 498.242 184.485 498.242 149.851 498.242 c 0,63,64
 143.667 498.242 143.667 498.242 137 499 c 0,65,66
 92 505 92 505 78 540 c 256,67,68
 73.2195 551.951 73.2195 551.951 73.2195 564.136 c 0,69,70
 73.2195 587.634 73.2195 587.634 91 612 c 0,71,72
 115.267 645.8 115.267 645.8 148.547 645.8 c 0,73,74
 153.667 645.8 153.667 645.8 159 645 c 0,55,56
EndSplineSet
Validated: 1
EndChar

StartChar: ampersand
Encoding: 38 38 9
Width: 628
GlyphClass: 2
Flags: MW
LayerCount: 2
Fore
SplineSet
273 384 m 1,0,1
 394 485 394 485 399 557 c 0,2,3
 399.219 560.509 399.219 560.509 399.219 563.929 c 0,4,5
 399.219 638.491 399.219 638.491 295 671 c 1,6,7
 184.196 671 184.196 671 184.196 591.099 c 0,8,9
 184.196 519.568 184.196 519.568 273 384 c 1,0,1
207 339 m 1,10,11
 111.255 490.915 111.255 490.915 111.255 597.198 c 0,12,13
 111.255 657.426 111.255 657.426 142 703 c 0,14,15
 174 751 174 751 286 751 c 0,16,17
 291 751 291 751 295 751 c 0,18,19
 397 743 397 743 452 683 c 0,20,21
 487.766 643.657 487.766 643.657 487.766 592.566 c 0,22,23
 487.766 543.664 487.766 543.664 455 484 c 0,24,25
 404 396 404 396 303 322 c 1,26,27
 337 248 337 248 415 159 c 1,28,29
 486 208 486 208 534 290 c 1,30,-1
 595 226 l 1,31,32
 519 153 519 153 455 111 c 1,33,-1
 543 9 l 1,34,-1
 472 -24 l 1,35,-1
 387 69 l 1,36,37
 279.667 13 279.667 13 201.222 13 c 0,38,39
 162 13 162 13 130 27 c 0,40,41
 67 55 67 55 61 126 c 0,42,43
 59.9011 138.308 59.9011 138.308 59.9011 149.83 c 0,44,45
 59.9011 243.165 59.9011 243.165 132 285 c 0,46,47
 190 319 190 319 207 339 c 1,10,11
244 284 m 1,48,49
 138.44 215.645 138.44 215.645 138.44 158.521 c 0,50,51
 138.44 149.624 138.44 149.624 141 141 c 0,52,53
 155 96 155 96 213 93 c 0,54,55
 218.719 92.7188 218.719 92.7188 224.508 92.7188 c 0,56,57
 280.469 92.7188 280.469 92.7188 343 119 c 1,58,59
 285 196 285 196 244 284 c 1,48,49
EndSplineSet
Validated: 1
EndChar

StartChar: quotesingle
Encoding: 39 39 10
Width: 205
GlyphClass: 2
Flags: MW
LayerCount: 2
Fore
SplineSet
71 811 m 1,0,-1
 138 810 l 1,1,2
 150 806 150 806 151 780 c 0,3,4
 151 772 151 772 151 760 c 0,5,6
 149 652 149 652 100 628 c 0,7,8
 91 624 91 624 68 624 c 1,9,10
 38.8788 632.455 38.8788 632.455 38.8788 694.739 c 0,11,12
 38.8788 698.758 38.8788 698.758 39 703 c 0,13,14
 42 773 42 773 71 811 c 1,0,-1
EndSplineSet
Validated: 1
EndChar

StartChar: parenleft
Encoding: 40 40 11
Width: 379
GlyphClass: 2
Flags: MW
LayerCount: 2
Fore
SplineSet
281 816 m 1,0,1
 301.447 777.085 301.447 777.085 301.447 739.91 c 0,2,3
 301.447 720.723 301.447 720.723 296 702 c 1,4,5
 293.162 702.225 293.162 702.225 290.375 702.225 c 0,6,7
 231.288 702.225 231.288 702.225 195 601 c 0,8,9
 151.786 483.143 151.786 483.143 151.786 338.74 c 0,10,11
 151.786 299.357 151.786 299.357 155 258 c 0,12,13
 171 52 171 52 228 -36 c 0,14,15
 262 -88 262 -88 302 -88 c 1,16,17
 327.521 -105.5 327.521 -105.5 327.521 -135.229 c 0,18,19
 327.521 -146.271 327.521 -146.271 324 -159 c 0,20,21
 318 -182 318 -182 293 -201 c 1,22,23
 193 -197 193 -197 129 -34 c 0,24,25
 63.593 130.826 63.593 130.826 63.593 314.665 c 0,26,27
 63.593 341.628 63.593 341.628 65 369 c 0,28,29
 74 573 74 573 166 730 c 0,30,31
 215 814 215 814 281 816 c 1,0,1
EndSplineSet
Validated: 1
EndChar

StartChar: parenright
Encoding: 41 41 12
Width: 361
GlyphClass: 2
Flags: MW
LayerCount: 2
Fore
SplineSet
80 815 m 1,0,1
 145 813 145 813 194 731 c 0,2,3
 267 608 267 608 279 377 c 0,4,5
 281.315 334.795 281.315 334.795 281.315 294.841 c 0,6,7
 281.315 110.438 281.315 110.438 232 -26 c 0,8,9
 174 -188 174 -188 68 -192 c 1,10,11
 47 -166 47 -166 47 -142 c 0,12,13
 47 -127 47 -127 65 -88 c 1,14,15
 105 -88 105 -88 138 -39 c 0,16,17
 181 25 181 25 203 258 c 0,18,19
 207.696 309.391 207.696 309.391 207.696 356.563 c 0,20,21
 207.696 490.217 207.696 490.217 170 590 c 0,22,23
 126.475 704.131 126.475 704.131 61.4343 704.131 c 0,24,25
 59.2295 704.131 59.2295 704.131 57 704 c 1,26,27
 50.6508 721.143 50.6508 721.143 50.6508 738.588 c 0,28,29
 50.6508 776.095 50.6508 776.095 80 815 c 1,0,1
EndSplineSet
Validated: 1
EndChar

StartChar: asterisk
Encoding: 42 42 13
Width: 601
GlyphClass: 2
Flags: MW
LayerCount: 2
Fore
SplineSet
424 154 m 1,0,1
 416.107 151.988 416.107 151.988 408.454 151.988 c 0,2,3
 366.655 151.988 366.655 151.988 332 212 c 2,4,-1
 294 303 l 2,5,6
 289 315 289 315 285 325 c 1,7,8
 224 162 224 162 222 160 c 0,9,10
 204.5 140.4 204.5 140.4 177.69 140.4 c 0,11,12
 166.2 140.4 166.2 140.4 153 144 c 1,13,14
 144.809 161.292 144.809 161.292 144.809 181.161 c 0,15,16
 144.809 226.787 144.809 226.787 188 286 c 2,17,-1
 241 359 l 1,18,19
 141.1 350.9 141.1 350.9 114.91 350.9 c 0,20,21
 112 350.9 112 350.9 110 351 c 0,22,23
 34 355 34 355 34 407 c 1,24,25
 53.4493 460.928 53.4493 460.928 118.229 460.928 c 0,26,27
 126.725 460.928 126.725 460.928 136 460 c 0,28,29
 146 459 146 459 232 435 c 1,30,31
 217 465 217 465 182 513 c 0,32,33
 137.515 573.662 137.515 573.662 137.515 614.043 c 0,34,35
 137.515 623.588 137.515 623.588 140 632 c 0,36,37
 145 650 145 650 158 664 c 1,38,39
 221 662 221 662 243 583 c 2,40,-1
 274 473 l 2,41,42
 276 466 276 466 281 457 c 1,43,44
 335 604 335 604 380 640 c 0,45,46
 402 658 402 658 438 660 c 1,47,48
 440.56 648.546 440.56 648.546 440.56 636.311 c 0,49,50
 440.56 557.752 440.56 557.752 335 447 c 1,51,52
 431.609 468.043 431.609 468.043 464.172 468.043 c 0,53,54
 465.652 468.043 465.652 468.043 467 468 c 0,55,56
 539 467 539 467 556 400 c 1,57,58
 511.647 350.294 511.647 350.294 436.886 350.294 c 0,59,60
 413.882 350.294 413.882 350.294 388 355 c 0,61,62
 348 362 348 362 335 370 c 1,63,64
 353 345 353 345 399 276 c 0,65,66
 431.451 228 431.451 228 431.451 189.141 c 0,67,68
 431.451 170.521 431.451 170.521 424 154 c 1,0,1
EndSplineSet
Validated: 1
EndChar

StartChar: plus
Encoding: 43 43 14
Width: 556
GlyphClass: 2
Flags: MW
LayerCount: 2
Fore
SplineSet
257 443 m 1,0,1
 253 512 253 512 237 614 c 1,2,3
 280.636 623.091 280.636 623.091 293.694 623.091 c 0,4,5
 295 623.091 295 623.091 296 623 c 0,6,7
 318 623 318 623 341 614 c 1,8,9
 348 519 348 519 349 443 c 1,10,-1
 504 461 l 1,11,12
 515.5 437 515.5 437 515.5 411.5 c 128,-1,13
 515.5 386 515.5 386 504 359 c 1,14,15
 422 348 422 348 350 345 c 1,16,17
 349 261 349 261 341 175 c 1,18,19
 311.5 160 311.5 160 285.5 160 c 128,-1,20
 259.5 160 259.5 160 237 175 c 1,21,22
 254 256 254 256 257 344 c 1,23,24
 162 347 162 347 68 359 c 1,25,26
 50.2037 377.944 50.2037 377.944 50.2037 403.48 c 0,27,28
 50.2037 422.426 50.2037 422.426 60 445 c 0,29,30
 63 451 63 451 68 461 c 1,31,32
 162 446 162 446 257 443 c 1,0,1
EndSplineSet
Validated: 1
EndChar

StartChar: comma
Encoding: 44 44 15
Width: 280
GlyphClass: 2
Flags: MW
LayerCount: 2
Fore
SplineSet
104 78 m 0,0,1
 117.515 121.368 117.515 121.368 145 142 c 0,2,3
 154.688 148.781 154.688 148.781 165.484 148.781 c 0,4,5
 181.953 148.781 181.953 148.781 201 133 c 0,6,7
 222.782 115.454 222.782 115.454 222.782 85.461 c 0,8,9
 222.782 65.8824 222.782 65.8824 213.5 41 c 0,10,11
 190 -22 190 -22 153 -34 c 1,12,13
 110.741 -65 110.741 -65 28 -81 c 1,14,15
 40.1419 -62.7871 40.1419 -62.7871 68 -9 c 0,16,17
 89.622 32.7467 89.622 32.7467 104 78 c 0,0,1
EndSplineSet
Validated: 1
EndChar

StartChar: hyphen
Encoding: 45 45 16
Width: 601
GlyphClass: 2
Flags: MW
LayerCount: 2
Fore
SplineSet
86 409 m 1,0,1
 124 413 124 413 261 445 c 0,2,3
 352.235 466.353 352.235 466.353 417.512 466.353 c 0,4,5
 453.118 466.353 453.118 466.353 481 460 c 0,6,7
 514 452 514 452 544 436 c 1,8,9
 550.4 397.6 550.4 397.6 550.4 387.36 c 0,10,11
 550.4 384.8 550.4 384.8 550 384 c 1,12,13
 548 374 548 374 522 356 c 1,14,15
 472.172 385.897 472.172 385.897 400.008 385.897 c 0,16,17
 349.069 385.897 349.069 385.897 287 371 c 0,18,19
 176 344 176 344 120 295 c 1,20,21
 83.5172 362.414 83.5172 362.414 83.5172 394.603 c 0,22,23
 83.5172 403 83.5172 403 86 409 c 1,0,1
EndSplineSet
Validated: 1
EndChar

StartChar: period
Encoding: 46 46 17
Width: 241
GlyphClass: 2
Flags: MW
LayerCount: 2
Fore
SplineSet
58 129 m 1,0,1
 111 151 111 151 121 153 c 0,2,3
 122.929 153.143 122.929 153.143 124.776 153.143 c 0,4,5
 148.786 153.143 148.786 153.143 159 129 c 0,6,7
 177.963 93.4444 177.963 93.4444 177.963 67.0192 c 0,8,9
 177.963 48.8519 177.963 48.8519 169 35 c 0,10,11
 165 29 165 29 159 22 c 0,12,13
 135.059 0.647059 135.059 0.647059 111.955 0.647059 c 0,14,15
 99.3529 0.647059 99.3529 0.647059 87 7 c 0,16,17
 61 21 61 21 58 22 c 1,18,19
 35.5 45.5 35.5 45.5 35.5 72.25 c 128,-1,20
 35.5 99 35.5 99 58 129 c 1,0,1
EndSplineSet
Validated: 1
EndChar

StartChar: slash
Encoding: 47 47 18
Width: 415
GlyphClass: 2
Flags: MW
LayerCount: 2
Fore
SplineSet
271 700 m 0,0,1
 292.143 732.595 292.143 732.595 321.823 732.595 c 0,2,3
 325.833 732.595 325.833 732.595 330 732 c 0,4,5
 356 728 356 728 366 700 c 1,6,7
 226 391 226 391 177 196 c 0,8,9
 155 110 155 110 145 28 c 1,10,11
 123.341 -5.39024 123.341 -5.39024 94.3534 -5.39024 c 0,12,13
 91.2195 -5.39024 91.2195 -5.39024 88 -5 c 0,14,15
 64 -2 64 -2 50 28 c 1,16,17
 77 370 77 370 271 700 c 0,0,1
EndSplineSet
Validated: 1
EndChar

StartChar: zero
Encoding: 48 48 19
Width: 658
GlyphClass: 2
Flags: MW
LayerCount: 2
Fore
SplineSet
208 636 m 0,0,1
 185 579 185 579 177 432 c 0,2,3
 175.877 412.351 175.877 412.351 175.877 393.746 c 0,4,5
 175.877 279.789 175.877 279.789 218 205 c 0,6,7
 230 184 230 184 237 177 c 0,8,9
 314.025 98.9875 314.025 98.9875 321.814 98.9875 c 0,10,11
 374.337 98.9875 374.337 98.9875 439.168 171.994 c 0,12,13
 511.754 253.732 511.754 253.732 511.754 417.217 c 0,14,15
 511.754 532.338 511.754 532.338 460 618 c 0,16,17
 454 628 454 628 447 636 c 0,18,19
 393.261 701.894 393.261 701.894 332.973 701.894 c 0,20,21
 299.025 701.894 299.025 701.894 258.013 677.947 c 128,-1,22
 217 654 217 654 208 636 c 0,0,1
147 726 m 1,23,24
 226.56 815.848 226.56 815.848 315.058 815.848 c 0,25,26
 355.592 815.848 355.592 815.848 398 797 c 0,27,28
 448 774 448 774 495 726 c 0,29,30
 594.15 619.15 594.15 619.15 594.15 447.435 c 0,31,32
 594.15 440.766 594.15 440.766 594 434 c 0,33,34
 591 267 591 267 502 133 c 2,35,-1
 486 111 l 2,36,37
 411 7 411 7 315 0 c 0,38,39
 307.85 -0.566372 307.85 -0.566372 300.87 -0.566372 c 0,40,41
 209.257 -0.566372 209.257 -0.566372 147 97 c 0,42,43
 142 104 142 104 138 111 c 0,44,45
 70.163 256.978 70.163 256.978 70.163 419.178 c 0,46,47
 70.163 445.87 70.163 445.87 72 473 c 0,48,49
 81 619 81 619 147 726 c 1,23,24
EndSplineSet
Validated: 1
EndChar

StartChar: one
Encoding: 49 49 20
Width: 376
GlyphClass: 2
Flags: MW
LayerCount: 2
Fore
SplineSet
217 802 m 1,0,1
 239.162 812.811 239.162 812.811 255.188 812.811 c 0,2,3
 268.811 812.811 268.811 812.811 278 805 c 0,4,5
 283 801 283 801 293 789 c 1,6,7
 293.529 776.824 293.529 776.824 293.529 758.948 c 0,8,9
 293.529 675.529 293.529 675.529 282 468 c 0,10,11
 275.905 362.476 275.905 362.476 275.905 281.188 c 0,12,13
 275.905 149.095 275.905 149.095 292 81 c 0,14,15
 304 31 304 31 324 0 c 1,16,-1
 171 12 l 1,17,18
 195.891 118.291 195.891 118.291 195.891 277.532 c 0,19,20
 195.891 355 195.891 355 190 445 c 0,21,22
 178 624 178 624 176 675 c 1,23,24
 156.781 682.247 156.781 682.247 135.973 682.247 c 0,25,26
 90.7397 682.247 90.7397 682.247 38 648 c 1,27,28
 10.1591 662.318 10.1591 662.318 10.1591 687.393 c 0,29,30
 10.1591 693.841 10.1591 693.841 12 701 c 0,31,32
 13 705 13 705 23 728 c 1,33,34
 35.875 727.625 35.875 727.625 47.7656 727.625 c 0,35,36
 131 727.625 131 727.625 166 746 c 0,37,38
 200 763 200 763 217 802 c 1,0,1
EndSplineSet
Validated: 1
EndChar

StartChar: two
Encoding: 50 50 21
Width: 622
GlyphClass: 2
Flags: MW
LayerCount: 2
Fore
SplineSet
61 470 m 1,0,1
 86 688 86 688 204 776 c 0,2,3
 262.207 819.141 262.207 819.141 324.633 819.141 c 0,4,5
 353.37 819.141 353.37 819.141 383 810 c 0,6,7
 469 783 469 783 510 693 c 0,8,9
 536.087 636.478 536.087 636.478 536.087 570.883 c 0,10,11
 536.087 485.609 536.087 485.609 492 385 c 0,12,13
 427 235 427 235 270 81 c 1,14,15
 295 81 295 81 389 99 c 0,16,17
 423.8 105.4 423.8 105.4 450.6 105.4 c 0,18,19
 490.8 105.4 490.8 105.4 513 91 c 0,20,21
 516 89 516 89 519 86 c 0,22,23
 536.5 65.5 536.5 65.5 536.5 40.25 c 128,-1,24
 536.5 15 536.5 15 519 -15 c 1,25,26
 483.455 11.2727 483.455 11.2727 361.329 11.2727 c 0,27,28
 325.409 11.2727 325.409 11.2727 282 9 c 0,29,30
 100 0 100 0 52 0 c 1,31,32
 325 211 325 211 398 430 c 0,33,34
 428.044 518.978 428.044 518.978 428.044 577.911 c 0,35,36
 428.044 620.978 428.044 620.978 412 648 c 0,37,38
 376.708 707.138 376.708 707.138 318.67 707.138 c 0,39,40
 315.862 707.138 315.862 707.138 313 707 c 0,41,42
 239 703 239 703 184 610 c 0,43,44
 148 549 148 549 129 458 c 1,45,46
 113.522 430.231 113.522 430.231 98.0448 430.231 c 0,47,-1
 61 470 l 1,0,1
EndSplineSet
Validated: 1
EndChar

StartChar: three
Encoding: 51 51 22
Width: 616
GlyphClass: 2
Flags: MW
LayerCount: 2
Fore
SplineSet
52 583 m 1,0,1
 120 744 120 744 247 794 c 0,2,3
 295.675 813.277 295.675 813.277 341.562 813.277 c 0,4,5
 390.892 813.277 390.892 813.277 437 791 c 0,6,7
 512 755 512 755 527 682 c 0,8,9
 529.941 667.147 529.941 667.147 529.941 652.229 c 0,10,11
 529.941 565.706 529.941 565.706 431 477 c 0,12,13
 380 432 380 432 306 391 c 1,14,15
 498 349 498 349 544 242 c 0,16,17
 556.517 213.172 556.517 213.172 556.517 184.633 c 0,18,19
 556.517 137.931 556.517 137.931 523 92 c 0,20,21
 471 21 471 21 378 5 c 0,22,23
 355.651 1.15873 355.651 1.15873 333.789 1.15873 c 0,24,25
 230.444 1.15873 230.444 1.15873 138 87 c 0,26,27
 83 139 83 139 39 218 c 1,28,29
 46 219 46 219 78 235 c 0,30,31
 90.7941 241.618 90.7941 241.618 101.447 241.618 c 0,32,33
 114.941 241.618 114.941 241.618 125 231 c 0,34,35
 218 113 218 113 322 95 c 0,36,37
 339.077 92.2308 339.077 92.2308 353.97 92.2308 c 0,38,39
 403.615 92.2308 403.615 92.2308 429 123 c 0,40,41
 446.112 143.35 446.112 143.35 446.112 168.406 c 0,42,43
 446.112 197.525 446.112 197.525 423 233 c 0,44,45
 372 311 372 311 229 378 c 1,46,47
 398 527 398 527 414 637 c 0,48,49
 415.35 647.05 415.35 647.05 415.35 656.065 c 0,50,51
 415.35 707.15 415.35 707.15 372 725 c 0,52,53
 353.859 732.451 353.859 732.451 333.41 732.451 c 0,54,55
 290.732 732.451 290.732 732.451 238 700 c 0,56,57
 170 657 170 657 118 572 c 1,58,59
 100.128 559.745 100.128 559.745 85.9058 559.745 c 0,60,61
 72.2766 559.745 72.2766 559.745 62 571 c 0,62,63
 61 572 61 572 52 583 c 1,0,1
EndSplineSet
Validated: 1
EndChar

StartChar: four
Encoding: 52 52 23
Width: 604
GlyphClass: 2
Flags: MW
LayerCount: 2
Fore
SplineSet
402 452 m 1,0,1
 412.795 452.568 412.795 452.568 423.178 452.568 c 0,2,3
 504.159 452.568 504.159 452.568 560 418 c 1,4,-1
 544 327 l 1,5,6
 492.472 361.028 492.472 361.028 405.026 361.028 c 0,7,8
 402.528 361.028 402.528 361.028 400 361 c 1,9,10
 399.038 329.846 399.038 329.846 399.038 300.172 c 0,11,12
 399.038 175.538 399.038 175.538 416 77 c 0,13,14
 423 34 423 34 433 9 c 1,15,16
 426.486 -1.31429 426.486 -1.31429 403.174 -1.31429 c 0,17,18
 383.543 -1.31429 383.543 -1.31429 352 6 c 0,19,20
 326 12 326 12 325 12 c 1,21,22
 306 109 306 109 306 313 c 0,23,24
 306 339 306 339 307 361 c 1,25,26
 208.75 354.25 208.75 354.25 147.625 354.25 c 0,27,28
 127.25 354.25 127.25 354.25 111 355 c 1,29,30
 70.9885 400.437 70.9885 400.437 70.9885 493.703 c 0,31,32
 70.9885 537.966 70.9885 537.966 80 593 c 2,33,-1
 109 768 l 2,34,35
 111 780 111 780 111 810 c 1,36,-1
 209 801 l 1,37,38
 209 776 209 776 186 665 c 0,39,40
 171.981 594.904 171.981 594.904 171.981 545.837 c 0,41,42
 171.981 500.404 171.981 500.404 184 473 c 0,43,44
 192 455 192 455 207 443 c 1,45,46
 214.333 442.833 214.333 442.833 222 442.833 c 0,47,48
 260.333 442.833 260.333 442.833 307 447 c 1,49,-1
 325 782 l 2,50,51
 325 792 325 792 325 801 c 1,52,53
 355.176 811.618 355.176 811.618 378.17 811.618 c 0,54,55
 396.324 811.618 396.324 811.618 410 805 c 0,56,57
 429 796 429 796 430 795 c 1,58,59
 428 716 428 716 408 522 c 0,60,61
 404 483 404 483 402 452 c 1,0,1
EndSplineSet
Validated: 1
EndChar

StartChar: five
Encoding: 53 53 24
Width: 640
GlyphClass: 2
Flags: MW
LayerCount: 2
Fore
SplineSet
145 705 m 1,0,-1
 60 702 l 1,1,-1
 28 770 l 1,2,3
 163 771 163 771 275 792 c 0,4,5
 373.122 809.781 373.122 809.781 437.418 809.781 c 0,6,7
 470.756 809.781 470.756 809.781 495 805 c 0,8,9
 549 794 549 794 587 762 c 1,10,-1
 601 653 l 1,11,12
 523.061 725.305 523.061 725.305 384.28 725.305 c 0,13,14
 375.268 725.305 375.268 725.305 366 725 c 0,15,16
 331 724 331 724 241 714 c 1,17,-1
 185 482 l 1,18,19
 438 474 438 474 505 355 c 0,20,21
 527.837 314.496 527.837 314.496 527.837 270.464 c 0,22,23
 527.837 212.309 527.837 212.309 488 148 c 0,24,25
 432 58 432 58 350 22 c 0,26,27
 296.612 -1.5102 296.612 -1.5102 250.901 -1.5102 c 0,28,29
 203.286 -1.5102 203.286 -1.5102 164 24 c 0,30,31
 107 61 107 61 95 189 c 1,32,-1
 186 189 l 1,33,34
 193 101 193 101 258 95 c 0,35,36
 261.774 94.6981 261.774 94.6981 265.559 94.6981 c 0,37,38
 311.925 94.6981 311.925 94.6981 360 140 c 0,39,40
 424 202 424 202 425 270 c 0,41,42
 425.035 271.544 425.035 271.544 425.035 273.072 c 0,43,44
 425.035 358.649 425.035 358.649 315 395 c 0,45,46
 243.727 418.758 243.727 418.758 133.579 418.758 c 0,47,48
 113.909 418.758 113.909 418.758 93 418 c 1,49,-1
 145 705 l 1,0,-1
EndSplineSet
Validated: 1
EndChar

StartChar: six
Encoding: 54 54 25
Width: 577
GlyphClass: 2
Flags: MW
LayerCount: 2
Fore
SplineSet
168 427 m 1,0,1
 291.955 468.318 291.955 468.318 372.284 468.318 c 0,2,3
 459.151 468.318 459.151 468.318 495 420 c 0,4,5
 531.992 371.584 531.992 371.584 531.992 307.779 c 0,6,7
 531.992 254.296 531.992 254.296 506 190 c 0,8,9
 491 152 491 152 489 149 c 0,10,11
 406.32 4.53714 406.32 4.53714 304.653 4.53714 c 0,12,13
 294.423 4.53714 294.423 4.53714 284 6 c 0,14,15
 199 18 199 18 137 124 c 0,16,17
 71.6667 234.133 71.6667 234.133 71.6667 377.369 c 0,18,19
 71.6667 387.6 71.6667 387.6 72 398 c 0,20,21
 78 590 78 590 206 710 c 0,22,23
 283 782 283 782 397 816 c 1,24,-1
 432 738 l 1,25,26
 280 700 280 700 210 555 c 0,27,28
 170 472 170 472 168 427 c 1,0,1
174 330 m 1,29,30
 186 198 186 198 234 144 c 0,31,32
 261.418 113.418 261.418 113.418 293.285 113.418 c 0,33,34
 321.855 113.418 321.855 113.418 354 138 c 0,35,36
 406 178 406 178 429 237 c 0,37,38
 442.226 269.557 442.226 269.557 442.226 294.867 c 0,39,40
 442.226 344.191 442.226 344.191 392 366 c 0,41,42
 367.62 376.58 367.62 376.58 334.353 376.58 c 0,43,44
 295.3 376.58 295.3 376.58 244 362 c 0,45,46
 185 345 185 345 174 330 c 1,29,30
EndSplineSet
Validated: 1
EndChar

StartChar: seven
Encoding: 55 55 26
Width: 586
GlyphClass: 2
Flags: MW
LayerCount: 2
Fore
SplineSet
430 440 m 1,0,1
 468 437 468 437 507 434 c 1,2,3
 522.291 417.655 522.291 417.655 522.291 399.363 c 0,4,5
 522.291 382.964 522.291 382.964 510 365 c 1,6,-1
 426 369 l 1,7,8
 401 101 401 101 338 27 c 0,9,10
 328 15 328 15 318 5 c 1,11,12
 273.214 -3.64286 273.214 -3.64286 249.418 -3.64286 c 0,13,14
 242.929 -3.64286 242.929 -3.64286 238 -3 c 1,15,16
 318 92 318 92 343 362 c 1,17,18
 335 364.56 335 364.56 322.904 364.56 c 0,19,20
 297.2 364.56 297.2 364.56 253 353 c 0,21,22
 211.571 342.286 211.571 342.286 185.959 342.286 c 0,23,24
 175.714 342.286 175.714 342.286 168 344 c 1,25,26
 152.982 354.875 152.982 354.875 152.982 373.527 c 0,27,28
 152.982 390.893 152.982 390.893 166 415 c 1,29,30
 174.296 413.185 174.296 413.185 185.281 413.185 c 0,31,32
 216.667 413.185 216.667 413.185 270 428 c 0,33,34
 305 437.375 305 437.375 325.938 437.375 c 0,35,36
 338.5 437.375 338.5 437.375 346 434 c 1,37,38
 358 668 358 668 380 724 c 1,39,40
 325 719 325 719 225 682 c 0,41,42
 146.455 652.545 146.455 652.545 104.058 652.545 c 0,43,44
 94.6364 652.545 94.6364 652.545 87 654 c 0,45,46
 55 660 55 660 27 715 c 1,47,48
 23 771 23 771 21 795 c 1,49,50
 49.8904 750.493 49.8904 750.493 112.923 750.493 c 0,51,52
 130.616 750.493 130.616 750.493 151 754 c 0,53,54
 168 757 168 757 272 790 c 0,55,56
 353.176 815.412 353.176 815.412 415.419 815.412 c 0,57,58
 441.353 815.412 441.353 815.412 464 811 c 0,59,60
 517 801 517 801 529 786 c 0,61,62
 544.68 763.6 544.68 763.6 544.68 736.81 c 0,63,64
 544.68 715.76 544.68 715.76 535 692 c 1,65,66
 527 704 527 704 468 722 c 1,67,68
 440 634 440 634 430 440 c 1,0,1
EndSplineSet
Validated: 1
EndChar

StartChar: eight
Encoding: 56 56 27
Width: 517
GlyphClass: 2
Flags: MW
LayerCount: 2
Fore
SplineSet
235 298 m 0,0,1
 169 295 169 295 152 218 c 0,2,3
 146.367 192.867 146.367 192.867 146.367 173.367 c 0,4,5
 146.367 147.867 146.367 147.867 156 132 c 0,6,7
 185 90 185 90 245 85 c 0,8,9
 252.2 84.3455 252.2 84.3455 259.019 84.3455 c 0,10,11
 314.709 84.3455 314.709 84.3455 345 128 c 0,12,13
 355 142 355 142 361 158 c 1,14,15
 363.793 172.897 363.793 172.897 363.793 185.674 c 0,16,17
 363.793 214.069 363.793 214.069 350 232 c 0,18,19
 305.314 298.057 305.314 298.057 238.924 298.057 c 0,20,21
 236.971 298.057 236.971 298.057 235 298 c 0,0,1
233 714 m 1,22,23
 200 691 200 691 184 634 c 0,24,25
 177.315 607.963 177.315 607.963 177.315 585.145 c 0,26,27
 177.315 543.111 177.315 543.111 200 512 c 0,28,29
 215.38 490.577 215.38 490.577 238.605 490.577 c 0,30,31
 257.662 490.577 257.662 490.577 282 505 c 0,32,33
 331 533 331 533 355 575 c 0,34,35
 358 580 358 580 360 584 c 0,36,37
 372.014 613 372.014 613 372.014 636.336 c 0,38,39
 372.014 669.329 372.014 669.329 348 691 c 0,40,41
 313.167 721.083 313.167 721.083 273.319 721.083 c 0,42,43
 262.833 721.083 262.833 721.083 252 719 c 0,44,45
 242 717 242 717 233 714 c 1,22,23
229.187 383.196 m 1,46,47
 97.9929 425.706 97.9929 425.706 97.9929 565.935 c 0,48,49
 97.9929 566.965 97.9929 566.965 98 568 c 0,50,51
 98.4427 632.756 98.4427 632.756 99 640 c 0,52,53
 107.721 753.375 107.721 753.375 199 798 c 0,54,55
 239.834 817.865 239.834 817.865 283.282 817.865 c 0,56,57
 316.86 817.865 316.86 817.865 352 806 c 0,58,59
 429 780 429 780 450 708 c 0,60,61
 457.111 684 457.111 684 457.111 660.79 c 0,62,63
 457.111 657.889 457.111 657.889 457 655 c 0,64,65
 451.625 515.245 451.625 515.245 355 448 c 0,66,67
 299.272 408.967 299.272 408.967 275.181 397.504 c 0,68,-1
 244.003 384.726 l 1,69,70
 335.265 367.69 335.265 367.69 372 344 c 0,71,72
 445.052 296.574 445.052 296.574 445.052 171.729 c 0,73,74
 445.052 168.392 445.052 168.392 445 165 c 0,75,76
 442.968 62.3689 442.968 62.3689 356 20 c 0,77,78
 311.091 -1.87879 311.091 -1.87879 262.535 -1.87879 c 0,79,80
 226.758 -1.87879 226.758 -1.87879 189 10 c 0,81,82
 98 39 98 39 66 117 c 0,83,84
 53 149 53 149 53 186 c 0,85,86
 53 313.569 53 313.569 114.987 343.996 c 1,87,88
 191.188 382.796 191.188 382.796 229.187 383.196 c 1,46,47
EndSplineSet
Validated: 1
EndChar

StartChar: nine
Encoding: 57 57 28
Width: 556
GlyphClass: 2
Flags: MW
LayerCount: 2
Fore
SplineSet
385 352 m 1,0,1
 342.746 347.599 342.746 347.599 306.227 347.599 c 0,2,3
 135.317 347.599 135.317 347.599 90 444 c 0,4,5
 74.9911 476.214 74.9911 476.214 74.9911 514.057 c 0,6,7
 74.9911 579.589 74.9911 579.589 120 662 c 0,8,9
 140 697 140 697 146 705 c 0,10,11
 237.706 820.182 237.706 820.182 316.494 820.182 c 0,12,13
 345.098 820.182 345.098 820.182 372 805 c 0,14,15
 450 761 450 761 482 611 c 0,16,17
 498.333 534.467 498.333 534.467 498.333 456.627 c 0,18,19
 498.333 367.667 498.333 367.667 477 277 c 0,20,21
 432 87 432 87 311 21 c 0,22,23
 256.783 -9.12048 256.783 -9.12048 191.316 -9.12048 c 0,24,25
 148.108 -9.12048 148.108 -9.12048 100 4 c 1,26,-1
 85 92 l 1,27,28
 146.448 76.209 146.448 76.209 193.165 76.209 c 0,29,30
 282.537 76.209 282.537 76.209 318 134 c 0,31,32
 344 177 344 177 370 292 c 0,33,34
 379 332 379 332 385 352 c 1,0,1
405 478 m 1,35,36
 408.38 512.32 408.38 512.32 408.38 542.178 c 0,37,38
 408.38 627.16 408.38 627.16 381 676 c 0,39,40
 356.868 720.041 356.868 720.041 321.816 720.041 c 0,41,42
 298.769 720.041 298.769 720.041 271 701 c 0,43,44
 217 664 217 664 183 603 c 0,45,46
 168.254 574.947 168.254 574.947 168.254 549.611 c 0,47,48
 168.254 504.5 168.254 504.5 215 468 c 0,49,50
 249.255 441.936 249.255 441.936 296.265 441.936 c 0,51,52
 312.383 441.936 312.383 441.936 330 445 c 0,53,54
 384 454 384 454 405 478 c 1,35,36
EndSplineSet
Validated: 1
EndChar

StartChar: colon
Encoding: 58 58 29
Width: 325
GlyphClass: 2
Flags: MW
LayerCount: 2
Fore
SplineSet
163 189 m 1,0,1
 176.783 191.036 176.783 191.036 188.285 191.036 c 0,2,3
 246.269 191.036 246.269 191.036 246.269 139.287 c 0,4,5
 246.269 135.763 246.269 135.763 246 132 c 2,6,-1
 244 104 l 1,7,8
 231 57 231 57 182 50 c 0,9,10
 179.667 49.6667 179.667 49.6667 176.333 49.6667 c 0,11,12
 169.667 49.6667 169.667 49.6667 159 51 c 1,13,14
 101.684 74.4474 101.684 74.4474 101.684 111.47 c 0,15,16
 101.684 117.079 101.684 117.079 103 123 c 0,17,18
 115 175 115 175 151 187 c 0,19,20
 157 189 157 189 163 189 c 1,0,1
150 457 m 0,21,22
 215 450 215 450 224 440 c 0,23,24
 235 429 235 429 238 398 c 0,25,26
 239.729 385.429 239.729 385.429 239.729 374.833 c 0,27,28
 239.729 318 239.729 318 190 318 c 0,29,30
 174 318 174 318 143 324 c 1,31,32
 89.4286 350.429 89.4286 350.429 89.4286 389.102 c 0,33,34
 89.4286 404.571 89.4286 404.571 98 422 c 0,35,36
 109 444 109 444 144 456 c 0,37,38
 147 457 147 457 150 457 c 0,21,22
EndSplineSet
Validated: 1
EndChar

StartChar: semicolon
Encoding: 59 59 30
Width: 325
GlyphClass: 2
Flags: MW
LayerCount: 2
Fore
SplineSet
163 182 m 0,0,1
 176.403 183.87 176.403 183.87 187.716 183.87 c 0,2,3
 249 183.87 249 183.87 249 129 c 2,4,-1
 249 123 l 1,5,6
 194 0 194 0 153 -27 c 0,7,8
 98 -65 98 -65 59 -117 c 1,9,10
 49.5574 -108.344 49.5574 -108.344 49.5574 -84.9828 c 0,11,12
 49.5574 -48.9672 49.5574 -48.9672 72 22 c 0,13,14
 106 128 106 128 145 171 c 0,15,16
 155 182 155 182 163 182 c 0,0,1
170 448 m 0,17,18
 198 443 198 443 216 427 c 0,19,20
 227 418 227 418 232 367 c 0,21,22
 232.72 360.4 232.72 360.4 232.72 354.578 c 0,23,24
 232.72 311.88 232.72 311.88 194 311 c 0,25,26
 178 311 178 311 146 317 c 1,27,28
 96.9175 344.031 96.9175 344.031 96.9175 378.652 c 0,29,30
 96.9175 392.701 96.9175 392.701 105 408 c 0,31,32
 124 444 124 444 144 447 c 0,33,34
 159.333 448.333 159.333 448.333 165.778 448.333 c 0,35,36
 169 448.333 169 448.333 170 448 c 0,17,18
EndSplineSet
Validated: 1
EndChar

StartChar: less
Encoding: 60 60 31
Width: 388
GlyphClass: 2
Flags: MW
LayerCount: 2
Fore
SplineSet
209 635 m 1,0,1
 262.714 641.857 262.714 641.857 294.878 641.857 c 0,2,3
 319 641.857 319 641.857 331 638 c 0,4,5
 337 636 337 636 339 633 c 1,6,-1
 295 515 l 2,7,8
 244 377 244 377 168 345 c 1,9,10
 259 300 259 300 317 152 c 2,11,-1
 345 80 l 1,12,-1
 229 81 l 2,13,14
 221 81 221 81 215 82 c 1,15,-1
 173 210 l 2,16,17
 144 297 144 297 20 345 c 1,18,19
 152 420 152 420 175 508 c 2,20,-1
 203 617 l 1,21,-1
 209 635 l 1,0,1
EndSplineSet
Validated: 1
EndChar

StartChar: equal
Encoding: 61 61 32
Width: 607
GlyphClass: 2
Flags: MW
LayerCount: 2
Fore
SplineSet
86 323 m 1,0,1
 114 325 114 325 275 347 c 0,2,3
 345.939 356.878 345.939 356.878 396.921 356.878 c 0,4,5
 459.49 356.878 459.49 356.878 492 342 c 0,6,7
 512 333 512 333 525 319 c 1,8,9
 535.083 295.625 535.083 295.625 535.083 274.141 c 0,10,11
 535.083 248.75 535.083 248.75 521 226 c 0,12,13
 513 213 513 213 501 205 c 1,14,15
 446.882 236.373 446.882 236.373 357.701 236.373 c 0,16,17
 333.176 236.373 333.176 236.373 306 234 c 2,18,-1
 119 217 l 1,19,-1
 117 217 l 1,20,21
 81.7805 239.244 81.7805 239.244 81.7805 279.527 c 0,22,23
 81.7805 282.707 81.7805 282.707 82 286 c 0,24,25
 83 299 83 299 86 323 c 1,0,1
93 516 m 1,26,27
 151 517 151 517 288 544 c 0,28,29
 375.733 561.422 375.733 561.422 430.171 561.422 c 0,30,31
 463.222 561.422 463.222 561.422 484 555 c 0,32,33
 504 549 504 549 517 537 c 1,34,-1
 537 452 l 2,35,36
 538.4 445.6 538.4 445.6 538.4 440.4 c 0,37,38
 538.4 419.6 538.4 419.6 516 418 c 1,39,40
 477.283 442.453 477.283 442.453 388.276 442.453 c 0,41,42
 346.245 442.453 346.245 442.453 293 437 c 2,43,-1
 102 418 l 2,44,45
 98 418 98 418 95 418 c 1,46,47
 87 444 87 444 87 455 c 0,48,49
 87 480 87 480 93 516 c 1,26,27
EndSplineSet
Validated: 1
EndChar

StartChar: greater
Encoding: 62 62 33
Width: 439
GlyphClass: 2
Flags: MW
LayerCount: 2
Fore
SplineSet
176 635 m 1,0,1
 182 617 l 1,2,-1
 210 508 l 2,3,4
 233 420 233 420 365 345 c 1,5,6
 241 297 241 297 212 210 c 2,7,-1
 170 82 l 1,8,9
 164 81 164 81 156 81 c 2,10,-1
 40 80 l 1,11,-1
 68 152 l 2,12,13
 126 300 126 300 218 345 c 1,14,15
 141 377 141 377 90 515 c 2,16,-1
 46 633 l 1,17,18
 48 636 48 636 54 638 c 0,19,20
 66 641.857 66 641.857 90.1225 641.857 c 0,21,22
 122.286 641.857 122.286 641.857 176 635 c 1,0,1
EndSplineSet
Validated: 1
EndChar

StartChar: question
Encoding: 63 63 34
Width: 583
GlyphClass: 2
Flags: MW
LayerCount: 2
Fore
SplineSet
300 0 m 0,0,1
 297.448 -0.137931 297.448 -0.137931 294.963 -0.137931 c 0,2,3
 261.414 -0.137931 261.414 -0.137931 240 25 c 0,4,5
 228.975 37.6 228.975 37.6 228.975 56.2637 c 0,6,7
 228.975 73.15 228.975 73.15 238 95 c 0,8,9
 249 125 249 125 290 128 c 0,10,11
 293.8 128.2 293.8 128.2 297.39 128.2 c 0,12,13
 329.7 128.2 329.7 128.2 345 112 c 0,14,15
 369.82 89.2921 369.82 89.2921 369.82 67.6998 c 0,16,17
 369.82 48.4045 369.82 48.4045 350 30 c 0,18,19
 318 1 318 1 300 0 c 0,0,1
154 544 m 1,20,-1
 99 539 l 1,21,22
 80 541 80 541 65 568 c 1,23,24
 89 728 89 728 196 788 c 0,25,26
 246.293 816.213 246.293 816.213 298.468 816.213 c 0,27,28
 331.36 816.213 331.36 816.213 365 805 c 0,29,30
 432 782 432 782 472 705 c 0,31,32
 502.676 645.507 502.676 645.507 502.676 587.31 c 0,33,34
 502.676 520.296 502.676 520.296 462 455 c 0,35,36
 431 405 431 405 348 352 c 1,37,38
 347 321 347 321 332 270 c 0,39,40
 326.548 249.871 326.548 249.871 326.548 231.852 c 0,41,42
 326.548 206.903 326.548 206.903 337 186 c 0,43,44
 338 184 338 184 340 181 c 1,45,-1
 235 180 l 1,46,47
 211.436 214.036 211.436 214.036 211.436 246.787 c 0,48,49
 211.436 264.073 211.436 264.073 218 281 c 2,50,-1
 245 349 l 2,51,52
 249 360 249 360 252 380 c 1,53,54
 383 486 383 486 384 596 c 0,55,56
 384.022 597.667 384.022 597.667 384.022 599.311 c 0,57,58
 384.022 671.667 384.022 671.667 341 701 c 0,59,60
 322.6 713.8 322.6 713.8 302.76 713.8 c 0,61,62
 273 713.8 273 713.8 240 685 c 0,63,64
 190 642 190 642 154 544 c 1,20,-1
EndSplineSet
Validated: 1
EndChar

StartChar: at
Encoding: 64 64 35
Width: 793
GlyphClass: 2
Flags: MW
LayerCount: 2
Fore
SplineSet
399 504 m 0,0,1
 441 502 441 502 456 444 c 0,2,3
 459.375 431.25 459.375 431.25 459.375 412.453 c 0,4,5
 459.375 381.125 459.375 381.125 450 333 c 0,6,7
 449 326 449 326 429 294 c 0,8,9
 416.12 272.84 416.12 272.84 378.694 272.84 c 0,10,11
 375.44 272.84 375.44 272.84 372 273 c 0,12,13
 350 274 350 274 330 300 c 0,14,15
 310.118 324.471 310.118 324.471 310.118 369.408 c 0,16,17
 310.118 383.235 310.118 383.235 312 399 c 0,18,19
 321 468 321 468 351 492 c 0,20,21
 366.786 504.071 366.786 504.071 394.643 504.071 c 0,22,23
 396.786 504.071 396.786 504.071 399 504 c 0,0,1
447 588 m 0,24,25
 424.333 594.4 424.333 594.4 402.591 594.4 c 0,26,27
 342.8 594.4 342.8 594.4 290 546 c 0,28,29
 234 494 234 494 219 417 c 0,30,31
 214.437 393.423 214.437 393.423 214.437 371.388 c 0,32,33
 214.437 306.507 214.437 306.507 254 255 c 0,34,35
 294 203 294 203 357 189 c 0,36,37
 379.235 184.388 379.235 184.388 398.541 184.388 c 0,38,39
 496.447 184.388 496.447 184.388 519 303 c 1,40,41
 545.82 202.82 545.82 202.82 588.818 202.82 c 0,42,43
 600.329 202.82 600.329 202.82 613 210 c 0,44,45
 689 252 689 252 708 324 c 0,46,47
 721.885 375.154 721.885 375.154 721.885 450.873 c 0,48,49
 721.885 478.769 721.885 478.769 720 510 c 0,50,51
 709 676 709 676 571 754 c 0,52,53
 513 787 513 787 438 801 c 0,54,55
 413.818 805.364 413.818 805.364 390.562 805.364 c 0,56,57
 285.909 805.364 285.909 805.364 200 717 c 0,58,59
 106 619 106 619 84 480 c 0,60,61
 78 442 78 442 78 405 c 0,62,63
 78 8.93842 78 8.93842 382.363 8.93842 c 0,64,65
 386.158 8.93842 386.158 8.93842 390 9 c 0,66,67
 513 11 513 11 684 78 c 0,68,69
 707 87 707 87 710 131 c 0,70,71
 710.2 135 710.2 135 710.2 138.64 c 0,72,73
 710.2 171.4 710.2 171.4 694 175 c 1,74,75
 690 177 690 177 684 174 c 0,76,77
 508.056 89.4302 508.056 89.4302 390.46 89.4302 c 0,78,79
 266.106 89.4302 266.106 89.4302 207 184 c 0,80,81
 158.923 260.923 158.923 260.923 158.923 391.47 c 0,82,83
 158.923 396.692 158.923 396.692 159 402 c 0,84,85
 161 533 161 533 230 628 c 0,86,87
 297.627 721.432 297.627 721.432 389.008 721.432 c 0,88,89
 400.322 721.432 400.322 721.432 412 720 c 0,90,91
 420 719 420 719 429 717 c 0,92,93
 590 685 590 685 635 549 c 0,94,95
 639.545 534.909 639.545 534.909 639.545 497.058 c 0,96,97
 639.545 451.636 639.545 451.636 633 372 c 0,98,99
 626.641 298.077 626.641 298.077 611.437 298.077 c 0,100,101
 607.513 298.077 607.513 298.077 603 303 c 0,102,103
 586 322 586 322 573 369 c 0,104,105
 547 458 547 458 544 512 c 0,106,107
 543.333 528 543.333 528 543.333 542.778 c 0,108,109
 543.333 572.333 543.333 572.333 546 597 c 1,110,111
 517.077 582.231 517.077 582.231 486.26 582.231 c 0,112,113
 467 582.231 467 582.231 447 588 c 0,24,25
EndSplineSet
Validated: 9
EndChar

StartChar: A
Encoding: 65 65 36
Width: 499
GlyphClass: 2
Flags: MW
LayerCount: 2
Fore
SplineSet
254 630 m 1,0,1
 212 581 212 581 201 491 c 0,2,3
 197.8 466.2 197.8 466.2 197.8 447.48 c 0,4,5
 197.8 419.4 197.8 419.4 205 405 c 1,6,7
 206.333 406 206.333 406 213.667 406 c 0,8,9
 228.333 406 228.333 406 267 402 c 0,10,11
 274.188 401.219 274.188 401.219 280.472 401.219 c 0,12,13
 314.406 401.219 314.406 401.219 322 424 c 0,14,15
 323 427 323 427 323 430 c 0,16,17
 317 529 317 529 292 593 c 0,18,19
 277.566 631.208 277.566 631.208 260.248 631.208 c 0,20,21
 257.17 631.208 257.17 631.208 254 630 c 1,0,1
432 8 m 1,22,23
 407.918 1.77647 407.918 1.77647 389.107 1.77647 c 0,24,25
 338.4 1.77647 338.4 1.77647 326 47 c 0,26,27
 321 65 321 65 312 157 c 0,28,29
 303 257 303 257 267 281 c 2,30,-1
 261 285 l 1,31,32
 211 283 211 283 203 207 c 2,33,-1
 189 76 l 2,34,35
 181 -3 181 -3 100 -3 c 0,36,37
 88 -3 88 -3 73 0 c 1,38,39
 72.8929 10.1429 72.8929 10.1429 72.8929 20.4401 c 0,40,41
 72.8929 298.464 72.8929 298.464 151 689 c 0,42,43
 152 694 152 694 152 695 c 1,44,45
 192.588 806.134 192.588 806.134 266.797 806.134 c 0,46,47
 269.378 806.134 269.378 806.134 272 806 c 0,48,49
 344 804 344 804 373 740 c 0,50,51
 379 726 379 726 384 712 c 1,52,-1
 416 355 l 2,53,54
 432.409 174.5 432.409 174.5 432.409 46.9566 c 0,55,56
 432.409 26.8182 432.409 26.8182 432 8 c 1,22,23
EndSplineSet
Validated: 1
EndChar

StartChar: B
Encoding: 66 66 37
Width: 541
GlyphClass: 2
Flags: MW
LayerCount: 2
Fore
SplineSet
324 111 m 1,0,1
 357.685 165.96 357.685 165.96 357.685 204.795 c 128,-1,2
 357.685 243.63 357.685 243.63 335 254 c 2,3,4
 308 301 308 301 254 305 c 2,5,-1
 209 308 l 1,6,7
 207 140 207 140 198 111 c 1,8,9
 225.88 99.44 225.88 99.44 246.04 99.44 c 128,-1,10
 266.2 99.44 266.2 99.44 294.6 105.22 c 128,-1,11
 323 111 323 111 324 111 c 1,0,1
198 714 m 1,12,13
 200 712 200 712 205.781 656 c 128,-1,14
 211.562 600 211.562 600 211.562 578.188 c 128,-1,15
 211.562 556.375 211.562 556.375 204 533 c 1,16,-1
 309 536 l 1,17,18
 369.062 587.344 369.062 587.344 369.062 616.164 c 0,19,20
 369.062 676.469 369.062 676.469 318 702 c 1,21,22
 313 703 313 703 295 708.5 c 128,-1,23
 277 714 277 714 198 714 c 1,12,13
63 813 m 1,24,-1
 228 812 l 2,25,26
 383 811 383 811 439 721 c 0,27,28
 466.268 675.761 466.268 675.761 466.268 640.5 c 128,-1,29
 466.268 605.239 466.268 605.239 456 579 c 0,30,31
 419 484 419 484 341 458 c 0,32,33
 295 442 295 442 204 426 c 1,34,35
 334 424 334 424 414 315 c 0,36,37
 460.806 250.642 460.806 250.642 460.806 187.681 c 0,38,39
 460.806 175.313 460.806 175.313 459 163 c 0,40,41
 445 65 445 65 356 24 c 0,42,43
 306 1 306 1 239 1 c 2,44,-1
 75 0 l 1,45,46
 102.273 115 102.273 115 102.273 311.273 c 128,-1,47
 102.273 507.545 102.273 507.545 63 813 c 1,24,-1
EndSplineSet
Validated: 1
EndChar

StartChar: C
Encoding: 67 67 38
Width: 562
GlyphClass: 2
Flags: MW
LayerCount: 2
Fore
SplineSet
388 609 m 1,0,1
 388.019 610.111 388.019 610.111 388.019 611.203 c 0,2,3
 388.019 669.056 388.019 669.056 336 672 c 0,4,5
 335.075 672.06 335.075 672.06 334.135 672.06 c 0,6,7
 303.597 672.06 303.597 672.06 258 609 c 0,8,9
 170.282 482.164 170.282 482.164 164 300 c 0,10,11
 163.938 298.031 163.938 298.031 163.938 296.036 c 0,12,13
 163.938 233.2 163.938 233.2 225 145 c 0,14,15
 260 95 260 95 294 93 c 0,16,17
 298.725 92.7253 298.725 92.7253 303.242 92.7253 c 0,18,19
 380.934 92.7253 380.934 92.7253 397 174 c 0,20,21
 398 179 398 179 399 183 c 1,22,-1
 469 183 l 1,23,24
 469.444 176.333 469.444 176.333 469.444 169.864 c 0,25,26
 469.444 89 469.444 89 400 39 c 0,27,28
 346.97 1.12121 346.97 1.12121 284.757 1.12121 c 0,29,30
 264.848 1.12121 264.848 1.12121 244 5 c 0,31,32
 144 24 144 24 97 123 c 0,33,34
 65.9697 188.939 65.9697 188.939 65.9697 289.67 c 0,35,36
 65.9697 497.61 65.9697 497.61 176 657 c 0,37,38
 249 763 249 763 333 793 c 0,39,40
 357.615 801.615 357.615 801.615 378.16 801.615 c 0,41,42
 424.385 801.615 424.385 801.615 448.393 761.008 c 128,-1,43
 472.4 720.4 472.4 720.4 472.4 655.28 c 0,44,45
 472.4 639 472.4 639 471 621 c 1,46,-1
 388 609 l 1,0,1
EndSplineSet
Validated: 1
EndChar

StartChar: D
Encoding: 68 68 39
Width: 580
GlyphClass: 2
Flags: MW
LayerCount: 2
Fore
SplineSet
177 694 m 1,0,1
 165.242 649.145 165.242 649.145 165.242 559.723 c 0,2,3
 165.242 443.806 165.242 443.806 185 253 c 0,4,5
 197 135 197 135 199 111 c 1,6,7
 215.364 98.8788 215.364 98.8788 237.237 98.8788 c 0,8,9
 251.455 98.8788 251.455 98.8788 268 104 c 0,10,11
 288 110 288 110 294 111 c 1,12,13
 390.806 206.137 390.806 206.137 390.806 346.542 c 0,14,15
 390.806 374.381 390.806 374.381 387 404 c 0,16,17
 370 544 370 544 327 636 c 0,18,19
 315 657 315 657 260 690 c 1,20,21
 245.7 702.1 245.7 702.1 222.022 702.1 c 0,22,23
 202.65 702.1 202.65 702.1 177 694 c 1,0,1
87 794 m 1,24,25
 125.114 809.114 125.114 809.114 165.388 809.114 c 0,26,27
 186.4 809.114 186.4 809.114 208 805 c 1,28,29
 362 800 362 800 436 665 c 0,30,31
 498.645 550.605 498.645 550.605 498.645 394.997 c 0,32,33
 498.645 379.211 498.645 379.211 498 363 c 0,34,35
 491 187 491 187 408 88 c 0,36,37
 338.094 2.85849 338.094 2.85849 240.076 2.85849 c 0,38,39
 228.726 2.85849 228.726 2.85849 217 4 c 2,40,-1
 122 13 l 2,41,42
 105 15 105 15 99 27 c 1,43,44
 64.3846 305.077 64.3846 305.077 64.3846 509.929 c 0,45,46
 64.3846 660.154 64.3846 660.154 83 771 c 0,47,48
 85 783 85 783 87 794 c 1,24,25
EndSplineSet
Validated: 1
EndChar

StartChar: E
Encoding: 69 69 40
Width: 562
GlyphClass: 2
Flags: MW
LayerCount: 2
Fore
SplineSet
223 486 m 1,0,-1
 323 460 l 2,1,2
 341.667 455.259 341.667 455.259 359.104 455.259 c 0,3,4
 400.519 455.259 400.519 455.259 435 482 c 1,5,6
 465 446 465 446 466 425 c 0,7,8
 466.25 421.25 466.25 421.25 466.25 417.625 c 0,9,10
 466.25 392.25 466.25 392.25 454 373 c 0,11,12
 436.293 346.439 436.293 346.439 358.985 346.439 c 0,13,14
 340.244 346.439 340.244 346.439 318 348 c 0,15,16
 304 349 304 349 224 364 c 1,17,-1
 229 230 l 2,18,19
 229.111 226.444 229.111 226.444 229.111 222.948 c 0,20,21
 229.111 163.5 229.111 163.5 197 121 c 1,22,23
 324 122 324 122 369 132 c 0,24,25
 416 143 416 143 449 165 c 1,26,27
 453.447 144.816 453.447 144.816 453.447 122.642 c 0,28,29
 453.447 80 453.447 80 437 30 c 1,30,31
 349.138 2.4023 349.138 2.4023 248.904 2.4023 c 0,32,33
 171.172 2.4023 171.172 2.4023 86 19 c 1,34,35
 118 116.333 118 116.333 118 259.444 c 0,36,37
 118 331 118 331 110 414 c 2,38,-1
 81 715 l 2,39,40
 80 725 80 725 80 751 c 128,-1,41
 80 777 80 777 81 819 c 1,42,43
 184 793 184 793 270 791 c 0,44,45
 279 790.735 279 790.735 287.798 790.735 c 0,46,47
 378.706 790.735 378.706 790.735 448 819 c 1,48,49
 461.611 789.444 461.611 789.444 461.611 760.343 c 0,50,51
 461.611 714.611 461.611 714.611 428 670 c 1,52,53
 352 667.5 352 667.5 309 667.5 c 128,-1,54
 266 667.5 266 667.5 256 670 c 1,55,56
 252 675 252 675 171 702 c 1,57,58
 223.267 612.4 223.267 612.4 223.267 501.893 c 0,59,60
 223.267 494 223.267 494 223 486 c 1,0,-1
EndSplineSet
Validated: 1
EndChar

StartChar: F
Encoding: 70 70 41
Width: 526
GlyphClass: 2
Flags: MW
LayerCount: 2
Fore
SplineSet
71 794 m 1,0,-1
 213 812 l 2,1,2
 259.071 819.143 259.071 819.143 295.449 819.143 c 0,3,4
 360.929 819.143 360.929 819.143 395 796 c 0,5,6
 436 768 436 768 444 717 c 0,7,8
 445.485 707.667 445.485 707.667 445.485 698.828 c 0,9,10
 445.485 666 445.485 666 425 640 c 0,11,12
 416 628 416 628 414 625 c 1,13,14
 401 697 401 697 316 697 c 0,15,16
 298 697 298 697 202 683 c 0,17,18
 182 680 182 680 167 679 c 1,19,20
 165.56 653.32 165.56 653.32 165.56 630.578 c 0,21,22
 165.56 558.56 165.56 558.56 180 516 c 0,23,24
 190 486 190 486 193 468 c 1,25,26
 208.714 450.714 208.714 450.714 244.184 450.714 c 0,27,28
 253.857 450.714 253.857 450.714 265 452 c 0,29,30
 292.067 455.267 292.067 455.267 311.076 455.267 c 0,31,32
 332.8 455.267 332.8 455.267 344 451 c 0,33,34
 359 445 359 445 370 431 c 1,35,-1
 364 330 l 1,36,37
 332 355 332 355 237 361 c 0,38,39
 193 364 193 364 183 365 c 1,40,41
 182.75 361 182.75 361 182.75 349.625 c 0,42,43
 182.75 315.5 182.75 315.5 185 215 c 0,44,45
 185.209 205.93 185.209 205.93 185.209 197.099 c 0,46,47
 185.209 79.3488 185.209 79.3488 148 4 c 0,48,49
 147 2 147 2 145 0 c 1,50,-1
 60 15 l 1,51,52
 89.6296 91.2963 89.6296 91.2963 89.6296 266.907 c 0,53,54
 89.6296 328.37 89.6296 328.37 86 402 c 2,55,-1
 71 710 l 2,56,57
 70.5 725 70.5 725 70.5 746 c 128,-1,58
 70.5 767 70.5 767 71 794 c 1,0,-1
EndSplineSet
Validated: 1
EndChar

StartChar: G
Encoding: 71 71 42
Width: 595
GlyphClass: 2
Flags: MW
LayerCount: 2
Fore
SplineSet
473 654 m 1,0,-1
 400 641 l 1,1,2
 372.389 686.323 372.389 686.323 342.336 686.323 c 0,3,4
 314.701 686.323 314.701 686.323 285 648 c 0,5,6
 221 566 221 566 195 435 c 0,7,8
 179.716 358.582 179.716 358.582 179.716 295.623 c 0,9,10
 179.716 226.761 179.716 226.761 198 174 c 0,11,12
 221.465 106.366 221.465 106.366 272.555 106.366 c 0,13,14
 295.493 106.366 295.493 106.366 324 120 c 0,15,16
 390 152 390 152 408 183 c 1,17,18
 445.786 217.5 445.786 217.5 445.786 241.204 c 0,19,20
 445.786 260.786 445.786 260.786 420 273 c 0,21,22
 408.545 277.455 408.545 277.455 390.207 277.455 c 0,23,24
 379.727 277.455 379.727 277.455 367 276 c 1,25,26
 303 284 303 284 292 318 c 0,27,28
 289.55 325.7 289.55 325.7 289.55 335.115 c 0,29,30
 289.55 352.6 289.55 352.6 298 376 c 1,31,32
 349.628 391.919 349.628 391.919 396.628 391.919 c 0,33,34
 458.872 391.919 458.872 391.919 513 364 c 1,35,36
 501.87 329.913 501.87 329.913 501.87 272.597 c 0,37,38
 501.87 247.522 501.87 247.522 504 218 c 0,39,40
 506.13 189.696 506.13 189.696 506.13 166.208 c 0,41,42
 506.13 112.522 506.13 112.522 495 84 c 0,43,44
 465 7 465 7 359 0 c 0,45,46
 341.603 -1.15979 341.603 -1.15979 325.217 -1.15979 c 0,47,48
 129.67 -1.15979 129.67 -1.15979 78 164 c 0,49,50
 61.9217 215.226 61.9217 215.226 61.9217 274.841 c 0,51,52
 61.9217 374.661 61.9217 374.661 107 498 c 0,53,54
 167 662 167 662 256 752 c 0,55,56
 319.488 816.194 319.488 816.194 368.546 816.194 c 0,57,58
 389.031 816.194 389.031 816.194 407 805 c 0,59,60
 457 773 457 773 473 654 c 1,0,-1
EndSplineSet
Validated: 1
EndChar

StartChar: H
Encoding: 72 72 43
Width: 634
GlyphClass: 2
Flags: MW
LayerCount: 2
Fore
SplineSet
557 800 m 1,0,1
 510 544 510 544 508 240 c 0,2,3
 507.978 235.778 507.978 235.778 507.978 231.625 c 0,4,5
 507.978 48.8889 507.978 48.8889 551 0 c 1,6,-1
 433 16 l 2,7,8
 425.857 16.5714 425.857 16.5714 418.388 16.5714 c 0,9,10
 399.714 16.5714 399.714 16.5714 379 13 c 1,11,12
 407 87 407 87 407 271 c 2,13,-1
 404 431 l 1,14,15
 343 400 343 400 293 400 c 128,-1,16
 243 400 243 400 204 431 c 1,17,18
 202.4 388.2 202.4 388.2 202.4 345.68 c 0,19,20
 202.4 175.6 202.4 175.6 228 10 c 1,21,22
 193 0.2 193 0.2 158 0.2 c 0,23,-1
 78 13 l 1,24,25
 112 69 112 69 112 268 c 0,26,27
 112 407 112 407 98 584 c 2,28,-1
 81 797 l 1,29,30
 104 812 104 812 133 812 c 0,31,32
 162 811 162 811 210 797 c 1,33,-1
 204 526 l 1,34,35
 247.389 505.833 247.389 505.833 295.259 505.833 c 0,36,37
 325.722 505.833 325.722 505.833 358 514 c 0,38,39
 396 524 396 524 404 526 c 1,40,41
 416.25 607.083 416.25 607.083 416.25 686.806 c 0,42,43
 416.25 743.75 416.25 743.75 410 800 c 1,44,45
 447 803 447 803 483.75 803 c 128,-1,46
 520.5 803 520.5 803 557 800 c 1,0,1
EndSplineSet
Validated: 1
EndChar

StartChar: I
Encoding: 73 73 44
Width: 352
GlyphClass: 2
Flags: MW
LayerCount: 2
Fore
SplineSet
35 805 m 1,0,1
 99.5938 810.281 99.5938 810.281 155.11 810.281 c 0,2,3
 236.25 810.281 236.25 810.281 298 799 c 1,4,5
 209.833 720.417 209.833 720.417 209.833 466.418 c 0,6,7
 209.833 455.375 209.833 455.375 210 444 c 0,8,9
 213 251 213 251 256 94 c 0,10,11
 276 21 276 21 295 10 c 1,12,13
 235.22 27.6098 235.22 27.6098 178.66 27.6098 c 0,14,15
 113.171 27.6098 113.171 27.6098 52 4 c 1,16,17
 95 67 95 67 102 303 c 0,18,19
 103.114 342.932 103.114 342.932 103.114 380.51 c 0,20,21
 103.114 579.136 103.114 579.136 72 712 c 0,22,23
 56 779 56 779 35 805 c 1,0,1
EndSplineSet
Validated: 1
EndChar

StartChar: J
Encoding: 74 74 45
Width: 694
GlyphClass: 2
Flags: MW
LayerCount: 2
Fore
SplineSet
463 771 m 1,0,1
 538.75 811.5 538.75 811.5 595.375 811.5 c 0,2,3
 614.25 811.5 614.25 811.5 631 807 c 1,4,5
 558 666 558 666 545 327 c 2,6,-1
 536 86 l 2,7,8
 530 -63 530 -63 441 -128 c 0,9,10
 377.842 -175.368 377.842 -175.368 296.609 -175.368 c 0,11,12
 154.622 -175.368 154.622 -175.368 84 -67 c 0,13,14
 40.3455 -0.181816 40.3455 -0.181816 40.3455 91.2417 c 0,15,16
 40.3455 102.436 40.3455 102.436 41 114 c 1,17,18
 116.892 132.27 116.892 132.27 153.324 132.27 c 128,-1,19
 189.757 132.27 189.757 132.27 207 129 c 1,20,21
 202.312 86.5 202.312 86.5 202.312 54.4492 c 0,22,23
 202.312 -16.0625 202.312 -16.0625 227.849 -38.9344 c 128,-1,24
 253.387 -61.8064 253.387 -61.8064 279.903 -61.8064 c 128,-1,25
 306.419 -61.8064 306.419 -61.8064 327 -54 c 0,26,27
 393 -29 393 -29 415.523 42.4545 c 128,-1,28
 438.045 113.909 438.045 113.909 438.045 124.046 c 128,-1,29
 438.045 134.182 438.045 134.182 438.273 135.674 c 128,-1,30
 438.5 137.167 438.5 137.167 438.5 163.333 c 128,-1,31
 438.5 189.5 438.5 189.5 429.467 336.555 c 128,-1,32
 420.435 483.609 420.435 483.609 420.435 578.718 c 0,33,34
 420.435 712.064 420.435 712.064 463 771 c 1,0,1
EndSplineSet
Validated: 1
EndChar

StartChar: K
Encoding: 75 75 46
Width: 568
GlyphClass: 2
Flags: MW
LayerCount: 2
Fore
SplineSet
182 338 m 1,0,-1
 195 142 l 2,1,2
 195.941 129.059 195.941 129.059 195.941 114.291 c 0,3,4
 195.941 66.2941 195.941 66.2941 186 -1 c 1,5,6
 170 1.5 170 1.5 144 1.5 c 128,-1,7
 118 1.5 118 1.5 82 -1 c 1,8,-1
 105 363 l 2,9,10
 109.412 432.412 109.412 432.412 109.412 499.142 c 0,11,12
 109.412 659.294 109.412 659.294 84 804 c 1,13,14
 110 813 110 813 136 813 c 0,15,-1
 188 804 l 1,16,17
 199.5 729.5 199.5 729.5 199.5 653.5 c 128,-1,18
 199.5 577.5 199.5 577.5 188 500 c 1,19,20
 279 573 279 573 306 643 c 2,21,-1
 358 780 l 1,22,-1
 366 798 l 1,23,24
 405.184 806.163 405.184 806.163 432.706 806.163 c 0,25,26
 472.612 806.163 472.612 806.163 488 789 c 1,27,28
 463 788 463 788 418 643 c 0,29,30
 382 528 382 528 335 480 c 0,31,32
 308 452 308 452 195 410 c 1,33,34
 338 338 338 338 384 173 c 1,35,-1
 482 65 l 2,36,37
 498 48 498 48 523 7 c 1,38,39
 489.353 14.1176 489.353 14.1176 453.612 14.1176 c 0,40,41
 434.118 14.1176 434.118 14.1176 414 12 c 1,42,43
 410 19 410 19 326 124 c 0,44,45
 302 155 302 155 220 292 c 0,46,47
 203 321 203 321 182 338 c 1,0,-1
EndSplineSet
Validated: 1
EndChar

StartChar: L
Encoding: 76 76 47
Width: 652
GlyphClass: 2
Flags: MW
LayerCount: 2
Fore
SplineSet
565 3 m 1,0,1
 576.458 16.2203 576.458 16.2203 576.458 37.597 c 0,2,3
 576.458 64.7288 576.458 64.7288 558 105 c 1,4,5
 485.437 134.803 485.437 134.803 406.157 134.803 c 0,6,7
 363.07 134.803 363.07 134.803 318 126 c 0,8,9
 297 122 297 122 207 106 c 1,10,-1
 225 196 l 2,11,12
 243 286 243 286 243 391.469 c 0,13,14
 243 567.25 243 567.25 193 786 c 1,15,16
 165.857 811 165.857 811 128 811 c 0,17,18
 112.857 811 112.857 811 96 807 c 0,19,20
 87 805 87 805 76 802 c 1,21,22
 114.76 617.729 114.76 617.729 114.76 406.811 c 0,23,24
 114.76 285.792 114.76 285.792 102 156 c 0,25,26
 94 75 94 75 80 0 c 1,27,-1
 351 31 l 2,28,29
 390.758 35.6613 390.758 35.6613 424.802 35.6613 c 0,30,31
 514.919 35.6613 514.919 35.6613 565 3 c 1,0,1
EndSplineSet
Validated: 9
EndChar

StartChar: M
Encoding: 77 77 48
Width: 682
GlyphClass: 2
Flags: MW
LayerCount: 2
Fore
SplineSet
345 441 m 1,0,1
 406 727 406 727 487 807 c 1,2,3
 540.2 819.033 540.2 819.033 570.136 819.033 c 0,4,5
 587.467 819.033 587.467 819.033 597 815 c 1,6,7
 597.091 808.636 597.091 808.636 597.091 800.504 c 0,8,9
 597.091 719.182 597.091 719.182 588 461 c 0,10,11
 585.545 386.273 585.545 386.273 585.545 320.917 c 0,12,13
 585.545 146.636 585.545 146.636 603 39 c 1,14,15
 567.643 6.85714 567.643 6.85714 538.312 6.85714 c 0,16,17
 512.893 6.85714 512.893 6.85714 492 31 c 1,18,19
 467.638 125.478 467.638 125.478 467.638 229.137 c 0,20,21
 467.638 299.928 467.638 299.928 479 375 c 0,22,23
 512 595 512 595 513 600 c 0,24,25
 515.5 612 515.5 612 515.5 628.5 c 128,-1,26
 515.5 645 515.5 645 513 666 c 1,27,28
 509 664 509 664 456 480 c 0,29,30
 411 325 411 325 351 265 c 0,31,32
 346 260 346 260 342 255 c 1,33,34
 294 305 294 305 237 488 c 2,35,-1
 195 623 l 1,36,37
 195 578 195 578 208 355 c 0,38,39
 212.447 278.368 212.447 278.368 212.447 215.43 c 0,40,41
 212.447 94.3947 212.447 94.3947 196 24 c 1,42,43
 156 9 156 9 128.5 9 c 128,-1,44
 101 9 101 9 86 24 c 1,45,46
 118.89 124.685 118.89 124.685 118.89 267.722 c 0,47,48
 118.89 337.781 118.89 337.781 111 418 c 2,49,-1
 83 705 l 2,50,51
 79 746 79 746 79 807 c 1,52,53
 105.5 819 105.5 819 133 819 c 128,-1,54
 160.5 819 160.5 819 189 807 c 1,55,56
 294 708 294 708 345 441 c 1,0,1
EndSplineSet
Validated: 1
EndChar

StartChar: N
Encoding: 78 78 49
Width: 634
GlyphClass: 2
Flags: MW
LayerCount: 2
Fore
SplineSet
391 15 m 1,0,1
 425.094 -5.75294 425.094 -5.75294 455.038 -5.75294 c 0,2,3
 485.694 -5.75294 485.694 -5.75294 512 16 c 1,4,5
 533.778 137.333 533.778 137.333 533.778 345.778 c 0,6,7
 533.778 405.333 533.778 405.333 532 472 c 0,8,9
 527.5 656.5 527.5 656.5 527.5 743.125 c 0,10,11
 527.5 772 527.5 772 528 790 c 1,12,13
 501.231 811.564 501.231 811.564 477.226 811.564 c 0,14,15
 468.949 811.564 468.949 811.564 461 809 c 0,16,17
 446 804 446 804 430 789 c 1,18,19
 428.875 770.25 428.875 770.25 428.875 727.594 c 0,20,21
 428.875 656.5 428.875 656.5 432 519 c 0,22,23
 433.385 456.923 433.385 456.923 433.385 405.976 c 0,24,25
 433.385 236.154 433.385 236.154 418 190 c 2,26,27
 417 173 417 173 410 168 c 1,28,29
 348 249 348 249 274 520 c 2,30,-1
 198 802 l 1,31,32
 198 804 198 804 196 806 c 1,33,-1
 124 814 l 2,34,35
 117.625 814.562 117.625 814.562 111.672 814.562 c 0,36,37
 85.875 814.562 85.875 814.562 68 804 c 1,38,39
 89.125 402.625 89.125 402.625 89.125 223.062 c 0,40,41
 89.125 181.625 89.125 181.625 88 152 c 0,42,43
 84 52 84 52 68 12 c 1,44,45
 94 5 94 5 121.75 5 c 128,-1,46
 149.5 5 149.5 5 179 12 c 1,47,48
 187.696 73.3043 187.696 73.3043 187.696 161.263 c 0,49,50
 187.696 275.609 187.696 275.609 173 435 c 0,51,52
 157 613 157 613 154 657 c 1,53,54
 248 191 248 191 391 15 c 1,0,1
EndSplineSet
Validated: 9
EndChar

StartChar: O
Encoding: 79 79 50
Width: 634
GlyphClass: 2
Flags: MW
LayerCount: 2
Fore
SplineSet
174 590 m 1,0,1
 166.652 556.652 166.652 556.652 166.652 511.803 c 0,2,3
 166.652 397.957 166.652 397.957 214 210 c 0,4,-1
 222 178 l 1,5,6
 266.625 110.625 266.625 110.625 329.625 110.625 c 0,7,8
 338.625 110.625 338.625 110.625 348 112 c 0,9,10
 392 120 392 120 430 160 c 1,11,12
 463.796 224.155 463.796 224.155 463.796 329.654 c 0,13,14
 463.796 408.33 463.796 408.33 445 510 c 0,15,16
 429 598 429 598 420 620 c 1,17,18
 383.281 659.062 383.281 659.062 326.421 659.062 c 0,19,20
 310.5 659.062 310.5 659.062 293 656 c 0,21,22
 224 644 224 644 174 590 c 1,0,1
146 716 m 1,23,24
 261.065 815.282 261.065 815.282 347.357 815.282 c 0,25,26
 430.551 815.282 430.551 815.282 487 723 c 0,27,28
 540 606 540 606 555 416 c 0,29,30
 559.129 363.543 559.129 363.543 559.129 318.458 c 0,31,32
 559.129 177.9 559.129 177.9 519 109 c 0,33,34
 511 96 511 96 503 87 c 0,35,36
 405.448 -4.2069 405.448 -4.2069 314.816 -4.2069 c 0,37,38
 291.172 -4.2069 291.172 -4.2069 268 2 c 0,39,40
 197 21 197 21 147 100 c 0,41,42
 68.4674 261.685 68.4674 261.685 68.4674 440.442 c 0,43,44
 68.4674 455.163 68.4674 455.163 69 470 c 0,45,46
 76 634 76 634 146 716 c 1,23,24
EndSplineSet
Validated: 1
EndChar

StartChar: P
Encoding: 80 80 51
Width: 574
GlyphClass: 2
Flags: MW
LayerCount: 2
Fore
SplineSet
214 736 m 1,0,1
 204.413 716.37 204.413 716.37 204.413 679.649 c 0,2,3
 204.413 635.935 204.413 635.935 218 568 c 0,4,5
 218 565 218 565 220 558 c 1,6,7
 293.237 525.746 293.237 525.746 340.122 525.746 c 0,8,9
 416.795 525.746 416.795 525.746 423 612 c 1,10,11
 396 718 396 718 252 735 c 0,12,13
 240 736.333 240 736.333 227.111 736.333 c 0,14,15
 220.667 736.333 220.667 736.333 214 736 c 1,0,1
66 789 m 1,16,17
 146.769 813.038 146.769 813.038 228.463 813.038 c 0,18,19
 231.731 813.038 231.731 813.038 235 813 c 0,20,21
 402 811 402 811 477 726 c 0,22,23
 522.762 674.333 522.762 674.333 522.762 622.122 c 0,24,25
 522.762 603.595 522.762 603.595 517 585 c 0,26,27
 483 473 483 473 426 450 c 0,28,29
 380.618 431.382 380.618 431.382 323.388 431.382 c 0,30,31
 282.255 431.382 282.255 431.382 235 441 c 1,32,33
 219.941 184.059 219.941 184.059 219.941 150.343 c 0,34,35
 219.941 148.235 219.941 148.235 220 147 c 0,36,37
 224 56 224 56 238 15 c 1,38,39
 213.192 6.34615 213.192 6.34615 179.398 6.34615 c 0,40,41
 154.615 6.34615 154.615 6.34615 125 11 c 0,42,43
 104 14 104 14 94 15 c 1,44,45
 122 65 122 65 124 158 c 0,46,47
 124.242 168.364 124.242 168.364 124.242 179.789 c 0,48,49
 124.242 356.879 124.242 356.879 66 789 c 1,16,17
EndSplineSet
Validated: 1
EndChar

StartChar: Q
Encoding: 81 81 52
Width: 786
GlyphClass: 2
Flags: MW
LayerCount: 2
Fore
SplineSet
550 192 m 1,0,1
 581.717 256.981 581.717 256.981 581.717 360.86 c 0,2,3
 581.717 391.264 581.717 391.264 579 425 c 0,4,5
 567 563 567 563 527 629 c 1,6,7
 461 690 461 690 368 693 c 0,8,9
 363.525 693.148 363.525 693.148 359.127 693.148 c 0,10,11
 274.098 693.148 274.098 693.148 218 638 c 1,12,13
 178 569 178 569 169 411 c 0,14,15
 167.5 382.167 167.5 382.167 167.5 356.806 c 0,16,17
 167.5 230 167.5 230 205 190 c 0,18,19
 279.266 114.969 279.266 114.969 365.841 114.969 c 0,20,21
 392.344 114.969 392.344 114.969 420 122 c 0,22,23
 462 133 462 133 498 155 c 1,24,25
 486 190 486 190 417 280 c 0,26,27
 407 293 407 293 401 301 c 1,28,29
 410 330 410 330 462 334 c 0,30,31
 466 334.333 466 334.333 469.778 334.333 c 0,32,33
 477.333 334.333 477.333 334.333 484 333 c 1,34,35
 510 286 510 286 550 192 c 1,0,1
596 99 m 1,36,37
 651 2 651 2 731 -18 c 1,38,-1
 696 -33 l 1,39,40
 684.733 -39.9333 684.733 -39.9333 684.733 -55.1289 c 0,41,42
 684.733 -57.4667 684.733 -57.4667 685 -60 c 1,43,44
 602 -54 602 -54 546 52 c 1,45,46
 475.964 3.10714 475.964 3.10714 390.213 3.10714 c 0,47,48
 346.179 3.10714 346.179 3.10714 298 16 c 0,49,50
 213 39 213 39 151 93 c 0,51,52
 85 155 85 155 71 322 c 0,53,54
 67.7869 361.016 67.7869 361.016 67.7869 398.031 c 0,55,56
 67.7869 522.295 67.7869 522.295 104 624 c 0,57,58
 125 681 125 681 154 715 c 0,59,60
 244.597 796.339 244.597 796.339 352.248 796.339 c 0,61,62
 407.387 796.339 407.387 796.339 467 775 c 0,63,64
 517 757 517 757 567 724 c 0,65,66
 650 663 650 663 675 511 c 0,67,68
 683.244 459 683.244 459 683.244 408.206 c 0,69,70
 683.244 298.805 683.244 298.805 645 195 c 0,71,72
 625 142 625 142 596 99 c 1,36,37
EndSplineSet
Validated: 1
EndChar

StartChar: R
Encoding: 82 82 53
Width: 574
GlyphClass: 2
Flags: MW
LayerCount: 2
Fore
SplineSet
180 714 m 1,0,1
 188 678 188 678 204 537 c 0,2,3
 205 528 205 528 205 519 c 1,4,5
 218 518 218 518 271 510 c 0,6,7
 295.231 506.154 295.231 506.154 313.101 506.154 c 0,8,9
 341.692 506.154 341.692 506.154 354 516 c 0,10,11
 392.215 546.347 392.215 546.347 392.215 588.696 c 0,12,13
 392.215 621.702 392.215 621.702 369 662 c 0,14,15
 349 697 349 697 321 723 c 0,16,17
 312.257 732.257 312.257 732.257 288.438 732.257 c 0,18,19
 265.943 732.257 265.943 732.257 230 724 c 0,20,21
 191 715 191 715 180 714 c 1,0,1
217.139 441.198 m 1,22,23
 339.508 402.984 339.508 402.984 450 182 c 0,24,25
 491 100 491 100 524 0 c 1,26,-1
 396 3 l 1,27,28
 320 300 320 300 222 330 c 0,29,30
 212 333 212 333 202 333 c 1,31,32
 198.632 254.684 198.632 254.684 198.632 186.828 c 0,33,34
 198.632 93.5263 198.632 93.5263 205 20 c 1,35,36
 171.061 1.43939 171.061 1.43939 136.278 1.43939 c 0,37,38
 105.47 1.43939 105.47 1.43939 74 16 c 1,39,40
 82.2581 229.677 82.2581 229.677 82.2581 381.553 c 0,41,42
 82.2581 523.935 82.2581 523.935 75 612 c 0,43,44
 66 726 66 726 45 801 c 1,45,46
 52 804 52 804 117 804 c 0,47,48
 167 804 167 804 192 810 c 0,49,50
 232.263 820.14 232.263 820.14 268.79 820.14 c 0,51,52
 354.737 820.14 354.737 820.14 420 764 c 0,53,54
 491 703 491 703 499 614 c 0,55,56
 499.853 604.293 499.853 604.293 499.853 595.019 c 0,57,58
 499.853 517.347 499.853 517.347 440 470 c 0,59,60
 389.971 431.088 389.971 431.088 309.422 431.088 c 0,61,62
 265.295 431.088 265.295 431.088 217.139 441.198 c 1,22,23
EndSplineSet
Validated: 1
EndChar

StartChar: S
Encoding: 83 83 54
Width: 532
GlyphClass: 2
Flags: MW
LayerCount: 2
Fore
SplineSet
200 400 m 1,0,1
 113 422 113 422 91 507 c 0,2,3
 84.2778 532.667 84.2778 532.667 84.2778 558.8 c 0,4,5
 84.2778 618.194 84.2778 618.194 119 680 c 0,6,7
 173 777 173 777 274 804 c 0,8,9
 305.955 812.205 305.955 812.205 339.774 812.205 c 0,10,11
 384.273 812.205 384.273 812.205 432 798 c 1,12,13
 439.113 772.935 439.113 772.935 439.113 753.951 c 0,14,15
 439.113 716.887 439.113 716.887 412 703 c 1,16,17
 370.216 714.802 370.216 714.802 335.96 714.802 c 0,18,19
 262.819 714.802 262.819 714.802 224 661 c 0,20,21
 195.686 622.255 195.686 622.255 195.686 575.737 c 0,22,23
 195.686 559.824 195.686 559.824 199 543 c 0,24,25
 210 488 210 488 246 479 c 0,26,27
 391 438 391 438 442 328 c 0,28,29
 463.253 281.54 463.253 281.54 463.253 234.836 c 0,30,31
 463.253 187.046 463.253 187.046 441 139 c 0,32,33
 398 46 398 46 295 13 c 0,34,35
 251.262 -0.786885 251.262 -0.786885 202.326 -0.786885 c 0,36,37
 148.328 -0.786885 148.328 -0.786885 88 16 c 1,38,39
 73.2308 39.3846 73.2308 39.3846 73.2308 60.8757 c 0,40,41
 73.2308 74.3077 73.2308 74.3077 79 87 c 0,42,43
 88.0909 105.182 88.0909 105.182 104.62 105.182 c 0,44,45
 106.273 105.182 106.273 105.182 108 105 c 1,46,47
 139.391 84.0725 139.391 84.0725 178.668 84.0725 c 0,48,49
 210.71 84.0725 210.71 84.0725 248 98 c 0,50,51
 320 125 320 125 349 183 c 0,52,53
 362.115 208.902 362.115 208.902 362.115 234.158 c 0,54,55
 362.115 285.934 362.115 285.934 307 335 c 0,56,57
 267 370 267 370 200 400 c 1,0,1
EndSplineSet
Validated: 1
EndChar

StartChar: T
Encoding: 84 84 55
Width: 619
GlyphClass: 2
Flags: MW
LayerCount: 2
Fore
SplineSet
240 672 m 1,0,1
 208.435 674.63 208.435 674.63 181.387 674.63 c 0,2,3
 95.3261 674.63 95.3261 674.63 55 648 c 0,4,-1
 49 644 l 1,5,6
 33.3196 656.062 33.3196 656.062 33.3196 678.793 c 0,7,8
 33.3196 712.598 33.3196 712.598 68 770 c 1,9,10
 268.976 809.024 268.976 809.024 364.3 809.024 c 0,11,12
 366.683 809.024 366.683 809.024 369 809 c 0,13,14
 481 807 481 807 562 767 c 1,15,16
 588.63 699.283 588.63 699.283 588.63 671.511 c 0,17,18
 588.63 662.783 588.63 662.783 586 658 c 0,19,20
 582 651 582 651 557 637 c 0,21,-1
 553 635 l 1,22,-1
 442 666 l 2,23,24
 409 673.562 409 673.562 382.145 673.562 c 0,25,26
 369.938 673.562 369.938 673.562 359 672 c 1,27,28
 358 655 358 655 333 434 c 0,29,30
 319.154 308 319.154 308 319.154 217.787 c 0,31,32
 319.154 112.538 319.154 112.538 338 56 c 0,33,34
 347 31 347 31 359 12 c 1,35,36
 323.571 0.571428 323.571 0.571428 297.286 0.571429 c 0,37,38
 277.571 0.571429 277.571 0.571429 263 7 c 0,39,40
 249 13 249 13 236 24 c 1,41,42
 208.635 72.0405 208.635 72.0405 208.635 218.816 c 0,43,44
 208.635 313.405 208.635 313.405 220 449 c 2,45,-1
 240 672 l 1,0,1
EndSplineSet
Validated: 33
EndChar

StartChar: U
Encoding: 85 85 56
Width: 901
GlyphClass: 2
Flags: MW
LayerCount: 2
Fore
SplineSet
236 746 m 1,0,1
 185.917 601.74 185.917 601.74 185.917 480.891 c 0,2,3
 185.917 379.746 185.917 379.746 221 295 c 0,4,5
 269 177 269 177 367 133 c 256,6,7
 411.917 112.833 411.917 112.833 454.943 112.833 c 0,8,9
 505.792 112.833 505.792 112.833 554 141 c 0,10,11
 661 203 661 203 690 370 c 0,12,13
 699 422.667 699 422.667 699 482 c 0,14,15
 699 600.667 699 600.667 663 746 c 1,16,17
 703.93 755.302 703.93 755.302 734.693 755.302 c 0,18,19
 770.07 755.302 770.07 755.302 792 743 c 1,20,21
 825.646 600.108 825.646 600.108 825.646 480.854 c 0,22,23
 825.646 313.015 825.646 313.015 759 192 c 0,24,25
 683 56 683 56 545 19 c 0,26,27
 499.916 6.88785 499.916 6.88785 455.964 6.88785 c 0,28,29
 369.28 6.88785 369.28 6.88785 287 54 c 0,30,31
 152 131 152 131 98 296 c 0,32,33
 69.0977 385.504 69.0977 385.504 69.0977 488.698 c 0,34,35
 69.0977 606.872 69.0977 606.872 107 743 c 1,36,37
 153.095 760.286 153.095 760.286 186.295 760.286 c 0,38,39
 216.476 760.286 216.476 760.286 236 746 c 1,0,1
EndSplineSet
Validated: 1
EndChar

StartChar: V
Encoding: 86 86 57
Width: 706
GlyphClass: 2
Flags: MW
LayerCount: 2
Fore
SplineSet
186 795 m 1,0,1
 201 734 201 734 217 548 c 0,2,3
 240 304 240 304 258 258 c 0,4,5
 298 154 298 154 313 147 c 1,6,7
 377 213 377 213 440 433 c 2,8,-1
 511 682 l 2,9,10
 525 732 525 732 549 786 c 1,11,12
 589.088 801.868 589.088 801.868 620.806 801.868 c 0,13,14
 665.044 801.868 665.044 801.868 693 771 c 1,15,16
 648 689 648 689 568 459 c 0,17,18
 493 244 493 244 433 129 c 0,19,20
 382 30 382 30 306 0 c 1,21,22
 206 64 206 64 144 296 c 0,23,24
 137 321 137 321 88 572 c 0,25,26
 64 694 64 694 43 758 c 1,27,28
 88.2381 797.683 88.2381 797.683 151.743 797.683 c 0,29,30
 168.254 797.683 168.254 797.683 186 795 c 1,0,1
EndSplineSet
Validated: 1
EndChar

StartChar: W
Encoding: 87 87 58
Width: 668
GlyphClass: 2
Flags: MW
LayerCount: 2
Fore
SplineSet
163 810 m 1,0,1
 166 778 166 778 176 537 c 0,2,3
 185 332 185 332 212 244 c 1,4,5
 275 345 275 345 310 558 c 1,6,7
 392 551 392 551 407 351 c 0,8,9
 412 280 412 280 440 228 c 1,10,11
 470 340 470 340 483 587 c 0,12,13
 493 782 493 782 496 814 c 1,14,15
 506.968 815.548 506.968 815.548 517.036 815.548 c 0,16,17
 585 815.548 585 815.548 612 745 c 1,18,19
 594 666 594 666 574 443 c 0,20,21
 560 302 560 302 510 94 c 0,22,23
 496 34 496 34 442 -7 c 1,24,25
 352 74 352 74 332 264 c 0,26,27
 330 283 330 283 328 303 c 1,28,-1
 280 148 l 2,29,30
 254 63 254 63 196 5 c 1,31,32
 124 89 124 89 102 338 c 2,33,-1
 72 682 l 2,34,35
 70 709 70 709 65 739 c 1,36,37
 97.6857 812.752 97.6857 812.752 144.419 812.752 c 0,38,39
 153.448 812.752 153.448 812.752 163 810 c 1,0,1
EndSplineSet
Validated: 1
EndChar

StartChar: X
Encoding: 88 88 59
Width: 683
GlyphClass: 2
Flags: MW
LayerCount: 2
Fore
SplineSet
350 400 m 1,0,1
 446 577 446 577 558 818 c 1,2,3
 580 766 580 766 600 753 c 0,4,5
 612 745 612 745 630 740 c 1,6,7
 516 475 516 475 406 301 c 1,8,9
 514 105 514 105 616 62 c 1,10,11
 560 36 560 36 547 -7 c 0,12,13
 545 -13 545 -13 545 -19 c 1,14,15
 445 32 445 32 342 208 c 1,16,17
 240 69 240 69 142 0 c 1,18,19
 101 4 101 4 88 37 c 2,20,-1
 71 77 l 1,21,22
 179 150 179 150 286 304 c 1,23,-1
 156 545 l 2,24,25
 113 625 113 625 66 681 c 1,26,27
 84 739 84 739 137 762 c 1,28,29
 196 694 196 694 296 503 c 0,30,31
 341 417 341 417 350 400 c 1,0,1
EndSplineSet
Validated: 1
EndChar

StartChar: Y
Encoding: 89 89 60
Width: 620
GlyphClass: 2
Flags: MW
LayerCount: 2
Fore
SplineSet
187 347 m 0,0,1
 176 368 176 368 129 525 c 0,2,3
 70 723 70 723 60 737 c 0,4,5
 47 755 47 755 32 765 c 1,6,7
 73 798 73 798 125 808 c 1,8,9
 161 784 161 784 211 622 c 2,10,-1
 256 476 l 2,11,12
 271 427 271 427 284 405 c 1,13,14
 306 442 306 442 333 536 c 0,15,16
 374 679 374 679 408 731 c 0,17,18
 447 792 447 792 502 801 c 0,19,20
 511.833 802.5 511.833 802.5 520.667 802.5 c 0,21,22
 564.833 802.5 564.833 802.5 584 765 c 0,23,24
 588 757 588 757 593 744 c 1,25,26
 530 708 530 708 411 438 c 0,27,28
 396 404 396 404 381 363 c 0,29,30
 352.753 284.6 352.753 284.6 352.753 178.95 c 0,31,32
 352.753 101.329 352.753 101.329 368 9 c 1,33,34
 369 7 369 7 369 4 c 1,35,-1
 206 0 l 1,36,37
 220.754 63.9344 220.754 63.9344 220.754 133.674 c 0,38,39
 220.754 205.738 220.754 205.738 205 284 c 0,40,41
 196 331 196 331 187 347 c 0,0,1
EndSplineSet
Validated: 1
EndChar

StartChar: Z
Encoding: 90 90 61
Width: 703
GlyphClass: 2
Flags: MW
LayerCount: 2
Fore
SplineSet
180.2 479.48 m 2,0,-1
 191.083 379.924 l 2,1,2
 191.083 379.167 191.083 379.167 191 379 c 1,3,4
 199.75 358.583 199.75 358.583 236.417 358.583 c 128,-1,5
 273.083 358.583 273.083 358.583 321 369 c 1,6,7
 196 177 196 177 79 105 c 1,8,9
 73 81 73 81 73 57.25 c 128,-1,10
 73 33.5 73 33.5 79 10 c 1,11,-1
 82 10 l 1,12,-1
 301 5 l 2,13,14
 315.302 4.67347 315.302 4.67347 332.577 4.67347 c 0,15,16
 506.898 4.67347 506.898 4.67347 607 46 c 1,17,-1
 617.001 63.998 l 2,18,19
 630.364 89.4545 630.364 89.4545 630.364 105.636 c 128,-1,20
 630.364 121.818 630.364 121.818 626 132 c 1,21,22
 515.711 92.6111 515.711 92.6111 377.198 92.6111 c 0,23,24
 306.25 92.6111 306.25 92.6111 225 102 c 1,25,26
 357.012 177 357.012 177 443 394 c 1,27,-1
 455.793 394.154 l 2,28,29
 458.524 394.187 458.524 394.187 461.203 394.187 c 0,30,31
 530.795 394.187 530.795 394.187 565 372 c 0,32,33
 568.706 369.618 568.706 369.618 571.991 369.618 c 0,34,35
 581.118 369.618 581.118 369.618 587 388 c 0,36,37
 602.613 438.387 602.613 438.387 602.613 452.951 c 128,-1,38
 602.613 467.516 602.613 467.516 599.307 472.758 c 128,-1,39
 596 478 596 478 574 485 c 1,40,-1
 494.5 496.25 l 1,41,42
 494.5 499 494.5 499 534.096 564.423 c 128,-1,43
 573.692 629.846 573.692 629.846 594 684 c 2,44,45
 604.125 702 604.125 702 604.125 729.375 c 128,-1,46
 604.125 756.75 604.125 756.75 576 798 c 1,47,48
 532.286 792.857 532.286 792.857 518.44 792.857 c 128,-1,49
 504.593 792.857 504.593 792.857 501 793 c 2,50,-1
 300 801 l 2,51,52
 291.633 801.333 291.633 801.333 282.204 801.333 c 0,53,54
 159.067 801.333 159.067 801.333 76 736 c 1,55,-1
 74.2647 713.495 l 2,56,57
 74.2647 666.382 74.2647 666.382 99 628 c 1,58,59
 135 664 135 664 181.75 686.5 c 128,-1,60
 228.5 709 228.5 709 312.25 709 c 2,61,-1
 433.25 705.5 l 2,62,63
 468 705.5 468 705.5 486 708 c 1,64,-1
 479 691 l 1,65,-1
 375 486 l 1,66,-1
 363 484 l 2,67,68
 329.61 478.435 329.61 478.435 286.957 478.435 c 128,-1,69
 244.304 478.435 244.304 478.435 198 498 c 0,70,71
 194.91 499.03 194.91 499.03 192.049 499.03 c 0,72,73
 180.2 499.03 180.2 499.03 180.2 479.48 c 2,0,-1
EndSplineSet
Validated: 41
EndChar

StartChar: bracketleft
Encoding: 91 91 62
Width: 441
GlyphClass: 2
Flags: MW
LayerCount: 2
Fore
SplineSet
84 777 m 1,0,1
 115.862 783.759 115.862 783.759 157.279 783.759 c 0,2,3
 201.655 783.759 201.655 783.759 257 776 c 0,4,5
 320 767 320 767 358.812 767 c 0,6,7
 371.75 767 371.75 767 382 768 c 1,8,9
 394.522 756 394.522 756 394.522 732.295 c 0,10,11
 394.522 710.565 394.522 710.565 384 679 c 0,12,13
 383 676 383 676 380 670 c 1,14,15
 368.211 667.421 368.211 667.421 350.856 667.421 c 0,16,17
 321.105 667.421 321.105 667.421 275 675 c 0,18,19
 247.857 679.762 247.857 679.762 226.61 679.762 c 0,20,21
 203.238 679.762 203.238 679.762 187 674 c 1,22,23
 170.047 592.372 170.047 592.372 170.047 501.282 c 0,24,25
 170.047 447.302 170.047 447.302 176 390 c 0,26,27
 192 234 192 234 192 201 c 0,28,29
 191 157 191 157 185 118 c 1,30,31
 197.6 121.6 197.6 121.6 226.4 121.6 c 0,32,33
 245.6 121.6 245.6 121.6 272 120 c 0,34,35
 283.25 119.438 283.25 119.438 293.762 119.438 c 0,36,37
 339.312 119.438 339.312 119.438 371 130 c 1,38,39
 387.831 101.481 387.831 101.481 387.831 76.677 c 0,40,41
 387.831 48.4286 387.831 48.4286 366 25 c 1,42,43
 346 21.5 346 21.5 311 21.5 c 128,-1,44
 276 21.5 276 21.5 226 25 c 0,45,46
 201.727 26.6364 201.727 26.6364 179.909 26.6364 c 0,47,48
 121.727 26.6364 121.727 26.6364 81 15 c 1,49,50
 91.8 89.4 91.8 89.4 91.8 205.2 c 0,51,52
 91.8 282.4 91.8 282.4 87 378 c 0,53,54
 78.9524 542.667 78.9524 542.667 78.9524 646.018 c 0,55,56
 78.9524 709.619 78.9524 709.619 82 750 c 0,57,58
 83 764 83 764 84 777 c 1,0,1
EndSplineSet
Validated: 1
EndChar

StartChar: backslash
Encoding: 92 92 63
Width: 412
GlyphClass: 2
Flags: MW
LayerCount: 2
Fore
SplineSet
352 88 m 0,0,1
 352.281 83.9688 352.281 83.9688 352.281 80.1572 c 0,2,3
 352.281 43.3125 352.281 43.3125 326 27 c 0,4,5
 315.161 20.6774 315.161 20.6774 304.323 20.6774 c 0,6,-1
 278 30 l 1,7,8
 199 355 199 355 124 528 c 0,9,10
 85 619 85 619 39 696 c 1,11,12
 38.7273 700.273 38.7273 700.273 38.7273 704.281 c 0,13,14
 38.7273 744.364 38.7273 744.364 66 758 c 0,15,16
 74.6956 762.348 74.6956 762.348 84.9036 762.348 c 0,17,18
 98.1739 762.348 98.1739 762.348 114 755 c 1,19,20
 303 468 303 468 352 88 c 0,0,1
EndSplineSet
Validated: 1
EndChar

StartChar: bracketright
Encoding: 93 93 64
Width: 396
GlyphClass: 2
Flags: MW
LayerCount: 2
Fore
SplineSet
332 774 m 1,0,1
 299.655 780.759 299.655 780.759 257.988 780.759 c 0,2,3
 213.345 780.759 213.345 780.759 158 773 c 0,4,5
 95 764 95 764 56.75 764 c 0,6,7
 44 764 44 764 34 765 c 1,8,9
 23.7436 754.231 23.7436 754.231 23.7436 733.468 c 0,10,11
 23.7436 713.744 23.7436 713.744 33 685 c 0,12,13
 34 682 34 682 38 674 c 1,14,15
 42.375 672.438 42.375 672.438 52.3164 672.438 c 0,16,17
 74.1875 672.438 74.1875 672.438 123 680 c 0,18,19
 152.545 684.545 152.545 684.545 176.926 684.545 c 0,20,21
 206.182 684.545 206.182 684.545 228 678 c 1,22,23
 243.721 600 243.721 600 243.721 509.935 c 0,24,25
 243.721 451.047 243.721 451.047 237 387 c 0,26,27
 221 233 221 233 221 196 c 0,28,29
 221 151 221 151 228 111 c 1,30,31
 205.846 115.923 205.846 115.923 171.574 115.923 c 0,32,33
 150.154 115.923 150.154 115.923 124 114 c 0,34,35
 115.2 113.4 115.2 113.4 106.72 113.4 c 0,36,37
 72.8 113.4 72.8 113.4 44 123 c 1,38,39
 29.5 96.5 29.5 96.5 29.5 72.5 c 128,-1,40
 29.5 48.5 29.5 48.5 44 27 c 0,41,42
 46 24 46 24 49 22 c 1,43,44
 69 18.5 69 18.5 104 18.5 c 128,-1,45
 139 18.5 139 18.5 189 22 c 0,46,47
 213.273 23.6364 213.273 23.6364 235.165 23.6364 c 0,48,49
 293.545 23.6364 293.545 23.6364 335 12 c 1,50,51
 323.355 88.6129 323.355 88.6129 323.355 208.426 c 0,52,53
 323.355 284.097 323.355 284.097 328 377 c 0,54,55
 336.909 545 336.909 545 336.909 648.612 c 0,56,57
 336.909 707.818 336.909 707.818 334 746 c 2,58,-1
 332 774 l 1,0,1
EndSplineSet
Validated: 9
EndChar

StartChar: asciicircum
Encoding: 94 94 65
Width: 483
GlyphClass: 2
Flags: MW
LayerCount: 2
Fore
SplineSet
27 639 m 1,0,1
 71 645 71 645 132 717 c 2,2,-1
 194 790 l 2,3,4
 200 797 200 797 207 804 c 1,5,-1
 291 708 l 2,6,7
 355 635 355 635 369 630 c 1,8,9
 380.605 605.684 380.605 605.684 380.605 578.62 c 0,10,11
 380.605 556.711 380.605 556.711 373 533 c 1,12,13
 318 538 318 538 266 613 c 2,14,-1
 204 702 l 1,15,16
 197 694 197 694 135 615 c 0,17,18
 84 551 84 551 47 533 c 1,19,20
 6.16667 549.917 6.16667 549.917 6.16667 583.167 c 0,21,22
 6.16667 606.917 6.16667 606.917 27 639 c 1,0,1
EndSplineSet
Validated: 1
EndChar

StartChar: underscore
Encoding: 95 95 66
Width: 397
GlyphClass: 2
Flags: MW
LayerCount: 2
Fore
SplineSet
-1 -85 m 1,0,1
 53 -102 53 -102 88 -103 c 0,2,3
 90.5263 -103.053 90.5263 -103.053 93.1385 -103.053 c 0,4,5
 140.158 -103.053 140.158 -103.053 215 -86 c 0,6,7
 254.941 -77.3529 254.941 -77.3529 292.509 -77.3529 c 0,8,9
 346.176 -77.3529 346.176 -77.3529 395 -95 c 1,10,-1
 396 -184 l 1,11,12
 346.05 -161.183 346.05 -161.183 292.677 -161.183 c 0,13,14
 259.5 -161.183 259.5 -161.183 225 -170 c 0,15,16
 152.375 -188.375 152.375 -188.375 88.9375 -188.375 c 0,17,18
 79.875 -188.375 79.875 -188.375 71 -188 c 0,19,20
 45 -187 45 -187 0 -174 c 1,21,-1
 -1 -85 l 1,0,1
EndSplineSet
Validated: 1
EndChar

StartChar: grave
Encoding: 96 96 67
Width: 363
GlyphClass: 2
Flags: MW
LayerCount: 2
Fore
SplineSet
92 793 m 0,0,1
 99.2 802.257 99.2 802.257 109.045 802.257 c 0,2,3
 118.343 802.257 118.343 802.257 130 794 c 2,4,-1
 181 750 l 2,5,6
 184 748 184 748 188 745 c 1,7,-1
 256 714 l 2,8,9
 281.2 700.2 281.2 700.2 281.2 681.36 c 0,10,11
 281.2 668.8 281.2 668.8 270 654 c 0,12,13
 252.698 631.651 252.698 631.651 225.52 631.651 c 0,14,15
 215 631.651 215 631.651 203 635 c 0,16,17
 152 649 152 649 111 703 c 0,18,19
 83.8615 739.831 83.8615 739.831 83.8615 766.641 c 0,20,21
 83.8615 781.323 83.8615 781.323 92 793 c 0,0,1
EndSplineSet
Validated: 1
EndChar

StartChar: a
Encoding: 97 97 68
Width: 504
GlyphClass: 2
Flags: MW
LayerCount: 2
Fore
SplineSet
194 70 m 0,0,1
 200.667 69.1111 200.667 69.1111 206.889 69.1111 c 0,2,3
 256.667 69.1111 256.667 69.1111 278 126 c 0,4,5
 289.636 156.545 289.636 156.545 289.636 189.207 c 0,6,7
 289.636 201.455 289.636 201.455 288 214 c 1,8,9
 260.955 241.841 260.955 241.841 227.582 241.841 c 0,10,11
 219 241.841 219 241.841 210 240 c 0,12,13
 186 235 186 235 160 212 c 1,14,15
 144.923 182.923 144.923 182.923 144.923 155.006 c 0,16,17
 144.923 131.077 144.923 131.077 156 108 c 0,18,19
 173 73 173 73 194 70 c 0,0,1
292 372 m 1,20,21
 275.919 437.09 275.919 437.09 216.444 437.09 c 0,22,23
 198.252 437.09 198.252 437.09 176 431 c 0,24,25
 143 422 143 422 100 400 c 1,26,27
 96.4231 399.654 96.4231 399.654 93.2589 399.654 c 0,28,29
 69 399.654 69 399.654 69 420 c 0,30,31
 69 437 69 437 85 469 c 1,32,33
 159.803 518.869 159.803 518.869 225.205 518.869 c 0,34,35
 262.098 518.869 262.098 518.869 296 503 c 0,36,37
 344 481 344 481 360 442 c 0,38,39
 379.758 391.194 379.758 391.194 379.758 332.739 c 0,40,41
 379.758 287.645 379.758 287.645 368 238 c 0,42,43
 365.75 227.5 365.75 227.5 365.75 215.594 c 0,44,45
 365.75 195.75 365.75 195.75 372 172 c 0,46,47
 396 100 396 100 425 68 c 0,48,49
 462 27 462 27 465 26 c 1,50,51
 450.942 -9.55769 450.942 -9.55769 426.969 -9.55769 c 0,52,53
 392.962 -9.55769 392.962 -9.55769 339 62 c 1,54,55
 323 35 323 35 237 6 c 0,56,57
 221 1 221 1 201 -1 c 0,58,59
 185 -2.33333 185 -2.33333 171.123 -2.33333 c 0,60,61
 122.556 -2.33333 122.556 -2.33333 100 14 c 0,62,63
 62.7907 40.0465 62.7907 40.0465 62.7907 105.898 c 0,64,65
 62.7907 110.837 62.7907 110.837 63 116 c 2,66,-1
 66 194 l 2,67,68
 68 251 68 251 124 289 c 0,69,70
 144 303 144 303 200 308 c 0,71,72
 249 313 249 313 272 336 c 0,73,74
 290 355 290 355 292 372 c 1,20,21
EndSplineSet
Validated: 1
EndChar

StartChar: b
Encoding: 98 98 69
Width: 570
GlyphClass: 2
Flags: MW
LayerCount: 2
Fore
SplineSet
197 426 m 1,0,-1
 188 234 l 2,1,2
 186.81 210.429 186.81 210.429 186.81 189.748 c 0,3,4
 186.81 123.571 186.81 123.571 199 87 c 1,5,6
 259 89 259 89 284 97 c 0,7,8
 296 101 296 101 308 106 c 0,9,10
 358 130 358 130 384 200 c 0,11,12
 398.629 239.314 398.629 239.314 398.629 273.404 c 0,13,14
 398.629 313.886 398.629 313.886 378 347 c 0,15,16
 356 382 356 382 318 397 c 0,17,18
 286 415 286 415 197 426 c 1,0,-1
101 802 m 1,19,20
 143 821.174 143 821.174 175.83 821.174 c 0,21,22
 178.957 821.174 178.957 821.174 182 821 c 0,23,24
 201 820 201 820 218 802 c 1,25,-1
 200 615 l 2,26,27
 198.222 598.111 198.222 598.111 198.222 578.457 c 0,28,29
 198.222 553.889 198.222 553.889 201 525 c 1,30,31
 216.919 526.581 216.919 526.581 232.252 526.581 c 0,32,33
 352.726 526.581 352.726 526.581 437 429 c 0,34,35
 500.636 356.273 500.636 356.273 500.636 258.752 c 0,36,37
 500.636 249 500.636 249 500 239 c 0,38,39
 492 125 492 125 406 58 c 0,40,41
 330.262 -1.01639 330.262 -1.01639 215.825 -1.01639 c 0,42,43
 213.918 -1.01639 213.918 -1.01639 212 -1 c 2,44,-1
 95 0 l 1,45,46
 81.7451 147.843 81.7451 147.843 81.7451 328.434 c 0,47,48
 81.7451 502.078 81.7451 502.078 94 706 c 0,49,50
 97 756 97 756 101 802 c 1,19,20
EndSplineSet
Validated: 1
EndChar

StartChar: c
Encoding: 99 99 70
Width: 458
GlyphClass: 2
Flags: MW
LayerCount: 2
Fore
SplineSet
367 486 m 1,0,1
 375.805 461.439 375.805 461.439 375.805 437.737 c 0,2,3
 375.805 410.293 375.805 410.293 364 384 c 1,4,5
 310.676 417.266 310.676 417.266 268.84 417.266 c 0,6,7
 225.158 417.266 225.158 417.266 194 381 c 0,8,9
 154 333 154 333 153 258 c 0,10,11
 152.981 256.241 152.981 256.241 152.981 254.498 c 0,12,13
 152.981 162.13 152.981 162.13 205 116 c 0,14,15
 236.424 87.8106 236.424 87.8106 278.953 87.8106 c 0,16,17
 328.455 87.8106 328.455 87.8106 393 126 c 1,18,19
 394.524 113.81 394.524 113.81 394.524 102.562 c 0,20,21
 394.524 54.7619 394.524 54.7619 367 24 c 1,22,23
 301.822 -1.12883 301.822 -1.12883 249.132 -1.12883 c 0,24,25
 167.626 -1.12883 167.626 -1.12883 116 59 c 0,26,27
 57.4857 126.657 57.4857 126.657 57.4857 239.454 c 0,28,29
 57.4857 250.029 57.4857 250.029 58 261 c 0,30,31
 64 383 64 383 129 459 c 0,32,33
 182.706 523.448 182.706 523.448 251.736 523.448 c 0,34,35
 285.531 523.448 285.531 523.448 323 508 c 0,36,37
 345 499 345 499 367 486 c 1,0,1
EndSplineSet
Validated: 1
EndChar

StartChar: d
Encoding: 100 100 71
Width: 549
GlyphClass: 2
Flags: MW
LayerCount: 2
Fore
SplineSet
324 392 m 1,0,1
 308.485 423.03 308.485 423.03 270.402 423.03 c 0,2,3
 266.69 423.03 266.69 423.03 243 422 c 1,4,5
 159 395 159 395 144 310 c 0,6,7
 142.148 299.259 142.148 299.259 142.148 287.97 c 0,8,9
 142.148 238.296 142.148 238.296 174.074 183.648 c 128,-1,10
 206 129 206 129 254 112 c 1,11,12
 266.75 111 266.75 111 290.5 111 c 128,-1,13
 314.25 111 314.25 111 331.125 116.5 c 128,-1,14
 348 122 348 122 352 123 c 1,15,16
 352.265 128.118 352.265 128.118 352.265 134.426 c 0,17,18
 352.265 199.618 352.265 199.618 324 392 c 1,0,1
337.462 607.083 m 2,19,-1
 329 807 l 1,20,21
 383.786 819.071 383.786 819.071 390.536 819.071 c 0,22,23
 406.203 819.071 406.203 819.071 432 805 c 1,24,25
 441 731 441 731 442.5 451 c 128,-1,26
 444 171 444 171 463.5 100 c 128,-1,27
 483 29 483 29 513 -19 c 1,28,29
 470.872 -42.1702 470.872 -42.1702 455.968 -42.1702 c 128,-1,30
 441.064 -42.1702 441.064 -42.1702 436 -38 c 1,31,-1
 428 -2 l 1,32,33
 418.948 19.1207 418.948 19.1207 392.741 19.1207 c 128,-1,34
 366.534 19.1207 366.534 19.1207 333.605 9.47584 c 128,-1,35
 300.676 -0.169014 300.676 -0.169014 268.646 -0.169014 c 0,36,37
 180.986 -0.169014 180.986 -0.169014 118 76 c 0,38,39
 51.4676 154.273 51.4676 154.273 51.4676 271.796 c 0,40,41
 51.4676 396.49 51.4676 396.49 120 464 c 0,42,43
 170.667 513.333 170.667 513.333 244.889 513.333 c 0,44,45
 282 513.333 282 513.333 325 501 c 1,46,47
 337.462 536.308 337.462 536.308 337.462 607.083 c 2,19,-1
EndSplineSet
Validated: 1
EndChar

StartChar: e
Encoding: 101 101 72
Width: 623
GlyphClass: 2
Flags: MW
LayerCount: 2
Fore
SplineSet
326.333 448.333 m 0,0,1
 372.454 448.333 372.454 448.333 430 393 c 0,2,3
 466.483 357.31 466.483 357.31 466.483 337.346 c 0,4,5
 466.483 321.463 466.483 321.463 440.696 319.504 c 128,-1,6
 414.909 317.545 414.909 317.545 387.537 317.545 c 0,7,8
 314.545 317.545 314.545 317.545 268 335 c 2,9,-1
 210 358 l 2,10,11
 194.662 363.577 194.662 363.577 194.662 374.458 c 128,-1,12
 194.662 385.338 194.662 385.338 215 403 c 0,13,14
 256 438 256 438 309 447 c 0,15,16
 318.333 448.333 318.333 448.333 326.333 448.333 c 0,0,1
548 272 m 1,17,18
 553.881 305.867 553.881 305.867 553.881 335.375 c 0,19,20
 553.881 451.371 553.881 451.371 463 500 c 0,21,22
 405.152 532.061 405.152 532.061 334.187 532.061 c 0,23,24
 238.091 532.061 238.091 532.061 175 490 c 0,25,26
 87 435 87 435 72 303 c 0,27,28
 69.8182 284.091 69.8182 284.091 69.8182 265.215 c 0,29,30
 69.8182 180.273 69.8182 180.273 114 96 c 0,31,32
 125 74 125 74 175 35.5431 c 128,-1,33
 225 -2.91379 225 -2.91379 310.331 -2.91379 c 0,34,35
 465.754 -2.91379 465.754 -2.91379 523 73 c 0,36,37
 542 98 542 98 546 157 c 0,38,39
 546.111 157.944 546.111 157.944 546.111 158.793 c 0,40,41
 546.111 166.323 546.111 166.323 537.733 166.323 c 128,-1,42
 529.355 166.323 529.355 166.323 514 160 c 2,43,-1
 382 102 l 2,44,45
 352 89.1429 352 89.1429 318.245 89.1429 c 0,46,47
 243.429 89.1429 243.429 89.1429 198 156 c 0,48,49
 169.735 195.206 169.735 195.206 169.735 244.388 c 0,50,51
 169.735 249.147 169.735 249.147 170 254 c 1,52,53
 176.906 263.031 176.906 263.031 199.344 263.031 c 128,-1,54
 221.781 263.031 221.781 263.031 298.891 247.516 c 0,55,56
 386.372 229.913 386.372 229.913 423.735 229.913 c 0,57,58
 507.826 229.913 507.826 229.913 548 272 c 1,17,18
EndSplineSet
Validated: 9
EndChar

StartChar: f
Encoding: 102 102 73
Width: 516
GlyphClass: 2
Flags: MW
LayerCount: 2
Fore
SplineSet
86 106 m 128,-1,1
 49 106 49 106 44 128 c 1,2,-1
 43 200 l 1,3,4
 53.4 203.2 53.4 203.2 62.52 203.2 c 0,5,6
 64.8 203.2 64.8 203.2 67 203 c 2,7,-1
 133 197 l 2,8,9
 134.592 196.918 134.592 196.918 136.142 196.918 c 0,10,11
 172.571 196.918 172.571 196.918 186 242 c 0,12,13
 196.316 275.895 196.316 275.895 196.316 310.332 c 0,14,15
 196.316 322.632 196.316 322.632 195 335 c 2,16,-1
 186 464 l 2,17,18
 184.469 486.75 184.469 486.75 184.469 508.782 c 0,19,20
 184.469 587.469 184.469 587.469 204 657 c 0,21,22
 246.225 807.93 246.225 807.93 427.273 807.93 c 0,23,24
 447.749 807.93 447.749 807.93 470 806 c 1,25,26
 291.867 714.5 291.867 714.5 291.867 427.812 c 0,27,28
 291.867 419.979 291.867 419.979 292 412 c 2,29,-1
 295 233 l 1,30,31
 320.714 222.714 320.714 222.714 339.816 222.714 c 0,32,33
 343 222.714 343 222.714 346 223 c 2,34,-1
 411 227 l 2,35,36
 411.508 227.017 411.508 227.017 412.019 227.017 c 0,37,38
 441.61 227.017 441.61 227.017 477 170 c 1,39,-1
 469 166 l 1,40,-1
 434 139 l 2,41,42
 410 121 410 121 371.5 121 c 128,-1,43
 333 121 333 121 290 130 c 1,44,-1
 292 22 l 9,45,-1
 297 -124 l 2,46,47
 297.038 -125.077 297.038 -125.077 297.038 -126.155 c 0,48,49
 297.038 -153.115 297.038 -153.115 273 -181 c 0,50,51
 248.784 -208.676 248.784 -208.676 218.584 -208.676 c 0,52,53
 213.865 -208.676 213.865 -208.676 209 -208 c 0,54,55
 184.788 -204.637 184.788 -204.637 171 -181 c 1,56,57
 170.506 -171.462 170.506 -171.462 170.506 -160.536 c 0,58,59
 170.506 -110.121 170.506 -110.121 181.02 -30.1568 c 0,60,61
 191.507 49.6049 191.507 49.6049 191.507 97.4894 c 0,62,63
 191.507 108.015 191.507 108.015 191 117 c 1,64,0
 123 106 123 106 86 106 c 128,-1,1
EndSplineSet
Validated: 33
EndChar

StartChar: g
Encoding: 103 103 74
Width: 547
GlyphClass: 2
Flags: MW
LayerCount: 2
Fore
SplineSet
370 376 m 1,0,1
 359.429 387.893 359.429 387.893 251 415 c 0,2,3
 245.722 415.66 245.722 415.66 240.709 415.66 c 0,4,5
 184.938 415.66 184.938 415.66 162 334 c 0,6,7
 151.382 298.235 151.382 298.235 151.382 264.838 c 128,-1,8
 151.382 231.441 151.382 231.441 158 201 c 0,9,10
 177 111 177 111 222 105 c 0,11,12
 226 105 226 105 238 106 c 0,13,14
 329 111 329 111 364 126 c 1,15,16
 371.364 157.091 371.364 157.091 371.364 214.546 c 128,-1,17
 371.364 272 371.364 272 371 296 c 2,18,-1
 370 376 l 1,0,1
128 459 m 0,19,20
 177.773 520.364 177.773 520.364 240.998 520.364 c 128,-1,21
 304.222 520.364 304.222 520.364 372 462 c 1,22,23
 378 487.5 378 487.5 378 513 c 128,-1,24
 378 538.5 378 538.5 372 564 c 1,25,26
 403.142 581.795 403.142 581.795 437.055 581.795 c 0,27,28
 456.091 581.795 456.091 581.795 476 576.188 c 1,29,30
 476 576 476 576 485 573 c 1,31,32
 472.538 539.769 472.538 539.769 472.538 449.503 c 2,33,-1
 479.765 172.021 l 2,34,35
 479.765 105.059 479.765 105.059 476 66 c 0,36,37
 455 -160 455 -160 301 -198 c 0,38,39
 272.12 -205.22 272.12 -205.22 227.09 -205.22 c 128,-1,40
 182.06 -205.22 182.06 -205.22 112 -186 c 1,41,42
 78.6383 -166.34 78.6383 -166.34 78.6383 -142.095 c 128,-1,43
 78.6383 -117.851 78.6383 -117.851 90.3192 -99.9255 c 128,-1,44
 102 -82 102 -82 110 -82 c 1,45,46
 182.638 -115.595 182.638 -115.595 242.663 -115.595 c 128,-1,47
 302.687 -115.595 302.687 -115.595 342 -67 c 0,48,49
 351 -54 351 -54 358.5 -17 c 128,-1,50
 366 20 366 20 370 33 c 1,51,52
 294.328 -1.07471 294.328 -1.07471 227.857 -1.07471 c 128,-1,53
 161.385 -1.07471 161.385 -1.07471 114 53 c 0,54,55
 58.0986 117.775 58.0986 117.775 58.0986 228.215 c 0,56,57
 58.0986 371.06 58.0986 371.06 128 459 c 0,19,20
EndSplineSet
Validated: 1
EndChar

StartChar: h
Encoding: 104 104 75
Width: 553
GlyphClass: 2
Flags: MW
LayerCount: 2
Fore
SplineSet
68 800 m 1,0,1
 83.8182 819.114 83.8182 819.114 117.012 819.114 c 0,2,3
 134.182 819.114 134.182 819.114 156 814 c 0,4,5
 173 810 173 810 186 801 c 1,6,7
 170.615 656.385 170.615 656.385 170.615 519.462 c 0,8,9
 170.615 478.385 170.615 478.385 172 438 c 1,10,11
 193 522 193 522 265 543 c 0,12,13
 286.25 549.25 286.25 549.25 307.012 549.25 c 0,14,15
 352.688 549.25 352.688 549.25 396 519 c 0,16,17
 462 472 462 472 471 363 c 0,18,19
 484.829 195.8 484.829 195.8 484.829 95.3722 c 0,20,21
 484.829 36.0286 484.829 36.0286 480 0 c 1,22,23
 443.388 -13.7959 443.388 -13.7959 419.445 -13.7959 c 0,24,25
 398.265 -13.7959 398.265 -13.7959 387 -3 c 0,26,27
 382 2 382 2 380 10 c 1,28,29
 385.143 59.2857 385.143 59.2857 385.143 115.551 c 0,30,31
 385.143 190.571 385.143 190.571 376 278 c 0,32,33
 372 314 372 314 368 330 c 0,34,35
 340.419 434.806 340.419 434.806 307.767 434.806 c 0,36,37
 304.903 434.806 304.903 434.806 302 434 c 0,38,39
 231 415 231 415 202 334 c 0,40,41
 190 304 190 304 170 235 c 1,42,43
 164.182 187.364 164.182 187.364 164.182 142.636 c 0,44,45
 164.182 64.3636 164.182 64.3636 182 -5 c 1,46,47
 149.059 10.3725 149.059 10.3725 113.103 10.3725 c 0,48,49
 83.5686 10.3725 83.5686 10.3725 52 0 c 1,50,51
 77.5208 137.083 77.5208 137.083 77.5208 411.873 c 0,52,53
 77.5208 513.938 77.5208 513.938 74 635 c 2,54,-1
 68 800 l 1,0,1
EndSplineSet
Validated: 1
EndChar

StartChar: i
Encoding: 105 105 76
Width: 303
GlyphClass: 2
Flags: MW
LayerCount: 2
Fore
SplineSet
90 620 m 0,0,1
 104.5 591.967 104.5 591.967 155.443 591.967 c 0,2,3
 157.2 591.967 157.2 591.967 159 592 c 0,4,5
 196 593 196 593 218 628 c 0,6,7
 226.963 642.667 226.963 642.667 226.963 656.503 c 0,8,9
 226.963 676.63 226.963 676.63 208 695 c 0,10,11
 189.76 718.04 189.76 718.04 154.931 718.04 c 0,12,13
 153.48 718.04 153.48 718.04 152 718 c 0,14,15
 119 717 119 717 95 682 c 0,16,17
 83.0811 665.541 83.0811 665.541 83.0811 647.793 c 0,18,19
 83.0811 634.27 83.0811 634.27 90 620 c 0,0,1
88 510 m 1,20,21
 128.5 522.5 128.5 522.5 159.5 522.5 c 128,-1,22
 190.5 522.5 190.5 522.5 212 510 c 1,23,24
 207 499 207 499 192 310 c 0,25,26
 188.08 260.44 188.08 260.44 188.08 217.701 c 4,27,28
 188.08 107.8 188.08 107.8 214 43 c 0,29,30
 224 15 224 15 242 0 c 1,31,-1
 64 6 l 1,32,-1
 42 8 l 1,33,34
 102.012 40.119 102.012 40.119 102.012 210.837 c 0,35,36
 102.012 242.095 102.012 242.095 100 278 c 2,37,-1
 88 495 l 2,38,39
 88 503 88 503 88 510 c 1,20,21
EndSplineSet
Validated: 524297
EndChar

StartChar: j
Encoding: 106 106 77
Width: 440
GlyphClass: 2
Flags: MW
LayerCount: 2
Fore
SplineSet
225 734 m 0,0,1
 232.045 736.273 232.045 736.273 239.091 736.273 c 1,2,-1
 287 710 l 1,3,4
 310.273 684.545 310.273 684.545 310.273 660.149 c 0,5,6
 310.273 651 310.273 651 307 642 c 0,7,8
 292 602 292 602 257 600 c 0,9,10
 253.828 599.862 253.828 599.862 250.75 599.862 c 0,11,12
 209.207 599.862 209.207 599.862 185 625 c 0,13,14
 173.364 637.364 173.364 637.364 173.364 664.537 c 0,15,16
 173.364 674.727 173.364 674.727 175 687 c 0,17,18
 179 719 179 719 225 734 c 0,0,1
96.7775 126.05 m 0,19,20
 147.803 126.05 147.803 126.05 151 109 c 1,21,-1
 151 104 l 2,22,23
 149.408 81.1316 149.408 81.1316 149.408 60.8189 c 0,24,25
 149.408 -59.2105 149.408 -59.2105 205 -90 c 0,26,27
 212.2 -94.05 212.2 -94.05 221.325 -94.05 c 128,-1,28
 230.45 -94.05 230.45 -94.05 242 -88 c 0,29,30
 268.884 -72.1861 268.884 -72.1861 268.884 -7.60627 c 0,31,32
 268.884 14.591 268.884 14.591 252.673 132.795 c 128,-1,33
 236.462 251 236.462 251 236.462 296.807 c 128,-1,34
 236.462 342.615 236.462 342.615 239.474 362.762 c 128,-1,35
 242.485 382.909 242.485 382.909 242.485 385.48 c 0,36,37
 242.485 404.121 242.485 404.121 217 405 c 2,38,-1
 138 409 l 2,39,40
 109.987 410.038 109.987 410.038 109.987 435.466 c 0,41,42
 109.987 490.145 109.987 490.145 184 501 c 2,43,-1
 263 513 l 1,44,-1
 325 525 l 2,45,46
 331 526.091 331 526.091 335.843 526.091 c 0,47,48
 356.114 526.091 356.114 526.091 356.114 506.978 c 0,49,50
 356.114 505.543 356.114 505.543 352.289 463.329 c 128,-1,51
 348.465 421.116 348.465 421.116 348.465 319.186 c 128,-1,52
 348.465 217.256 348.465 217.256 360.18 118.339 c 128,-1,53
 371.895 19.4211 371.895 19.4211 371.895 -11.4736 c 128,-1,54
 371.895 -42.3684 371.895 -42.3684 370 -55 c 0,55,56
 364 -99 364 -99 338 -141 c 0,57,58
 301.344 -200.057 301.344 -200.057 230.457 -200.057 c 128,-1,59
 159.571 -200.057 159.571 -200.057 110.644 -133.644 c 128,-1,60
 61.7179 -67.2308 61.7179 -67.2308 61.7179 46.2932 c 0,61,62
 61.7179 75.5897 61.7179 75.5897 65 108 c 0,63,64
 66.9 126.05 66.9 126.05 96.7775 126.05 c 0,19,20
EndSplineSet
Validated: 1
EndChar

StartChar: k
Encoding: 107 107 78
Width: 515
GlyphClass: 2
Flags: MW
LayerCount: 2
Fore
SplineSet
86 786 m 1,0,1
 93 816 93 816 116 820 c 0,2,3
 123.903 821.613 123.903 821.613 131.156 821.613 c 0,4,5
 168.871 821.613 168.871 821.613 189 778 c 1,6,7
 201.255 730 201.255 730 201.255 626.721 c 0,8,9
 201.255 527.745 201.255 527.745 190 378 c 0,10,11
 189 364 189 364 188 356 c 1,12,13
 235 383 235 383 262 424 c 0,14,15
 281 454 281 454 344 475 c 0,16,17
 359.844 480.281 359.844 480.281 376.513 480.281 c 0,18,19
 400.875 480.281 400.875 480.281 427 469 c 1,20,-1
 455 386 l 1,21,22
 433.216 394.284 433.216 394.284 410.867 394.284 c 0,23,24
 360.375 394.284 360.375 394.284 307 352 c 0,25,26
 254 310 254 310 245 302 c 0,27,28
 200 262 200 262 190 260 c 1,29,30
 206 237 206 237 306 208 c 0,31,32
 365 191 365 191 382 160 c 0,33,34
 400 129 400 129 410 16 c 1,35,36
 384 0.27907 384 0.27907 362.387 0.27907 c 0,37,38
 348.256 0.27907 348.256 0.27907 336 7 c 1,39,40
 336.667 15.4444 336.667 15.4444 336.667 23.3086 c 0,41,42
 336.667 86.2222 336.667 86.2222 294 112 c 1,43,44
 293 112 293 112 223 143 c 0,45,46
 200 153 200 153 183 163 c 1,47,48
 170.929 80.3571 170.929 80.3571 170.929 10.648 c 0,49,50
 170.929 5.28572 170.929 5.28572 171 0 c 1,51,-1
 94 -2 l 2,52,53
 74 -2 74 -2 58 8 c 1,54,55
 87.4545 323.818 87.4545 323.818 87.4545 643.653 c 0,56,57
 87.4545 714.727 87.4545 714.727 86 786 c 1,0,1
EndSplineSet
Validated: 1
EndChar

StartChar: l
Encoding: 108 108 79
Width: 362
GlyphClass: 2
Flags: HMW
LayerCount: 2
Fore
SplineSet
54 810.281 m 1,0,1
 75 825.826 75 825.826 117 825.826 c 128,-1,2
 159 825.826 159 825.826 212 806 c 1,3,4
 209 792 209 792 209 765.5 c 128,-1,5
 209 739 209 739 216.5 684.5 c 128,-1,6
 224 630 224 630 224 570 c 128,-1,7
 224 510 224 510 206.5 417.5 c 128,-1,8
 189 325 189 325 189 266 c 128,-1,9
 189 207 189 207 192.5 171.5 c 128,-1,10
 196 136 196 136 198 132 c 128,-1,11
 200 128 200 128 212 129 c 128,-1,12
 224 130 224 130 254 160 c 0,13,14
 257 163 257 163 269 167 c 128,-1,15
 281 171 281 171 294 171 c 0,16,17
 314 171 314 171 314 154 c 2,18,-1
 314 149 l 1,19,20
 315 141 315 141 315 121.5 c 128,-1,21
 315 102 315 102 303 72 c 0,22,23
 278 9 278 9 158 -8 c 0,24,25
 144 -10 144 -10 134.5 -10 c 128,-1,26
 125 -10 125 -10 123 -7 c 0,27,28
 100 30 100 30 98 32 c 0,29,30
 66 64 66 64 66 193 c 0,31,32
 66 253 66 253 76 366 c 128,-1,33
 86 479 86 479 98 623 c 17,34,35
 91 781.281 91 781.281 54 810.281 c 1,0,1
EndSplineSet
Validated: 524289
EndChar

StartChar: m
Encoding: 109 109 80
Width: 836
GlyphClass: 2
Flags: MW
LayerCount: 2
Fore
SplineSet
251.892 425.103 m 0,0,1
 347.883 425.103 347.883 425.103 347.883 185.628 c 0,2,3
 347.883 134.067 347.883 134.067 344 70 c 2,4,-1
 344 22 l 2,5,6
 344 -4.75936 344 -4.75936 406.329 -4.75936 c 128,-1,7
 468.657 -4.75936 468.657 -4.75936 468 24 c 2,8,-1
 464 199 l 2,9,10
 463.802 207.662 463.802 207.662 463.802 217.946 c 0,11,12
 463.802 396.333 463.802 396.333 537 422 c 0,13,14
 552.556 427.444 552.556 427.444 564.5 427.444 c 128,-1,15
 576.444 427.444 576.444 427.444 582 427 c 0,16,17
 653 422 653 422 659 267 c 0,18,19
 659.029 266.193 659.029 266.193 659.029 257.464 c 128,-1,20
 659.029 248.736 659.029 248.736 652.953 193.751 c 128,-1,21
 646.877 138.766 646.877 138.766 646.877 100.4 c 128,-1,22
 646.877 62.0335 646.877 62.0335 650 26 c 0,23,24
 652.08 2 652.08 2 708 1 c 0,25,26
 738 1 738 1 747 20 c 0,27,28
 750.667 27.334 750.667 27.334 750.667 134 c 128,-1,29
 750.667 240.667 750.667 240.667 750 256 c 0,30,31
 737 507 737 507 612 518 c 0,32,33
 601 519 601 519 590 519 c 0,34,35
 514 517 514 517 485 500 c 0,36,37
 437 474 437 474 404 375 c 1,38,39
 401 481 401 481 330 507 c 0,40,41
 293.5 520.5 293.5 520.5 263.75 520.5 c 128,-1,42
 234 520.5 234 520.5 207 504.25 c 128,-1,43
 180 488 180 488 166 457 c 1,44,45
 161 482 161 482 161 513 c 128,-1,46
 161 544 161 544 160 557 c 0,47,48
 159.167 573.667 159.167 573.667 136.806 573.667 c 0,49,50
 95.6334 573.667 95.6334 573.667 87 549 c 0,51,52
 86 546 86 546 82.2396 491.656 c 128,-1,53
 78.4792 437.312 78.4792 437.312 78.4792 301.479 c 128,-1,54
 78.4792 165.646 78.4792 165.646 98 29 c 0,55,56
 101 8 101 8 134 2 c 0,57,58
 143.52 0.04 143.52 0.04 150.923 0.04 c 0,59,60
 190 0.04 190 0.04 190 24 c 0,61,62
 189.667 57.667 189.667 57.667 184.569 121.451 c 128,-1,63
 179.471 185.234 179.471 185.234 179.471 222.539 c 128,-1,64
 179.471 259.845 179.471 259.845 184 292 c 0,65,66
 204 423 204 423 248 425 c 0,67,68
 249.966 425.103 249.966 425.103 251.892 425.103 c 0,0,1
EndSplineSet
Validated: 41
EndChar

StartChar: n
Encoding: 110 110 81
Width: 538
GlyphClass: 2
Flags: MW
LayerCount: 2
Fore
SplineSet
456 344 m 0,0,1
 461.4 258.8 461.4 258.8 461.4 152 c 0,2,3
 461.4 80.8 461.4 80.8 459 0 c 1,4,-1
 357 0 l 1,5,6
 373.133 120.633 373.133 120.633 373.133 206.177 c 0,7,8
 373.133 353.933 373.133 353.933 325 397 c 0,9,10
 313.683 407.256 313.683 407.256 299.614 407.256 c 0,11,12
 273.902 407.256 273.902 407.256 239 373 c 0,13,14
 202 337 202 337 176 283 c 1,15,-1
 169 -2 l 1,16,-1
 78 0 l 1,17,-1
 82 538 l 1,18,-1
 166 539 l 1,19,-1
 168 408 l 1,20,21
 223 503 223 503 295 515 c 0,22,23
 306.84 516.92 306.84 516.92 317.989 516.92 c 0,24,25
 376.52 516.92 376.52 516.92 416 464 c 0,26,27
 451 418 451 418 456 344 c 0,0,1
EndSplineSet
Validated: 1
EndChar

StartChar: o
Encoding: 111 111 82
Width: 440
GlyphClass: 2
Flags: MW
LayerCount: 2
Fore
SplineSet
179 370 m 1,0,1
 155.234 313.328 155.234 313.328 155.234 260.37 c 0,2,3
 155.234 226.422 155.234 226.422 165 194 c 0,4,5
 167 184 167 184 171 174 c 0,6,7
 183 138 183 138 215 136 c 0,8,9
 216.538 135.923 216.538 135.923 218.053 135.923 c 0,10,11
 255.923 135.923 255.923 135.923 279 184 c 0,12,13
 298.2 220.8 298.2 220.8 298.2 265.28 c 0,14,15
 298.2 276.4 298.2 276.4 297 288 c 0,16,17
 291 341 291 341 269 370 c 0,18,19
 245.103 400.414 245.103 400.414 223.304 400.414 c 0,20,21
 215 400.414 215 400.414 207 396 c 0,22,23
 193 389 193 389 179 370 c 1,0,1
125 439 m 1,24,25
 165 516 165 516 224 531 c 0,26,27
 236.607 534.247 236.607 534.247 248.484 534.247 c 0,28,29
 298.787 534.247 298.787 534.247 336 476 c 0,30,31
 378.667 395.467 378.667 395.467 378.667 304.978 c 0,32,33
 378.667 225.8 378.667 225.8 346 139 c 0,34,35
 332 103 332 103 313 68 c 0,36,37
 269.5 -2.08333 269.5 -2.08333 218.862 -2.08333 c 0,38,39
 206.639 -2.08333 206.639 -2.08333 194 2 c 0,40,41
 156 15 156 15 125 66 c 0,42,43
 61.3636 146 61.3636 146 61.3636 250.793 c 0,44,45
 61.3636 261.273 61.3636 261.273 62 272 c 0,46,47
 67 366 67 366 125 439 c 1,24,25
EndSplineSet
Validated: 1
EndChar

StartChar: p
Encoding: 112 112 83
Width: 623
GlyphClass: 2
Flags: MW
LayerCount: 2
Fore
SplineSet
326.115 107.362 m 0,0,1
 430.442 116.378 430.442 116.378 455 208 c 0,2,3
 464.31 241.751 464.31 241.751 464.31 251.633 c 128,-1,4
 464.31 261.516 464.31 261.516 463.655 265.258 c 2,5,-1
 456 309 l 2,6,7
 438.162 410.93 438.162 410.93 387 414 c 0,8,9
 379 415 379 415 370.5 415 c 128,-1,10
 362 415 362 415 353 414 c 1,11,12
 309 393 309 393 274 347 c 0,13,14
 244.743 311.07 244.743 311.07 244.743 260.273 c 0,15,16
 244.743 166.757 244.743 166.757 292 124 c 0,17,18
 310.388 107.362 310.388 107.362 326.115 107.362 c 0,0,1
96 -180 m 1,19,20
 151.841 -38.4502 151.841 -38.4502 151.841 129.271 c 0,21,22
 151.841 170.922 151.841 170.922 148.397 214.187 c 0,23,24
 135.521 375.958 135.521 375.958 107 494 c 0,25,26
 97.8592 531.832 97.8592 531.832 77.5 545 c 0,27,28
 69.8298 549.961 69.8298 549.961 52.5 567.5 c 1,29,30
 86.3858 611.645 86.3858 611.645 143.611 611.645 c 0,31,32
 169.414 611.645 169.414 611.645 190 594 c 1,33,34
 202.308 493.922 202.308 493.922 220 410 c 1,35,36
 263.948 495.455 263.948 495.455 372.183 519.675 c 0,37,38
 379.56 521.326 379.56 521.326 387.541 521.326 c 0,39,40
 422.858 521.326 422.858 521.326 470 489 c 0,41,42
 546 437 546 437 565 322 c 0,43,44
 570.405 290.108 570.405 290.108 570.405 260.042 c 0,45,46
 570.405 154.054 570.405 154.054 531 111 c 0,47,48
 436.08 10.7167 436.08 10.7167 332.398 -1.00877 c 0,49,50
 326.998 -1.61952 326.998 -1.61952 321.751 -1.61952 c 0,51,52
 271.236 -1.61952 271.236 -1.61952 235 55 c 1,53,54
 235.476 49.1239 235.476 49.1239 235.476 33.4249 c 128,-1,55
 235.476 17.7258 235.476 17.7258 231.138 -31.6871 c 128,-1,56
 226.8 -81.1 226.8 -81.1 218.9 -125.05 c 128,-1,57
 211 -169 211 -169 209 -182 c 1,58,59
 175.316 -199.965 175.316 -199.965 145.641 -199.965 c 128,-1,60
 115.965 -199.965 115.965 -199.965 96 -180 c 1,19,20
EndSplineSet
Validated: 1
EndChar

StartChar: q
Encoding: 113 113 84
Width: 549
GlyphClass: 2
Flags: MW
LayerCount: 2
Fore
SplineSet
349 362 m 0,0,1
 332 387 332 387 270 400 c 0,2,3
 265.1 400.98 265.1 400.98 260.004 400.98 c 0,4,5
 228.7 400.98 228.7 400.98 190 364 c 0,6,7
 149 316 149 316 144 250 c 0,8,9
 143.306 240.972 143.306 240.972 143.306 232.407 c 0,10,11
 143.306 179.306 143.306 179.306 170 144 c 1,12,13
 208.949 113.218 208.949 113.218 250.265 113.218 c 0,14,15
 274.718 113.218 274.718 113.218 300 124 c 2,16,-1
 352 148 l 1,17,18
 360 235 360 235 360 292 c 0,19,20
 360 345 360 345 349 362 c 0,0,1
360 440 m 1,21,22
 370.227 496.591 370.227 496.591 370.227 537.841 c 0,23,24
 370.227 557.091 370.227 557.091 368 573 c 1,25,26
 399.2 589.9 399.2 589.9 423.452 589.9 c 0,27,28
 455.167 589.9 455.167 589.9 475 561 c 0,29,30
 477 558 477 558 479 556 c 1,31,32
 451.728 444.593 451.728 444.593 451.728 262.818 c 0,33,34
 451.728 131.321 451.728 131.321 466 -37 c 0,35,36
 473 -119 473 -119 483 -189 c 1,37,38
 463.606 -204.515 463.606 -204.515 440.216 -204.515 c 0,39,40
 415.364 -204.515 415.364 -204.515 386 -187 c 0,41,42
 381 -184 381 -184 373 -178 c 1,43,44
 351.448 -138.345 351.448 -138.345 351.448 -57.8157 c 0,45,46
 351.448 -44.931 351.448 -44.931 352 -31 c 0,47,48
 354.25 23.75 354.25 23.75 354.25 50.375 c 0,49,50
 354.25 59.25 354.25 59.25 354 65 c 1,51,52
 268.084 18.7374 268.084 18.7374 205.17 18.7374 c 0,53,54
 144.33 18.7374 144.33 18.7374 105 62 c 0,55,56
 56.0395 115.776 56.0395 115.776 56.0395 208.85 c 0,57,58
 56.0395 231.737 56.0395 231.737 59 257 c 0,59,60
 73 376 73 376 138 456 c 0,61,62
 199.605 532.023 199.605 532.023 251.33 532.023 c 0,63,64
 278.531 532.023 278.531 532.023 303 511 c 0,65,66
 338 481 338 481 360 440 c 1,21,22
EndSplineSet
Validated: 1
EndChar

StartChar: r
Encoding: 114 114 85
Width: 475
GlyphClass: 2
Flags: MW
LayerCount: 2
Fore
SplineSet
197 387 m 1,0,1
 196.111 357.889 196.111 357.889 196.111 326.111 c 0,2,3
 196.111 214.889 196.111 214.889 207 71 c 0,4,5
 209 45 209 45 212 26 c 1,6,7
 186.1 6.44286 186.1 6.44286 161.876 6.44286 c 0,8,9
 140.271 6.44286 140.271 6.44286 120 22 c 1,10,11
 91.4792 207 91.4792 207 91.4792 378.334 c 0,12,13
 91.4792 429.271 91.4792 429.271 94 479 c 0,14,15
 95 498 95 498 97 515 c 1,16,17
 124.3 537.05 124.3 537.05 148.292 537.05 c 0,18,19
 170 537.05 170 537.05 189 519 c 1,20,21
 180 492 180 492 180 488 c 1,22,23
 181 485 181 485 183 475 c 1,24,25
 240.137 512.686 240.137 512.686 295.427 512.686 c 0,26,27
 331.098 512.686 331.098 512.686 366 497 c 0,28,29
 400 482 400 482 425 454 c 1,30,31
 418 386 418 386 359 354 c 1,32,33
 336.344 412.594 336.344 412.594 284.391 412.594 c 0,34,35
 269.844 412.594 269.844 412.594 253 408 c 0,36,37
 210 397 210 397 197 387 c 1,0,1
EndSplineSet
Validated: 1
EndChar

StartChar: s
Encoding: 115 115 86
Width: 461
GlyphClass: 2
Flags: MW
LayerCount: 2
Fore
SplineSet
213.08 299.673 m 2,0,-1
 256.889 301.92 l 2,1,2
 313.294 296.18 313.294 296.18 337.5 275 c 0,3,4
 377.5 240 377.5 240 382.155 203.369 c 128,-1,5
 386.81 166.738 386.81 166.738 386.81 155.011 c 0,6,7
 386.81 109.961 386.81 109.961 368 74 c 0,8,9
 322.699 -11.8333 322.699 -11.8333 215.75 -11.8333 c 0,10,11
 143.667 -11.8333 143.667 -11.8333 57 34 c 1,12,-1
 110 135 l 1,13,14
 121.948 109.534 121.948 109.534 149.182 91.3786 c 128,-1,15
 176.416 73.2229 176.416 73.2229 191.692 73.2229 c 0,16,17
 204.12 73.2229 204.12 73.2229 209.208 74.207 c 0,18,19
 268.189 84.9102 268.189 84.9102 290 123 c 0,20,21
 300.562 141.281 300.562 141.281 300.562 159.312 c 128,-1,22
 300.562 177.365 300.562 177.365 277.075 191.214 c 128,-1,23
 253.588 205.064 253.588 205.064 229.314 205.064 c 0,24,25
 227.659 205.064 227.659 205.064 226 205 c 2,26,-1
 197 205 l 1,27,28
 185 203 185 203 175 203 c 0,29,30
 111 203 111 203 83 276 c 0,31,32
 75 297 75 297 75 319 c 0,33,34
 75 362 75 362 105 408 c 0,35,36
 180 523 180 523 320 523 c 0,37,38
 351 522 351 522 386 514 c 1,39,-1
 382 395 l 1,40,41
 350.088 423.265 350.088 423.265 312.357 423.265 c 0,42,43
 253.296 423.265 253.296 423.265 213.325 396.252 c 128,-1,44
 173.354 369.239 173.354 369.239 173.354 345.305 c 0,45,46
 173.354 299.673 173.354 299.673 213.08 299.673 c 2,0,-1
EndSplineSet
Validated: 1
EndChar

StartChar: t
Encoding: 116 116 87
Width: 500
GlyphClass: 2
Flags: MW
LayerCount: 2
Fore
SplineSet
274 529 m 1,0,1
 295 537 295 537 359 537 c 0,2,3
 362 537 362 537 364 537 c 0,4,5
 416 537 416 537 427 517 c 0,6,7
 440.461 492.526 440.461 492.526 455 446 c 0,8,9
 457 439 457 439 457.577 433.5 c 0,10,11
 458.259 427 458.259 427 452 427 c 1,12,13
 450 428 450 428 447 429 c 0,14,15
 400.333 450.333 400.333 450.333 350.111 450.333 c 0,16,17
 325 450.333 325 450.333 299 445 c 0,18,19
 294 444 294 444 259 436 c 1,20,21
 254.68 374.08 254.68 374.08 254.68 323.91 c 0,22,23
 254.68 165.04 254.68 165.04 298 124 c 0,24,25
 302.387 119.871 302.387 119.871 307.507 119.871 c 0,26,27
 322.226 119.871 322.226 119.871 343 154 c 0,28,29
 371 196 371 196 373 199 c 0,30,31
 392.776 218.776 392.776 218.776 407.192 218.776 c 0,32,33
 426.308 218.776 426.308 218.776 436 184 c 0,34,35
 439.704 172.519 439.704 172.519 439.704 161.997 c 0,36,37
 439.704 144.111 439.704 144.111 429 129 c 2,38,39
 429 128 429 128 427 124 c 0,40,41
 349.823 -0.0692299 349.823 -0.0692299 283.144 -0.0692308 c 0,42,43
 281.569 -0.0692309 281.569 -0.0692309 280 0 c 0,44,45
 204 3 204 3 179 161 c 0,46,47
 167.44 233.08 167.44 233.08 167.44 331.979 c 0,48,49
 167.44 378.52 167.44 378.52 170 431 c 1,50,51
 166.585 430.862 166.585 430.862 163.24 430.862 c 0,52,53
 94.1077 430.862 94.1077 430.862 55 490 c 1,54,55
 52 497 52 497 48 503 c 0,56,57
 40.1569 515.157 40.1569 515.157 40.1569 529.928 c 0,58,59
 40.1569 552.824 40.1569 552.824 59 582 c 0,60,61
 73.0909 603.841 73.0909 603.841 80.7288 603.841 c 0,62,63
 83.9318 603.841 83.9318 603.841 86 600 c 0,64,65
 87 598 87 598 88 595 c 0,66,67
 101.537 528.219 101.537 528.219 156.607 528.219 c 0,68,69
 162.561 528.219 162.561 528.219 169 529 c 1,70,71
 169 644 169 644 202 806 c 0,72,73
 202.875 812.125 202.875 812.125 236.672 812.125 c 0,74,75
 241.5 812.125 241.5 812.125 247 812 c 0,76,77
 306 811 306 811 311 800 c 0,78,79
 313.04 795.92 313.04 795.92 312 792 c 0,80,81
 273.975 648.675 273.975 648.675 273.975 534.819 c 0,82,83
 273.975 531.9 273.975 531.9 274 529 c 1,0,1
EndSplineSet
Validated: 1
EndChar

StartChar: u
Encoding: 117 117 88
Width: 539
GlyphClass: 2
Flags: MW
LayerCount: 2
Fore
SplineSet
184 521 m 1,0,1
 166.716 430.148 166.716 430.148 166.716 356.776 c 0,2,3
 166.716 264.591 166.716 264.591 194 200 c 0,4,5
 227 123 227 123 260 117 c 0,6,7
 263.273 116.364 263.273 116.364 266.529 116.364 c 0,8,9
 299.091 116.364 299.091 116.364 330 180 c 0,10,11
 359.087 240.288 359.087 240.288 359.087 332.46 c 0,12,13
 359.087 414.577 359.087 414.577 336 522 c 1,14,-1
 458 515 l 1,15,16
 468.776 436.731 468.776 436.731 468.776 368.033 c 0,17,18
 468.776 194.478 468.776 194.478 400 82 c 0,19,20
 347 -5 347 -5 255 -5 c 0,21,22
 169 -4 169 -4 116 76 c 0,23,24
 55.6226 166.566 55.6226 166.566 55.6226 303.839 c 0,25,26
 55.6226 348.453 55.6226 348.453 62 398 c 0,27,28
 68 454 68 454 84 514 c 1,29,-1
 184 521 l 1,0,1
EndSplineSet
Validated: 1
EndChar

StartChar: v
Encoding: 118 118 89
Width: 594
GlyphClass: 2
Flags: MW
LayerCount: 2
Fore
SplineSet
152 543 m 1,0,1
 160 518 160 518 186 367 c 0,2,3
 214 196 214 196 260 145 c 0,4,5
 272 133 272 133 284 126 c 1,6,7
 339 206 339 206 360 294 c 0,8,9
 393 421 393 421 421 460 c 1,10,11
 433 489 433 489 444 509 c 1,12,13
 449.333 509.167 449.333 509.167 454.389 509.167 c 0,14,15
 510 509.167 510 509.167 532 489 c 0,16,17
 537 484 537 484 541 477 c 1,18,19
 513 430 513 430 460 282 c 0,20,21
 403 122 403 122 358 64 c 0,22,23
 315 9 315 9 263 -1 c 1,24,25
 182 26 182 26 131 182 c 0,26,27
 119 219 119 219 81 363 c 0,28,29
 64 428 64 428 49 464 c 1,30,31
 68 529 68 529 152 543 c 1,0,1
EndSplineSet
Validated: 1
EndChar

StartChar: w
Encoding: 119 119 90
Width: 746
GlyphClass: 2
Flags: MW
LayerCount: 2
Fore
SplineSet
169 0 m 1,0,1
 126 68 126 68 100 209 c 2,2,-1
 55 454 l 1,3,4
 64 492 64 492 89.5 506 c 128,-1,5
 115 520 115 520 142 526 c 1,6,7
 148 500 148 500 161 367 c 128,-1,8
 174 234 174 234 201 187 c 1,9,10
 215 194 215 194 238 240 c 0,11,12
 351.988 471.331 351.988 471.331 358.976 487.778 c 1,13,14
 358.976 462.071 358.976 462.071 418.988 342.536 c 128,-1,15
 479 223 479 223 509 185 c 1,16,17
 521 197 521 197 544 296 c 2,18,-1
 597 522 l 1,19,-1
 609 522 l 2,20,21
 688.106 522 688.106 522 688.106 435.449 c 0,22,23
 688.106 426.989 688.106 426.989 681 411 c 2,24,-1
 615 211 l 2,25,26
 559 42 559 42 488 -3 c 1,27,28
 467 25 467 25 445 64 c 0,29,30
 364 207 364 207 354 292 c 1,31,32
 289 65 289 65 169 0 c 1,0,1
EndSplineSet
Validated: 1
EndChar

StartChar: x
Encoding: 120 120 91
Width: 623
GlyphClass: 2
Flags: MW
LayerCount: 2
Fore
SplineSet
318 300 m 1,0,1
 321 310 321 310 408 472 c 0,2,3
 436 526 436 526 460 562 c 1,4,5
 461.6 562.067 461.6 562.067 463.172 562.067 c 0,6,7
 508.767 562.067 508.767 562.067 531 506 c 0,8,9
 533 501 533 501 536 489 c 1,10,11
 449 282 449 282 392 192 c 1,12,13
 474 98 474 98 578 51 c 1,14,15
 537 6 537 6 461 -3 c 1,16,17
 381 28 381 28 313 93 c 1,18,19
 249 21 249 21 184 -6 c 1,20,21
 181.75 -6.25 181.75 -6.25 179.336 -6.25 c 0,22,23
 143.125 -6.25 143.125 -6.25 70 50 c 0,24,25
 66 52 66 52 60 56 c 1,26,27
 156 96 156 96 234 188 c 1,28,29
 135 314 135 314 61 482 c 1,30,-1
 98 506 l 2,31,32
 133.862 529.31 133.862 529.31 168.117 529.31 c 0,33,34
 172.069 529.31 172.069 529.31 176 529 c 1,35,36
 258 415 258 415 284 354 c 0,37,38
 305 303 305 303 318 300 c 1,0,1
EndSplineSet
Validated: 1
EndChar

StartChar: y
Encoding: 121 121 92
Width: 562
GlyphClass: 2
Flags: MW
LayerCount: 2
Fore
SplineSet
395 528 m 1,0,1
 406.698 535.547 406.698 535.547 423.807 535.547 c 0,2,3
 452.038 535.547 452.038 535.547 495 515 c 1,4,5
 496 514 496 514 501 512 c 1,6,7
 379 68 379 68 260 -148 c 0,8,9
 245 -175 245 -175 231 -197 c 1,10,11
 224.333 -200.03 224.333 -200.03 212.341 -200.03 c 0,12,13
 184.758 -200.03 184.758 -200.03 129 -184 c 0,14,15
 122 -182 122 -182 116 -182 c 1,16,17
 193 -66 193 -66 221 33 c 1,18,19
 144 38 144 38 112 164 c 0,20,21
 101 207 101 207 85 355 c 0,22,23
 73 468 73 468 50 500 c 1,24,25
 101 519 101 519 105 520 c 0,26,27
 147.7 524.9 147.7 524.9 162.47 524.9 c 0,28,29
 168.8 524.9 168.8 524.9 170 524 c 1,30,31
 181 500 181 500 182 388 c 0,32,33
 182 246 182 246 220 169 c 0,34,35
 234.17 139.872 234.17 139.872 258.256 139.872 c 0,36,37
 264.766 139.872 264.766 139.872 272 142 c 1,38,39
 313 211 313 211 360 392 c 0,40,41
 390 511 390 511 395 528 c 1,0,1
EndSplineSet
Validated: 1
EndChar

StartChar: z
Encoding: 122 122 93
Width: 559
GlyphClass: 2
Flags: MW
LayerCount: 2
Fore
SplineSet
83 104 m 0,0,1
 223.051 204.967 223.051 204.967 380 428 c 1,2,3
 364.571 437.143 364.571 437.143 318.776 437.143 c 0,4,5
 284.429 437.143 284.429 437.143 233 432 c 0,6,7
 90 418 90 418 85 418 c 1,8,9
 66.3222 432.578 66.3222 432.578 66.3222 452.551 c 0,10,11
 66.3222 476.422 66.3222 476.422 93 508 c 1,12,13
 124 510 124 510 270 528 c 0,14,15
 332.736 535.735 332.736 535.735 381.47 535.735 c 0,16,17
 450.978 535.735 450.978 535.735 492 520 c 1,18,19
 497.557 499.925 497.557 499.925 497.557 481.81 c 0,20,21
 497.557 453.515 497.557 453.515 484 430.001 c 0,22,23
 342.737 187.104 342.737 187.104 208.777 90.9277 c 1,24,-1
 212 89.001 l 0,25,26
 236.014 74.0685 236.014 74.0685 273.968 74.0685 c 0,27,28
 344.746 74.0685 344.746 74.0685 464 126 c 1,29,-1
 448 84 l 2,30,31
 442.68 70.0361 442.68 70.0361 442.68 58.3912 c 0,32,33
 442.68 31.5228 442.68 31.5228 471 17 c 1,34,35
 410 -4 410 -4 339 -7 c 0,36,37
 330.25 -7.375 330.25 -7.375 320.047 -7.375 c 0,38,39
 248.625 -7.375 248.625 -7.375 106 11 c 1,40,41
 82 38 82 38 68 38 c 1,42,43
 56.9577 51.8028 56.9577 51.8028 56.9577 64.9835 c 0,44,45
 56.9577 85.2254 56.9577 85.2254 83 104 c 0,0,1
EndSplineSet
Validated: 1
EndChar

StartChar: braceleft
Encoding: 123 123 94
Width: 452
GlyphClass: 2
Flags: MW
LayerCount: 2
Fore
SplineSet
264 31 m 2,0,1
 177 35 177 35 170 87 c 0,2,3
 169.818 88.7273 169.818 88.7273 169.818 91 c 0,4,5
 169.818 113.727 169.818 113.727 188 191 c 0,6,7
 196.205 225.545 196.205 225.545 196.205 253.938 c 0,8,9
 196.205 291.295 196.205 291.295 182 318 c 0,10,11
 149 382 149 382 25 396 c 1,12,13
 159 413 159 413 180 492 c 0,14,15
 186.76 518.52 186.76 518.52 186.76 545.04 c 0,16,17
 186.76 569.52 186.76 569.52 181 594 c 0,18,19
 171.182 636 171.182 636 171.182 665.207 c 0,20,21
 171.182 689.545 171.182 689.545 178 705 c 0,22,23
 196 747 196 747 261 768 c 1,24,-1
 415 765 l 1,25,26
 292 750 292 750 282 669 c 0,27,28
 281.158 662.474 281.158 662.474 281.158 653.643 c 0,29,30
 281.158 620.526 281.158 620.526 293 555 c 0,31,32
 299.818 518.182 299.818 518.182 299.818 492.107 c 0,33,34
 299.818 460.818 299.818 460.818 290 445 c 0,35,36
 261 401 261 401 200 398 c 1,37,38
 278 379 278 379 291 305 c 0,39,40
 293.083 292.917 293.083 292.917 293.083 271.285 c 0,41,42
 293.083 241 293.083 241 289 192 c 256,43,44
 287.419 173.032 287.419 173.032 287.419 156.614 c 0,45,46
 287.419 100.323 287.419 100.323 306 74 c 0,47,48
 333 35 333 35 405 25 c 1,49,-1
 264 31 l 2,0,1
EndSplineSet
Validated: 1
EndChar

StartChar: bar
Encoding: 124 124 95
Width: 210
GlyphClass: 2
Flags: MW
LayerCount: 2
Fore
SplineSet
48 759 m 1,0,1
 52.5091 776.473 52.5091 776.473 79.2562 776.473 c 0,2,3
 99.9636 776.473 99.9636 776.473 134 766 c 0,4,5
 159 758 159 758 162 757 c 1,6,7
 167.121 713.273 167.121 713.273 167.121 653.251 c 0,8,9
 167.121 560.909 167.121 560.909 155 430 c 0,10,11
 140.56 278.76 140.56 278.76 140.56 196.254 c 0,12,13
 140.56 170.2 140.56 170.2 142 151 c 0,14,15
 147 80 147 80 165 17 c 1,16,17
 153 8.5 153 8.5 132 8.5 c 128,-1,18
 111 8.5 111 8.5 81 17 c 0,19,20
 67 21 67 21 61 22 c 1,21,22
 42.7174 88.8261 42.7174 88.8261 42.7174 183.871 c 0,23,24
 42.7174 239.587 42.7174 239.587 49 305 c 0,25,26
 66 492 66 492 67 523 c 0,27,28
 67.8621 545.241 67.8621 545.241 67.8621 566.829 c 0,29,30
 67.8621 670.448 67.8621 670.448 48 759 c 1,0,1
EndSplineSet
Validated: 1
EndChar

StartChar: braceright
Encoding: 125 125 96
Width: 440
GlyphClass: 2
Flags: MW
LayerCount: 2
Fore
SplineSet
171 34 m 2,0,1
 32 32 l 1,2,3
 104 42 104 42 132 82 c 0,4,5
 150 107.5 150 107.5 150 161.125 c 0,6,7
 150 179 150 179 148 200 c 0,8,9
 144.4 250.4 144.4 250.4 144.4 280.64 c 0,10,11
 144.4 300.8 144.4 300.8 146 312 c 0,12,13
 158 378 158 378 215 398 c 1,14,15
 184 408 184 408 148 452 c 0,16,17
 137.382 467.088 137.382 467.088 137.382 499.664 c 0,18,19
 137.382 525.382 137.382 525.382 144 562 c 0,20,21
 156.8 629.2 156.8 629.2 156.8 661.84 c 0,22,23
 156.8 670 156.8 670 156 676 c 0,24,25
 145 757 145 757 22 772 c 1,26,-1
 174 771 l 1,27,28
 239 750 239 750 257 708 c 0,29,30
 263.818 692.545 263.818 692.545 263.818 668.207 c 0,31,32
 263.818 639 263.818 639 254 597 c 0,33,34
 241.958 543.875 241.958 543.875 241.958 512.826 c 0,35,36
 241.958 500.042 241.958 500.042 244 491 c 0,37,38
 260 416 260 416 410 399 c 1,39,40
 274 393 274 393 243 329 c 0,41,42
 233.909 309.909 233.909 309.909 233.909 280.281 c 0,43,44
 233.909 244.727 233.909 244.727 247 194 c 0,45,46
 265.375 124 265.375 124 265.375 96.875 c 0,47,48
 265.375 93 265.375 93 265 90 c 0,49,50
 258 35 258 35 171 34 c 2,0,1
EndSplineSet
Validated: 1
EndChar

StartChar: asciitilde
Encoding: 126 126 97
Width: 552
GlyphClass: 2
Flags: MW
LayerCount: 2
Fore
SplineSet
76 414 m 0,0,1
 132.986 513.725 132.986 513.725 180.14 513.725 c 0,2,3
 189.254 513.725 189.254 513.725 198 510 c 0,4,5
 224 500 224 500 269 442 c 256,6,7
 314 384 314 384 338 371 c 0,8,9
 352.045 363.197 352.045 363.197 366.487 363.197 c 0,10,11
 416.828 363.197 416.828 363.197 472 458 c 0,12,13
 477.601 468.082 477.601 468.082 482.96 468.082 c 0,14,15
 494 468.082 494 468.082 494 423 c 0,16,17
 494 328 494 328 468 292 c 0,18,19
 411.429 214.214 411.429 214.214 365.969 214.214 c 0,20,21
 353.571 214.214 353.571 214.214 342 220 c 0,22,23
 316 233 316 233 271 290 c 128,-1,24
 226 347 226 347 202 358 c 0,25,26
 192.039 362.39 192.039 362.39 181.907 362.39 c 0,27,28
 132.026 362.39 132.026 362.39 78 256 c 0,29,30
 72.3939 245.909 72.3939 245.909 68.1054 245.909 c 0,31,32
 54.875 245.909 54.875 245.909 54.875 312.079 c 128,-1,33
 54.875 378.25 54.875 378.25 76 414 c 0,0,1
EndSplineSet
Validated: 1
EndChar

StartChar: exclamdown
Encoding: 161 161 98
Width: 374
GlyphClass: 2
Flags: MW
LayerCount: 2
Fore
SplineSet
207 693 m 0,0,1
 191.25 684.9 191.25 684.9 174.69 684.9 c 0,2,3
 154.45 684.9 154.45 684.9 133 697 c 0,4,5
 101 715 101 715 101 745 c 0,6,7
 102 783 102 783 145 804 c 0,8,9
 166.532 814.298 166.532 814.298 185.435 814.298 c 0,10,11
 206.915 814.298 206.915 814.298 225 801 c 0,12,13
 245.024 785.81 245.024 785.81 245.024 761.084 c 0,14,15
 245.024 750 245.024 750 241 737 c 0,16,17
 232 706 232 706 207 693 c 0,0,1
125 45 m 1,18,19
 117.242 125.97 117.242 125.97 117.242 216.578 c 0,20,21
 117.242 312.849 117.242 312.849 126 420 c 0,22,23
 135 533 135 533 137 555 c 1,24,25
 155.241 573.241 155.241 573.241 167.822 573.241 c 0,26,27
 171.103 573.241 171.103 573.241 174 572 c 0,28,29
 181 570 181 570 191 561 c 1,30,31
 238.253 335.316 238.253 335.316 238.253 165.34 c 0,32,33
 238.253 94.3053 238.253 94.3053 230 33 c 1,34,35
 204.8 -1.3 204.8 -1.3 179.11 -1.3 c 0,36,37
 168.1 -1.3 168.1 -1.3 157 5 c 0,38,39
 137 15 137 15 125 45 c 1,18,19
EndSplineSet
Validated: 1
EndChar

StartChar: cent
Encoding: 162 162 99
Width: 595
GlyphClass: 2
Flags: MW
LayerCount: 2
Fore
SplineSet
362 502 m 1,0,1
 424 493 424 493 492 459 c 1,2,3
 523.373 431.549 523.373 431.549 523.373 409.019 c 0,4,5
 523.373 402.824 523.373 402.824 521 397 c 0,6,-1
 519 393 l 1,7,8
 433.146 432.024 433.146 432.024 358.714 432.024 c 0,9,10
 356.854 432.024 356.854 432.024 355 432 c 1,11,12
 353.559 408.324 353.559 408.324 353.559 379.221 c 0,13,14
 353.559 266.971 353.559 266.971 375 74 c 1,15,16
 427 88 427 88 486 120 c 1,17,18
 500.696 108.13 500.696 108.13 500.696 88.5936 c 0,19,20
 500.696 73.5652 500.696 73.5652 492 54 c 1,21,22
 434 28 434 28 381 16 c 1,23,24
 387 -43 387 -43 390 -84 c 1,25,26
 371.868 -102.132 371.868 -102.132 351.341 -102.132 c 0,27,28
 336.774 -102.132 336.774 -102.132 321 -93 c 1,29,30
 321.333 -77.3333 321.333 -77.3333 321.333 -61.2222 c 0,31,32
 321.333 -29 321.333 -29 320 5 c 1,33,34
 299.39 2.83051 299.39 2.83051 280.342 2.83051 c 0,35,36
 158.915 2.83051 158.915 2.83051 101 91 c 0,37,38
 62.7089 147.392 62.7089 147.392 62.7089 219.295 c 0,39,40
 62.7089 250.671 62.7089 250.671 70 285 c 0,41,42
 93 397 93 397 178 458 c 0,43,44
 224 492 224 492 282 501 c 1,45,46
 285 589 285 589 311 654 c 1,47,48
 332.955 666.023 332.955 666.023 350.264 666.023 c 0,49,50
 366.068 666.023 366.068 666.023 378 656 c 0,51,52
 387 649 387 649 396 636 c 1,53,54
 372 576 372 576 362 502 c 1,0,1
282 419 m 1,55,56
 196 389 196 389 160 302 c 0,57,58
 143 260.5 143 260.5 143 221.75 c 128,-1,59
 143 183 143 183 160 147 c 0,60,61
 197 67 197 67 294 64 c 0,62,-1
 316 64 l 1,63,-1
 284 397 l 2,64,65
 283 409 283 409 282 419 c 1,55,56
EndSplineSet
Validated: 1
EndChar

StartChar: sterling
Encoding: 163 163 100
Width: 520
GlyphClass: 2
Flags: MW
LayerCount: 2
Fore
SplineSet
259.062 278.227 m 1,0,1
 262.596 267.738 262.596 267.738 262.596 256.051 c 0,2,3
 262.596 210.955 262.596 210.955 210 148 c 2,4,-1
 144 69 l 1,5,-1
 333 60 l 2,6,7
 341.818 59.5801 341.818 59.5801 350.593 59.5801 c 0,8,9
 408.717 59.5801 408.717 59.5801 465 78 c 1,10,11
 467.273 63.9091 467.273 63.9091 467.273 53.7438 c 0,12,13
 467.273 41.5455 467.273 41.5455 464 35 c 0,14,15
 457 21 457 21 438 3 c 1,16,17
 394.783 0.869565 394.783 0.869565 340.913 0.869565 c 0,18,19
 217.783 0.869565 217.783 0.869565 39 12 c 1,20,-1
 116 112 l 2,21,22
 174.828 188.4 174.828 188.4 174.828 249.202 c 0,23,24
 174.828 259.461 174.828 259.461 173.153 269.276 c 1,25,26
 169.805 269.235 169.805 269.235 166.422 269.235 c 0,27,28
 130.243 269.235 130.243 269.235 90 274 c 0,29,30
 66 277 66 277 30 282 c 1,31,-1
 66 351 l 1,32,-1
 129.112 344.554 l 1,33,34
 45.9681 463.764 45.9681 463.764 45.9681 574.594 c 0,35,36
 45.9681 599 45.9681 599 50 623 c 0,37,38
 67 722 67 722 144 771 c 0,39,40
 187.429 798.429 187.429 798.429 232.163 798.429 c 0,41,42
 265.714 798.429 265.714 798.429 300 783 c 0,43,44
 402 738 402 738 444 579 c 1,45,-1
 390 549 l 1,46,47
 313 674 313 674 229 683 c 0,48,49
 222.323 683.754 222.323 683.754 215.994 683.754 c 0,50,51
 163.554 683.754 163.554 683.754 135 632 c 0,52,53
 114.767 595.327 114.767 595.327 114.767 551.278 c 0,54,55
 114.767 509.462 114.767 509.462 133 461 c 0,56,57
 157.312 397.631 157.312 397.631 209.007 338.799 c 1,58,59
 301.679 339.761 301.679 339.761 372 381 c 1,60,-1
 336 306 l 1,61,62
 300.815 287.418 300.815 287.418 259.062 278.227 c 1,0,1
EndSplineSet
Validated: 1
EndChar

StartChar: currency
Encoding: 164 164 101
Width: 760
GlyphClass: 2
Flags: MW
LayerCount: 2
Fore
SplineSet
333 534 m 0,0,1
 266 532 266 532 226 462 c 0,2,3
 197.983 414.85 197.983 414.85 197.983 366.299 c 0,4,5
 197.983 343.8 197.983 343.8 204 321 c 128,-1,6
 210 298 210 298 222 279 c 0,7,8
 258 225 258 225 333 221 c 0,9,10
 337.44 220.82 337.44 220.82 341.768 220.82 c 0,11,12
 409.58 220.82 409.58 220.82 450 265 c 0,13,14
 457 273 457 273 462 282 c 0,15,16
 482.433 315.687 482.433 315.687 482.433 355.777 c 0,17,18
 482.433 388.284 482.433 388.284 469 425 c 0,19,20
 442 497 442 497 383 524 c 0,21,22
 361 534.083 361 534.083 337.319 534.083 c 0,23,24
 335.167 534.083 335.167 534.083 333 534 c 0,0,1
106.091 342.645 m 0,25,26
 106.091 417.182 106.091 417.182 141 487 c 1,27,28
 72 535 72 535 54.5 559 c 128,-1,29
 37 583 37 583 36 606 c 1,30,31
 65 656 65 656 77.5714 665.524 c 128,-1,32
 90.1429 675.048 90.1429 675.048 99.7619 675.048 c 128,-1,33
 109.381 675.048 109.381 675.048 117 672 c 1,34,35
 122.002 626.58 122.002 626.58 170.876 581.161 c 1,36,37
 171.032 581.161 171.032 581.161 192 561 c 1,38,39
 258.952 633.266 258.952 633.266 346.467 633.266 c 0,40,41
 446.121 631.657 446.121 631.657 517 541 c 1,42,43
 580 572 580 572 599.5 595.5 c 128,-1,44
 619 619 619 619 627 645 c 1,45,46
 668 643 668 643 670 615 c 2,47,-1
 672 579 l 1,48,49
 673 576 673 576 675 573 c 1,50,51
 651 515 651 515 590 485 c 2,52,-1
 559 472 l 1,53,54
 586.106 409.882 586.106 409.882 586.106 352.229 c 0,55,56
 586.106 241.423 586.106 241.423 503 178 c 1,57,58
 539 110 539 110 588 69 c 1,59,60
 573 33 573 33 558.6 25.3 c 128,-1,61
 544.2 17.6 544.2 17.6 532.6 17.6 c 128,-1,62
 521 17.6 521 17.6 516 18 c 1,63,64
 459 62 459 62 435 141 c 1,65,66
 383.808 122.247 383.808 122.247 335.082 122.247 c 128,-1,67
 286.356 122.247 286.356 122.247 240 140 c 0,68,69
 237 141 237 141 234 143 c 1,70,71
 173 87 173 87 161.5 62.5 c 128,-1,72
 150 38 150 38 147 21 c 1,73,74
 142.929 20.0357 142.929 20.0357 139.075 20.0357 c 0,75,76
 106.964 20.0357 106.964 20.0357 90 87 c 1,77,78
 105 128 105 128 166 178 c 1,79,80
 169 179 169 179 172 182 c 1,81,82
 106.091 243.201 106.091 243.201 106.091 342.645 c 0,25,26
EndSplineSet
Validated: 1
EndChar

StartChar: yen
Encoding: 165 165 102
Width: 835
GlyphClass: 2
Flags: MW
LayerCount: 2
Fore
SplineSet
429 13 m 1,0,1
 429.059 6.88235 429.059 6.88235 429.059 0.847751 c 0,2,3
 429.059 -95.7059 429.059 -95.7059 414 -171 c 1,4,5
 382.75 -180.375 382.75 -180.375 354.234 -180.375 c 0,6,7
 337.125 -180.375 337.125 -180.375 321 -177 c 1,8,9
 330 -8 330 -8 330 16 c 1,10,11
 308.333 16.6667 308.333 16.6667 288.889 16.6667 c 0,12,13
 191.667 16.6667 191.667 16.6667 150 0 c 1,14,-1
 147 60 l 1,15,16
 187 86 187 86 329 87 c 1,17,18
 326 139 326 139 315 175 c 1,19,20
 305.828 175.138 305.828 175.138 297.064 175.138 c 0,21,22
 178.759 175.138 178.759 175.138 135 150 c 1,23,24
 121.864 177.818 121.864 177.818 121.864 202.054 c 0,25,26
 121.864 209.182 121.864 209.182 123 216 c 1,27,28
 171 234 171 234 268 239 c 1,29,30
 219 316 219 316 168 477 c 0,31,32
 120 629 120 629 89 687 c 0,33,34
 69 725 69 725 45 753 c 1,35,36
 81.1613 764.645 81.1613 764.645 106.804 764.645 c 0,37,38
 123 764.645 123 764.645 135 760 c 0,39,40
 151 754 151 754 165 741 c 1,41,42
 225 659 225 659 270 501 c 0,43,44
 311 358 311 358 327 319 c 0,45,46
 344 279 344 279 363 249 c 1,47,48
 419 315 419 315 472 449 c 0,49,50
 524 581 524 581 551 628 c 0,51,52
 587 690 587 690 633 735 c 1,53,54
 672.101 752.978 672.101 752.978 703.93 752.978 c 0,55,56
 742.921 752.978 742.921 752.978 771 726 c 1,57,58
 701 649 701 649 618 488 c 0,59,60
 538 335 538 335 502 283 c 0,61,62
 487 261 487 261 472 242 c 1,63,64
 510.333 241.667 510.333 241.667 540.333 241.667 c 0,65,66
 600.333 241.667 600.333 241.667 627 243 c 1,67,68
 630.267 231.333 630.267 231.333 630.267 221.844 c 0,69,70
 630.267 211 630.267 211 626 203 c 1,71,72
 623 199 623 199 615 186 c 1,73,74
 561.947 172.526 561.947 172.526 460.673 172.526 c 0,75,76
 441.684 172.526 441.684 172.526 421 173 c 1,77,78
 425 124 425 124 427 87 c 1,79,80
 563 88 563 88 624 105 c 1,81,-1
 627 45 l 1,82,83
 558 13 558 13 429 13 c 1,0,1
EndSplineSet
Validated: 1
EndChar

StartChar: brokenbar
Encoding: 166 166 103
Width: 340
GlyphClass: 2
Flags: MW
LayerCount: 2
Fore
SplineSet
108 354 m 0,0,1
 111 377 111 377 147 379 c 0,2,3
 148.609 379.043 148.609 379.043 150.17 379.043 c 0,4,5
 184.522 379.043 184.522 379.043 196 358 c 0,6,7
 197 355 197 355 198 351 c 0,8,9
 207.308 283.308 207.308 283.308 207.308 143.302 c 0,10,11
 207.308 117.846 207.308 117.846 207 90 c 0,12,13
 207 67 207 67 207 51 c 0,14,15
 207 26 207 26 168 21 c 0,16,17
 160 20 160 20 152.84 20 c 0,18,19
 124.2 20 124.2 20 109 36 c 0,20,21
 103 43 103 43 102 51 c 0,22,23
 96.2353 105.765 96.2353 105.765 96.2353 166.803 c 0,24,25
 96.2353 254 96.2353 254 108 354 c 0,0,1
105 765 m 0,26,27
 108 788 108 788 144 790 c 0,28,29
 145.609 790.043 145.609 790.043 147.17 790.043 c 0,30,31
 181.522 790.043 181.522 790.043 193 769 c 0,32,33
 194 766 194 766 195 762 c 0,34,35
 200.882 721.412 200.882 721.412 200.882 657.986 c 0,36,37
 200.882 613.588 200.882 613.588 198 558 c 0,38,39
 195 511 195 511 195 483 c 0,40,41
 195 460 195 460 159 451 c 0,42,43
 146.667 448 146.667 448 136.778 448 c 0,44,45
 117 448 117 448 107 460 c 0,46,47
 103 465 103 465 102 471 c 0,48,49
 95.1818 535.545 95.1818 535.545 95.1818 602.157 c 0,50,51
 95.1818 682.091 95.1818 682.091 105 765 c 0,26,27
EndSplineSet
Validated: 1
EndChar

StartChar: section
Encoding: 167 167 104
Width: 475
GlyphClass: 2
Flags: MW
LayerCount: 2
Fore
SplineSet
104 581 m 1,0,1
 83.9444 605.982 83.9444 605.982 83.9444 632.325 c 0,2,3
 83.9444 680.852 83.9444 680.852 152 734 c 0,4,5
 174 752 174 752 204 770 c 0,6,7
 262.391 795.078 262.391 795.078 307.613 795.078 c 0,8,9
 383.207 795.078 383.207 795.078 422 725 c 0,10,11
 433.306 703.847 433.306 703.847 433.306 689.744 c 0,12,13
 433.306 665.176 433.306 665.176 399 662 c 0,14,15
 377 659 377 659 376 659 c 1,16,-1
 365 681 l 1,17,18
 337.72 719.44 337.72 719.44 290.451 719.44 c 0,19,20
 261.48 719.44 261.48 719.44 225 705 c 0,21,22
 153.558 675.233 153.558 675.233 153.558 639.927 c 0,23,24
 153.558 627.791 153.558 627.791 162 615 c 0,25,26
 179 590 179 590 262 534 c 0,27,28
 362 467 362 467 394 427 c 0,29,30
 424.926 388.233 424.926 388.233 424.926 348.707 c 0,31,32
 424.926 297.491 424.926 297.491 373 245 c 1,33,34
 393.355 220.327 393.355 220.327 393.355 194.037 c 0,35,36
 393.355 135.084 393.355 135.084 291 68 c 0,37,38
 282 63 282 63 273 57 c 1,39,40
 214.846 31.5577 214.846 31.5577 169.74 31.5577 c 0,41,42
 103.154 31.5577 103.154 31.5577 65 87 c 0,43,44
 60 94 60 94 56 101 c 0,45,46
 44.6941 122.153 44.6941 122.153 44.6941 136.389 c 0,47,48
 44.6941 161.188 44.6941 161.188 79 165 c 0,49,50
 100 168 100 168 101 168 c 1,51,-1
 112 146 l 1,52,53
 139.446 106.703 139.446 106.703 187.123 106.703 c 0,54,55
 215.881 106.703 215.881 106.703 252 121 c 0,56,57
 323.824 150.618 323.824 150.618 323.824 185.719 c 0,58,59
 323.824 198.023 323.824 198.023 315 211 c 0,60,61
 298 236 298 236 216 292 c 0,62,63
 116 359 116 359 84 399 c 0,64,65
 52.8827 438.006 52.8827 438.006 52.8827 477.781 c 0,66,67
 52.8827 528.759 52.8827 528.759 104 581 c 1,0,1
145 543 m 1,68,69
 116.239 510.13 116.239 510.13 116.239 478.095 c 0,70,71
 116.239 439.957 116.239 439.957 157 403 c 0,72,73
 181 381 181 381 274 323 c 0,74,75
 312 299 312 299 333 283 c 1,76,77
 361.554 315.633 361.554 315.633 361.554 347.65 c 0,78,79
 361.554 386.273 361.554 386.273 320 424 c 0,80,81
 295 446 295 446 202 505 c 0,82,83
 166 527 166 527 145 543 c 1,68,69
EndSplineSet
Validated: 1
EndChar

StartChar: dieresis
Encoding: 168 168 105
Width: 505
GlyphClass: 2
Flags: MW
LayerCount: 2
Fore
SplineSet
435.756 716 m 0,0,1
 435.756 707.667 435.756 707.667 432 699 c 0,2,3
 414.457 662.882 414.457 662.882 363.578 662.882 c 0,4,5
 321.059 662.882 321.059 662.882 306 693 c 0,6,7
 301.679 702.036 301.679 702.036 301.679 713.733 c 128,-1,8
 301.679 725.429 301.679 725.429 312 740 c 0,9,10
 334 770 334 770 363 770.5 c 0,11,12
 363.817 770.514 363.817 770.514 364.629 770.514 c 0,13,14
 392.616 770.514 392.616 770.514 413.878 753.755 c 0,15,16
 435.756 736.511 435.756 736.511 435.756 716 c 0,0,1
118.599 765.409 m 0,17,18
 142.545 765.409 142.545 765.409 167.462 747.214 c 128,-1,19
 192.38 729.02 192.38 729.02 192.38 706.302 c 0,20,21
 192.38 698.32 192.38 698.32 189 690 c 0,22,23
 173.902 654.932 173.902 654.932 123.03 654.886 c 0,24,25
 75.089 654.886 75.089 654.886 57 690 c 0,26,27
 52.6522 698.696 52.6522 698.696 52.6522 709.13 c 128,-1,28
 52.6522 719.565 52.6522 719.565 60 732 c 0,29,30
 80.0454 765.409 80.0454 765.409 118.599 765.409 c 0,17,18
EndSplineSet
Validated: 1
EndChar

StartChar: copyright
Encoding: 169 169 106
Width: 745
GlyphClass: 2
Flags: MW
LayerCount: 2
Fore
SplineSet
435 501 m 1,0,-1
 432 459 l 1,1,2
 418.56 460.08 418.56 460.08 406.157 460.08 c 0,3,4
 315.2 460.08 315.2 460.08 280 402 c 0,5,6
 265 376.5 265 376.5 265 349.5 c 128,-1,7
 265 322.5 265 322.5 280 294 c 0,8,9
 311 233 311 233 382 222 c 0,10,11
 393.273 220.545 393.273 220.545 404.942 220.545 c 0,12,13
 425.364 220.545 425.364 220.545 447 225 c 1,14,-1
 435 177 l 1,15,16
 402.402 167.43 402.402 167.43 374.097 167.43 c 0,17,18
 307.757 167.43 307.757 167.43 265 220 c 0,19,20
 224.305 269 224.305 269 224.305 336.623 c 0,21,22
 224.305 350.424 224.305 350.424 226 365 c 0,23,24
 236 452 236 452 301 490 c 0,25,26
 334.208 509.321 334.208 509.321 376.164 509.321 c 0,27,28
 403.698 509.321 403.698 509.321 435 501 c 1,0,-1
381 594 m 0,29,30
 479 588 479 588 543 490 c 0,31,32
 596.157 408.957 596.157 408.957 596.157 315.764 c 0,33,34
 596.157 302.014 596.157 302.014 595 288 c 0,35,36
 590 216 590 216 552 165 c 0,37,38
 497 91 497 91 390 85 c 0,39,40
 382.154 84.6154 382.154 84.6154 374.473 84.6154 c 0,41,42
 282.308 84.6154 282.308 84.6154 214 140 c 0,43,44
 183 165 183 165 165 198 c 0,45,46
 137.402 249.253 137.402 249.253 137.402 308.753 c 0,47,48
 137.402 354.897 137.402 354.897 154 406 c 0,49,50
 187 510 187 510 267 562 c 0,51,52
 315.6 594.4 315.6 594.4 369.06 594.4 c 0,53,54
 375 594.4 375 594.4 381 594 c 0,29,30
378 690 m 0,55,56
 375.818 690.036 375.818 690.036 373.647 690.036 c 0,57,58
 256.382 690.036 256.382 690.036 169 584 c 0,59,60
 86 484 86 484 77 352 c 0,61,62
 76.0392 338.137 76.0392 338.137 76.0392 324.727 c 0,63,64
 76.0392 240.431 76.0392 240.431 114 174 c 0,65,66
 170 76 170 76 294 39 c 0,67,68
 349.723 22.506 349.723 22.506 402.664 22.506 c 0,69,70
 468.482 22.506 468.482 22.506 530 48 c 0,71,72
 601 78 601 78 642 138 c 0,73,74
 691.422 211.088 691.422 211.088 691.422 305.011 c 0,75,76
 691.422 346.02 691.422 346.02 682 391 c 0,77,78
 654 524 654 524 561 611 c 0,79,80
 478 689 478 689 378 690 c 0,55,56
EndSplineSet
Validated: 9
EndChar

StartChar: ordfeminine
Encoding: 170 170 107
Width: 391
GlyphClass: 2
Flags: MW
LayerCount: 2
Fore
SplineSet
136 543 m 0,0,1
 142.038 542.528 142.038 542.528 147.711 542.528 c 0,2,3
 202.17 542.528 202.17 542.528 223 586 c 0,4,5
 230.562 601.812 230.562 601.812 230.562 617.625 c 0,6,7
 230.562 624.812 230.562 624.812 229 632 c 1,8,9
 204.314 648.457 204.314 648.457 171.635 648.457 c 0,10,11
 156.657 648.457 156.657 648.457 140 645 c 0,12,13
 116 640 116 640 95 628 c 1,14,15
 81.7021 609.915 81.7021 609.915 81.7021 592.962 c 0,16,17
 81.7021 578.043 81.7021 578.043 92 564 c 0,18,19
 107 545 107 545 136 543 c 0,0,1
44 784 m 1,20,21
 111.364 814.727 111.364 814.727 160.387 814.727 c 128,-1,22
 209.409 814.727 209.409 814.727 242.704 800.864 c 128,-1,23
 276 787 276 787 288.612 766 c 128,-1,24
 301.225 745 301.225 745 301.225 711.767 c 128,-1,25
 301.225 678.533 301.225 678.533 288 608 c 1,26,27
 296 577 296 577 331 542 c 0,28,29
 349 523 349 523 365 517 c 1,30,31
 355.286 496.357 355.286 496.357 333.572 496.357 c 128,-1,32
 311.857 496.357 311.857 496.357 269 541 c 1,33,34
 248.437 516.391 248.437 516.391 168.429 506.163 c 1,35,36
 168.429 505.857 168.429 505.857 154.135 504.323 c 128,-1,37
 139.842 502.789 139.842 502.789 133.205 502.789 c 0,38,39
 76.7895 502.789 76.7895 502.789 56.3947 518.395 c 128,-1,40
 36 534 36 534 35 572 c 2,41,-1
 38 621 l 2,42,43
 44 655 44 655 83 672 c 0,44,45
 99 680 99 680 155 684 c 128,-1,46
 211 688 211 688 223 713 c 0,47,48
 226 719 226 719 228 726 c 1,49,50
 214.017 765.035 214.017 765.035 160.661 765.035 c 0,51,52
 123.105 765.035 123.105 765.035 57 743 c 1,53,54
 53.7778 742.778 53.7778 742.778 50.9383 742.778 c 0,55,56
 29.871 742.778 29.871 742.778 29.871 755.01 c 0,57,58
 29.871 765.524 29.871 765.524 44 784 c 1,20,21
EndSplineSet
Validated: 1
EndChar

StartChar: guillemotleft
Encoding: 171 171 108
Width: 754
GlyphClass: 2
Flags: MW
LayerCount: 2
Fore
SplineSet
633 510 m 1,0,1
 439 409 439 409 288 264 c 1,2,3
 444 130 444 130 648 69 c 1,4,5
 695 70 695 70 702 103 c 2,6,-1
 708 144 l 1,7,8
 539 159 539 159 442 258 c 0,9,10
 426 276 l 1,11,12
 476 347 476 347 584 388 c 2,13,-1
 697 430 l 2,14,15
 700 431 700 431 702 432 c 1,16,17
 702.222 435.611 702.222 435.611 702.222 439.059 c 0,18,19
 702.222 497.667 702.222 497.667 638 509 c 0,20,21
 635 510 635 510 633 510 c 1,0,1
342 504 m 1,22,23
 234 448 234 448 117 332 c 2,24,-1
 21 237 l 1,25,26
 210 74 210 74 366 27 c 1,27,28
 413 28 413 28 420 61 c 2,29,-1
 426 102 l 1,30,31
 274 115 274 115 164 243 c 0,32,33
 161 246 161 246 159 249 c 1,34,35
 220 335 220 335 331 389 c 0,36,37
 343 396 343 396 411 426 c 1,38,39
 411.232 429.71 411.232 429.71 411.232 433.249 c 0,40,41
 411.232 490.754 411.232 490.754 350 503 c 0,42,43
 346 503 346 503 342 504 c 1,22,23
EndSplineSet
Validated: 9
EndChar

StartChar: logicalnot
Encoding: 172 172 109
Width: 691
GlyphClass: 2
Flags: MW
LayerCount: 2
Fore
SplineSet
468 198 m 1,0,1
 495.341 189.195 495.341 189.195 521.18 189.195 c 0,2,3
 551.098 189.195 551.098 189.195 579 201 c 1,4,-1
 575 456 l 2,5,6
 574.11 512.754 574.11 512.754 561 564 c 1,7,8
 484.995 584.082 484.995 584.082 378.022 584.082 c 0,9,10
 298.556 584.082 298.556 584.082 202 573 c 1,11,-1
 33 552 l 1,12,13
 23.8793 533.759 23.8793 533.759 23.8793 512.529 c 0,14,15
 23.8793 480.224 23.8793 480.224 45 441 c 1,16,17
 242 481 242 481 328 484 c 0,18,19
 339.455 484.409 339.455 484.409 350.556 484.409 c 0,20,21
 420.864 484.409 420.864 484.409 477 468 c 1,22,23
 491.633 422.93 491.633 422.93 491.633 369.024 c 0,24,25
 491.633 327.619 491.633 327.619 483 281 c 0,26,27
 468 200 468 200 468 198 c 1,0,1
EndSplineSet
Validated: 9
EndChar

StartChar: softhyphen
Encoding: 173 173 110
Width: 586
GlyphClass: 2
Flags: MW
LayerCount: 2
Fore
SplineSet
81 456 m 1,0,1
 117.833 447.972 117.833 447.972 169.83 447.972 c 0,2,3
 227.944 447.972 227.944 447.972 305 458 c 0,4,5
 383.409 468.227 383.409 468.227 426.023 468.227 c 0,6,7
 445.909 468.227 445.909 468.227 458 466 c 0,8,9
 476 463 476 463 489 456 c 1,10,11
 506.978 424.09 506.978 424.09 506.978 396.018 c 0,12,13
 506.978 361.629 506.978 361.629 480 333 c 1,14,15
 445.673 356.558 445.673 356.558 385.07 356.558 c 0,16,17
 355.635 356.558 355.635 356.558 320 351 c 2,18,-1
 187 328 l 2,19,20
 161.947 325.421 161.947 325.421 139.745 325.421 c 0,21,22
 101.684 325.421 101.684 325.421 72 333 c 1,23,24
 48.6747 360.036 48.6747 360.036 48.6747 387.915 c 0,25,26
 48.6747 412.626 48.6747 412.626 67 438 c 0,27,28
 72 446 72 446 81 456 c 1,0,1
81 456 m 1,29,-1
 81 456 l 1,30,-1
 81 456 l 1,29,-1
EndSplineSet
Validated: 1
EndChar

StartChar: registered
Encoding: 174 174 111
Width: 745
GlyphClass: 2
Flags: MW
LayerCount: 2
Fore
SplineSet
321 480 m 1,0,1
 347.341 496.409 347.341 496.409 365.477 496.409 c 0,2,3
 389.341 496.409 389.341 496.409 399 468 c 0,4,5
 404 453 404 453 404 431.25 c 128,-1,6
 404 409.5 404 409.5 399 381 c 1,7,-1
 333 354 l 1,8,9
 319.526 379.263 319.526 379.263 319.526 425.801 c 0,10,11
 319.526 434.526 319.526 434.526 320 444 c 0,12,13
 321.333 460 321.333 460 321.333 470.667 c 0,14,15
 321.333 476 321.333 476 321 480 c 1,0,1
267 516 m 1,16,17
 252.304 492.261 252.304 492.261 252.304 426.352 c 0,18,19
 252.304 375.652 252.304 375.652 261 300 c 0,20,21
 270.941 204.412 270.941 204.412 270.941 170.81 c 0,22,23
 270.941 160.471 270.941 160.471 270 156 c 1,24,-1
 333 159 l 1,25,26
 336.375 168.375 336.375 168.375 336.375 180.844 c 0,27,28
 336.375 201.625 336.375 201.625 327 231 c 0,29,30
 320.741 252.185 320.741 252.185 320.741 268.966 c 0,31,32
 320.741 287.037 320.741 287.037 328 300 c 0,33,34
 337 315 337 315 357 330 c 1,35,36
 385 260 385 260 431 228 c 0,37,38
 464 205 464 205 473 193 c 0,39,40
 480 185 480 185 486 174 c 1,41,-1
 537 192 l 1,42,43
 523 228 523 228 475 263 c 0,44,45
 433 295 433 295 422 315 c 0,46,47
 414 329 414 329 411 345 c 1,48,49
 472 361 472 361 472 424 c 0,50,51
 472 482 472 482 428 526 c 0,52,53
 394.39 560.256 394.39 560.256 356.185 560.256 c 0,54,55
 335.28 560.256 335.28 560.256 313 550 c 0,56,57
 289 539 289 539 267 516 c 1,16,17
381 594 m 0,58,59
 479 588 479 588 543 490 c 0,60,61
 596.157 408.957 596.157 408.957 596.157 315.764 c 0,62,63
 596.157 302.014 596.157 302.014 595 288 c 0,64,65
 590 216 590 216 552 165 c 0,66,67
 497 91 497 91 390 85 c 0,68,69
 382.154 84.6154 382.154 84.6154 374.473 84.6154 c 0,70,71
 282.308 84.6154 282.308 84.6154 214 140 c 0,72,73
 183 165 183 165 165 198 c 0,74,75
 137.402 249.253 137.402 249.253 137.402 308.753 c 0,76,77
 137.402 354.897 137.402 354.897 154 406 c 0,78,79
 187 510 187 510 267 562 c 0,80,81
 315.6 594.4 315.6 594.4 369.06 594.4 c 0,82,83
 375 594.4 375 594.4 381 594 c 0,58,59
378 690 m 0,84,85
 375.818 690.036 375.818 690.036 373.647 690.036 c 0,86,87
 256.382 690.036 256.382 690.036 169 584 c 0,88,89
 86 484 86 484 77 352 c 0,90,91
 76.0392 338.137 76.0392 338.137 76.0392 324.727 c 0,92,93
 76.0392 240.431 76.0392 240.431 114 174 c 0,94,95
 170 76 170 76 294 39 c 0,96,97
 349.723 22.506 349.723 22.506 402.664 22.506 c 0,98,99
 468.482 22.506 468.482 22.506 530 48 c 0,100,101
 601 78 601 78 642 138 c 0,102,103
 691.422 211.088 691.422 211.088 691.422 305.011 c 0,104,105
 691.422 346.02 691.422 346.02 682 391 c 0,106,107
 654 524 654 524 561 611 c 0,108,109
 478 689 478 689 378 690 c 0,84,85
EndSplineSet
Validated: 9
EndChar

StartChar: macron
Encoding: 175 175 112
Width: 586
GlyphClass: 2
Flags: MW
LayerCount: 2
Fore
SplineSet
84 774 m 1,0,1
 120.833 765.972 120.833 765.972 172.83 765.972 c 0,2,3
 230.944 765.972 230.944 765.972 308 776 c 0,4,5
 386.409 786.227 386.409 786.227 429.023 786.227 c 0,6,7
 448.909 786.227 448.909 786.227 461 784 c 0,8,9
 479 781 479 781 492 774 c 1,10,11
 509.978 742.09 509.978 742.09 509.978 714.018 c 0,12,13
 509.978 679.629 509.978 679.629 483 651 c 1,14,15
 448.673 674.558 448.673 674.558 388.07 674.558 c 0,16,17
 358.635 674.558 358.635 674.558 323 669 c 2,18,-1
 190 646 l 2,19,20
 164.947 643.421 164.947 643.421 142.745 643.421 c 0,21,22
 104.684 643.421 104.684 643.421 75 651 c 1,23,24
 51.6747 678.036 51.6747 678.036 51.6747 705.915 c 0,25,26
 51.6747 730.626 51.6747 730.626 70 756 c 0,27,28
 75 764 75 764 84 774 c 1,0,1
84 774 m 1,29,-1
 84 774 l 1,30,-1
 84 774 l 1,29,-1
EndSplineSet
Validated: 1
EndChar

StartChar: degree
Encoding: 176 176 113
Width: 412
GlyphClass: 2
Flags: MW
LayerCount: 2
Fore
SplineSet
175 715 m 0,0,1
 173.429 715.095 173.429 715.095 171.884 715.095 c 0,2,3
 141 715.095 141 715.095 121 677 c 256,4,5
 109.081 654.297 109.081 654.297 109.081 633.527 c 0,6,7
 109.081 617.703 109.081 617.703 116 603 c 0,8,9
 130.531 572.969 130.531 572.969 167.586 572.969 c 0,10,11
 168.781 572.969 168.781 572.969 170 573 c 0,12,13
 205 574 205 574 220 603 c 0,14,15
 229.025 619.15 229.025 619.15 229.025 637.331 c 0,16,17
 229.025 657.425 229.025 657.425 218 680 c 0,18,19
 202 714 202 714 175 715 c 0,0,1
162 788 m 0,20,21
 223 788 223 788 267 726 c 0,22,23
 302.267 677.7 302.267 677.7 302.267 628.224 c 0,24,25
 302.267 613.167 302.267 613.167 299 598 c 0,26,27
 295 579 295 579 285 563 c 0,28,29
 254.714 512.839 254.714 512.839 187.704 512.839 c 0,30,31
 183.911 512.839 183.911 512.839 180 513 c 0,32,33
 112 516 112 516 71 564 c 0,34,35
 61 576 61 576 55 589 c 0,36,37
 42.85 615.55 42.85 615.55 42.85 643.72 c 0,38,39
 42.85 678.15 42.85 678.15 61 715 c 0,40,41
 91 775 91 775 144 786 c 0,42,43
 153 788 153 788 162 788 c 0,20,21
EndSplineSet
Validated: 1
EndChar

StartChar: plusminus
Encoding: 177 177 114
Width: 634
GlyphClass: 2
Flags: MW
LayerCount: 2
Fore
SplineSet
513 102 m 1,0,1
 487.419 96.5484 487.419 96.5484 445.177 96.5484 c 128,-1,2
 402.935 96.5484 402.935 96.5484 329.867 107.554 c 128,-1,3
 256.8 118.56 256.8 118.56 205.428 118.56 c 128,-1,4
 154.056 118.56 154.056 118.56 111 102 c 1,5,6
 92.7586 121.034 92.7586 121.034 92.7586 154.699 c 128,-1,7
 92.7586 188.365 92.7586 188.365 111 204 c 1,8,9
 160.705 220.568 160.705 220.568 213.171 220.568 c 128,-1,10
 265.636 220.568 265.636 220.568 344.818 209.784 c 128,-1,11
 424 199 424 199 455 199 c 128,-1,12
 486 199 486 199 513 204 c 1,13,14
 534.552 184.172 534.552 184.172 534.552 150.869 c 128,-1,15
 534.552 117.565 534.552 117.565 513 102 c 1,0,1
99 429 m 1,16,17
 146.265 441.604 146.265 441.604 187.551 441.604 c 128,-1,18
 228.836 441.604 228.836 441.604 254.823 440.109 c 1,19,20
 256.617 415.652 256.617 415.652 256.617 379.473 c 128,-1,21
 256.617 343.294 256.617 343.294 246 312 c 1,22,23
 267.374 295.376 267.374 295.376 292.562 295.376 c 128,-1,24
 317.751 295.376 317.751 295.376 351 312 c 1,25,26
 368.421 354.761 368.421 354.761 368.421 406.663 c 0,27,28
 368.421 417.538 368.421 417.538 367.845 429.581 c 1,29,30
 419.31 424.449 419.31 424.449 455.961 424.449 c 128,-1,31
 492.612 424.449 492.612 424.449 516 429 c 1,32,33
 528.565 448.957 528.565 448.957 528.565 460.979 c 128,-1,34
 528.565 473 528.565 473 527 479 c 1,35,-1
 510 519 l 1,36,37
 494 517.5 494 517.5 470.889 517.5 c 128,-1,38
 447.777 517.5 447.777 517.5 355.299 529.945 c 1,39,40
 346.236 584.952 346.236 584.952 346.236 620.303 c 128,-1,41
 346.236 655.654 346.236 655.654 351 678 c 1,42,43
 320.625 695.357 320.625 695.357 297.429 695.357 c 1,44,-1
 246 678 l 1,45,46
 240.4 655.6 240.4 655.6 240.4 617.66 c 128,-1,47
 240.4 579.72 240.4 579.72 244.094 541.773 c 1,48,49
 229.787 542.283 229.787 542.283 216.658 542.283 c 0,50,51
 127.925 542.283 127.925 542.283 93 519 c 0,52,53
 90 517 90 517 88 516 c 0,54,55
 65.1474 504.574 65.1474 504.574 65.1474 483.714 c 128,-1,56
 65.1474 462.853 65.1474 462.853 99 429 c 1,16,17
246 678 m 1,57,-1
 246 678 l 1,58,-1
 246 678 l 1,57,-1
EndSplineSet
Validated: 9
EndChar

StartChar: twosuperior
Encoding: 178 178 115
Width: 499
GlyphClass: 2
Flags: MW
LayerCount: 2
Fore
SplineSet
60 681 m 0,0,1
 58.1154 675.885 58.1154 675.885 58.1154 670.624 c 0,2,3
 58.1154 656.346 58.1154 656.346 72 641 c 0,4,5
 80.4 632 80.4 632 87.36 632 c 0,6,7
 92 632 92 632 96 636 c 0,8,9
 186 723 186 723 220 729 c 0,10,11
 223.333 729.595 223.333 729.595 226.681 729.595 c 0,12,13
 251.452 729.595 251.452 729.595 277 697 c 0,14,15
 279 694 279 694 282 690 c 0,16,17
 298.598 667.724 298.598 667.724 298.598 645.448 c 0,18,19
 298.598 616.724 298.598 616.724 271 588 c 0,20,21
 260 577 260 577 193 524 c 0,22,23
 112 459 112 459 93 402 c 0,24,25
 91 397 91 397 90 393 c 1,26,27
 167.35 384.55 167.35 384.55 245.122 384.55 c 0,28,29
 287 384.55 287 384.55 329 387 c 0,30,31
 375 389 375 389 390 390 c 0,32,33
 433 392 433 392 443 426 c 0,34,35
 445.56 434.32 445.56 434.32 445.56 441.002 c 0,36,37
 445.56 455.2 445.56 455.2 434 462 c 0,38,39
 430 464 430 464 426 465 c 0,40,41
 422 465.5 422 465.5 415.438 465.5 c 0,42,43
 395.75 465.5 395.75 465.5 353 461 c 0,44,45
 331.667 459.222 331.667 459.222 308.16 459.222 c 0,46,47
 278.778 459.222 278.778 459.222 246 462 c 1,48,49
 328 534 328 534 356 567 c 0,50,51
 402.107 623.557 402.107 623.557 402.107 670.667 c 0,52,53
 402.107 700.189 402.107 700.189 384 726 c 0,54,55
 338 791 338 791 260 809 c 0,56,57
 238.543 813.793 238.543 813.793 218.754 813.793 c 0,58,59
 151.848 813.793 151.848 813.793 104 759 c 0,60,61
 76 728 76 728 60 681 c 0,0,1
EndSplineSet
Validated: 9
EndChar

StartChar: threesuperior
Encoding: 179 179 116
Width: 409
GlyphClass: 2
Flags: MW
LayerCount: 2
Fore
SplineSet
23 753 m 0,0,1
 19.371 747.194 19.371 747.194 19.371 741.153 c 0,2,3
 19.371 722.226 19.371 722.226 55 701 c 0,4,5
 67 693.889 67 693.889 85.9136 693.889 c 0,6,7
 109.556 693.889 109.556 693.889 144 705 c 0,8,9
 182.435 717.565 182.435 717.565 201.202 717.565 c 0,10,11
 207.826 717.565 207.826 717.565 212 716 c 0,12,13
 225 711 225 711 231 694 c 0,14,15
 233.769 685.923 233.769 685.923 233.769 678.538 c 0,16,17
 233.769 653.923 233.769 653.923 203 637 c 2,18,-1
 133 603 l 2,19,20
 115 592 115 592 103 579 c 1,21,-1
 202 540 l 2,22,23
 267.154 508.692 267.154 508.692 267.154 464.497 c 0,24,25
 267.154 456.462 267.154 456.462 265 448 c 0,26,27
 258.106 420.426 258.106 420.426 220.118 420.426 c 0,28,29
 208.511 420.426 208.511 420.426 194 423 c 2,30,-1
 114 439 l 2,31,32
 107.947 439.658 107.947 439.658 102.587 439.658 c 0,33,34
 67.2105 439.658 67.2105 439.658 62 411 c 0,35,36
 60.9875 405.938 60.9875 405.938 60.9875 401.217 c 0,37,38
 60.9875 363.975 60.9875 363.975 124 348 c 0,39,40
 145 343 145 343 171 341 c 0,41,42
 195.407 338.831 195.407 338.831 216.945 338.831 c 0,43,44
 354.254 338.831 354.254 338.831 375 427 c 0,45,46
 377.086 436.309 377.086 436.309 377.086 445.36 c 0,47,48
 377.086 492.704 377.086 492.704 320 533 c 2,49,-1
 246 580 l 1,50,51
 307 624 307 624 321 645 c 0,52,53
 333.25 662.5 333.25 662.5 333.25 681.021 c 0,54,55
 333.25 694.25 333.25 694.25 327 708 c 0,56,57
 298 774 298 774 217 801 c 0,58,59
 179.523 813.938 179.523 813.938 145.828 813.938 c 0,60,61
 104 813.938 104 813.938 68 794 c 0,62,63
 40 779 40 779 23 753 c 0,0,1
EndSplineSet
Validated: 9
EndChar

StartChar: acute
Encoding: 180 180 117
Width: 241
GlyphClass: 2
Flags: MW
LayerCount: 2
Fore
SplineSet
141 789 m 0,0,1
 147 790.161 147 790.161 152.588 790.161 c 0,2,3
 175.871 790.161 175.871 790.161 188.436 774.081 c 128,-1,4
 201 758 201 758 201.008 750.64 c 128,-1,5
 201.016 743.279 201.016 743.279 201.016 742.552 c 0,6,7
 201.016 698.934 201.016 698.934 145.465 638.958 c 128,-1,8
 89.9138 578.983 89.9138 578.983 59.0755 578.983 c 0,9,10
 58.5345 578.983 58.5345 578.983 58 579 c 0,11,12
 40.3667 579 40.3667 579 40.3667 603.687 c 0,13,14
 40.3667 611.2 40.3667 611.2 42 621 c 0,15,16
 70 775 70 775 141 789 c 0,0,1
EndSplineSet
Validated: 1
EndChar

StartChar: uni00B5
Encoding: 181 181 118
Width: 517
GlyphClass: 2
Flags: MW
LayerCount: 2
Fore
SplineSet
108.333 -119.083 m 2,0,-1
 98.7143 130.572 l 2,1,2
 98.7143 146 98.7143 146 100.357 146 c 128,-1,3
 102 146 102 146 106 131 c 128,-1,4
 110 116 110 116 153 75 c 0,5,6
 221.444 9.66667 221.444 9.66667 275.975 9.66667 c 0,7,8
 291.556 9.66667 291.556 9.66667 314.778 18.3333 c 128,-1,9
 338 27 338 27 380 66 c 0,10,11
 381.343 67.209 381.343 67.209 383.823 67.209 c 0,12,13
 399.806 67.209 399.806 67.209 443.016 32.8142 c 128,-1,14
 486.226 -1.58064 486.226 -1.58064 489.129 -1.58064 c 128,-1,15
 492.032 -1.58065 492.032 -1.58065 492.032 -0.903226 c 128,-1,16
 492.032 -0.225802 492.032 -0.225802 492 0 c 1,17,18
 449.361 93.6393 449.361 93.6393 449.361 207.55 c 0,19,20
 449.361 229.885 449.361 229.885 451 253 c 2,21,-1
 469 457 l 2,22,23
 471 486 471 486 471 509.157 c 128,-1,24
 471 532.314 471 532.314 455.549 532.314 c 0,25,26
 450.2 532.314 450.2 532.314 443 530 c 0,27,28
 418 522 418 522 411 504 c 0,29,30
 397 471 397 471 396.5 344 c 128,-1,31
 396 217 396 217 374 162 c 0,32,33
 347 93 347 93 282 78 c 0,34,35
 270.044 75.1868 270.044 75.1868 258.768 75.1868 c 0,36,37
 205.912 75.1868 205.912 75.1868 168 137 c 0,38,39
 141 180 141 180 135 234 c 0,40,41
 134 245 134 245 132 354.5 c 128,-1,42
 130 464 130 464 126 510 c 0,43,44
 125 528 125 528 102 535 c 0,45,46
 94.4324 537.703 94.4324 537.703 88.1797 537.703 c 0,47,48
 71.2973 537.703 71.2973 537.703 64 518 c 1,49,50
 64 516 64 516 63 513 c 0,51,52
 39.1579 417.632 39.1579 417.632 39.1579 31.8685 c 0,53,54
 39.1579 -67.5789 39.1579 -67.5789 51 -171 c 0,55,56
 52.619 -184.762 52.619 -184.762 71.2766 -184.762 c 0,57,58
 106.765 -184.762 106.765 -184.762 108 -165 c 0,59,60
 108.333 -156.833 108.333 -156.833 108.333 -119.083 c 2,0,-1
EndSplineSet
Validated: 9
EndChar

StartChar: paragraph
Encoding: 182 182 119
Width: 820
GlyphClass: 2
Flags: MW
LayerCount: 2
Fore
SplineSet
366 576 m 1,0,1
 356.851 576.266 356.851 576.266 348.112 576.266 c 0,2,3
 192.564 576.266 192.564 576.266 167 492 c 0,4,5
 162 475 162 475 162 456 c 0,6,7
 164 370 164 370 277 351 c 0,8,9
 315 345 315 345 372 345 c 1,10,11
 356.875 382.125 356.875 382.125 356.875 440.52 c 0,12,13
 356.875 467.062 356.875 467.062 360 498 c 0,14,15
 366 556 366 556 366 576 c 1,0,1
370 273 m 1,16,17
 351.553 272.029 351.553 272.029 334.097 272.029 c 0,18,19
 171.748 272.029 171.748 272.029 95 356 c 0,20,21
 48.6867 406.795 48.6867 406.795 48.6867 467.634 c 0,22,23
 48.6867 488.241 48.6867 488.241 54 510 c 256,24,25
 75 596 75 596 165 643 c 0,26,27
 233.075 679.528 233.075 679.528 322.517 679.528 c 0,28,29
 340.811 679.528 340.811 679.528 360 678 c 0,30,31
 383.667 677.333 383.667 677.333 419.667 677.333 c 0,32,33
 491.667 677.333 491.667 677.333 613 680 c 0,34,35
 633.667 680.667 633.667 680.667 652.778 680.667 c 0,36,37
 691 680.667 691 680.667 723 678 c 1,38,-1
 743 606 l 2,39,40
 744.241 597.931 744.241 597.931 744.241 590.504 c 0,41,42
 744.241 562.034 744.241 562.034 726 543 c 1,43,44
 711.5 546 711.5 546 698.75 546 c 128,-1,45
 686 546 686 546 675 543 c 1,46,47
 674.4 527.2 674.4 527.2 674.4 505.72 c 0,48,49
 674.4 419.8 674.4 419.8 684 243 c 0,50,51
 688.447 163.632 688.447 163.632 688.447 95.3816 c 0,52,53
 688.447 -35.8684 688.447 -35.8684 672 -126 c 1,54,-1
 579 -126 l 1,55,56
 588.846 -45.3846 588.846 -45.3846 588.846 82.9468 c 0,57,58
 588.846 163.154 588.846 163.154 585 262 c 0,59,60
 580.545 382.909 580.545 382.909 580.545 463.727 c 0,61,62
 580.545 509.909 580.545 509.909 582 543 c 1,63,64
 562.5 548.5 562.5 548.5 534 548.5 c 128,-1,65
 505.5 548.5 505.5 548.5 468 543 c 1,66,67
 465.278 504.5 465.278 504.5 465.278 446.188 c 0,68,69
 465.278 354.556 465.278 354.556 472 214 c 0,70,71
 476.654 123.462 476.654 123.462 476.654 48.1376 c 0,72,73
 476.654 -54.5769 476.654 -54.5769 468 -129 c 1,74,-1
 369 -126 l 1,75,76
 377.758 -25.5455 377.758 -25.5455 377.758 77.2975 c 0,77,78
 377.758 174.091 377.758 174.091 370 273 c 1,16,17
EndSplineSet
Validated: 1
EndChar

StartChar: periodcentered
Encoding: 183 183 120
Width: 346
GlyphClass: 2
Flags: MW
LayerCount: 2
Fore
SplineSet
92 428 m 0,0,1
 122.17 486.02 122.17 486.02 172.391 486.02 c 128,-1,2
 222.612 486.02 222.612 486.02 252 439 c 0,3,4
 270.618 409.909 270.618 409.909 270.618 385.782 c 128,-1,5
 270.618 361.655 270.618 361.655 261 342 c 0,6,7
 234.905 292.182 234.905 292.182 166.448 292.182 c 0,8,9
 118.909 292.182 118.909 292.182 93 325 c 1,10,11
 92 328 92 328 84.4911 339.366 c 128,-1,12
 76.9821 350.732 76.9821 350.732 76.9821 375.125 c 128,-1,13
 76.9821 399.518 76.9821 399.518 92 428 c 0,0,1
EndSplineSet
Validated: 1
EndChar

StartChar: cedilla
Encoding: 184 184 121
Width: 451
GlyphClass: 2
Flags: MW
LayerCount: 2
Fore
SplineSet
188 10 m 1,0,-1
 177 -28 l 1,1,2
 165 -41 165 -41 160 -72 c 1,3,4
 186.585 -60.7846 186.585 -60.7846 205.577 -60.7846 c 0,5,6
 232.308 -60.7846 232.308 -60.7846 244 -83 c 0,7,8
 250.429 -95 250.429 -95 250.429 -107 c 0,9,10
 250.429 -123 250.429 -123 239 -139 c 0,11,12
 224.088 -159.281 224.088 -159.281 202.059 -159.281 c 0,13,14
 187.158 -159.281 187.158 -159.281 169 -150 c 0,15,16
 164 -148 164 -148 158 -144 c 1,17,18
 154.938 -148.812 154.938 -148.812 154.938 -157.453 c 0,19,20
 154.938 -168.562 154.938 -168.562 160 -186 c 1,21,22
 185.548 -202.298 185.548 -202.298 208.379 -202.298 c 0,23,24
 237.381 -202.298 237.381 -202.298 262 -176 c 0,25,26
 295.231 -140.923 295.231 -140.923 295.231 -93.9172 c 0,27,28
 295.231 -90 295.231 -90 295 -86 c 0,29,30
 292 -31 292 -31 243 -20 c 0,31,32
 237 -19 237 -19 230 -18 c 1,33,-1
 240 0 l 1,34,35
 234 3 234 3 230 10 c 0,36,37
 229 13 229 13 218 14 c 0,38,39
 210.5 15.5 210.5 15.5 205.5 15.5 c 128,-1,40
 200.5 15.5 200.5 15.5 198 14 c 0,41,42
 194 12 194 12 188 10 c 1,0,-1
224 -34 m 1,43,-1
 228 -34 l 1,44,-1
 224 -34 l 1,43,-1
EndSplineSet
Validated: 9
EndChar

StartChar: onesuperior
Encoding: 185 185 122
Width: 352
GlyphClass: 2
Flags: MW
LayerCount: 2
Fore
SplineSet
143.973 403.719 m 0,0,1
 143.973 378.833 143.973 378.833 182.237 378.833 c 128,-1,2
 220.5 378.833 220.5 378.833 237 399 c 0,3,4
 242 405 242 405 243 411 c 0,5,6
 257.667 479 257.667 479 257.667 532.667 c 128,-1,7
 257.667 586.333 257.667 586.333 250.295 656.82 c 128,-1,8
 242.923 727.308 242.923 727.308 242.923 757.5 c 128,-1,9
 242.923 787.692 242.923 787.692 243 792 c 1,10,11
 209.4 809.64 209.4 809.64 178.387 809.64 c 0,12,13
 98.64 809.64 98.64 809.64 36 693 c 0,14,15
 28 679 28 679 21 663 c 1,16,17
 35.5758 642.258 35.5758 642.258 50.2576 642.258 c 128,-1,18
 64.9394 642.258 64.9394 642.258 79 655 c 2,19,-1
 116 693 l 2,20,21
 128 703 128 703 139.5 703 c 128,-1,22
 151 703 151 703 162 693 c 1,23,24
 161 670 161 670 153 562 c 0,25,26
 143.973 440.136 143.973 440.136 143.973 403.719 c 0,0,1
EndSplineSet
Validated: 9
EndChar

StartChar: ordmasculine
Encoding: 186 186 123
Width: 457
GlyphClass: 2
Flags: MW
LayerCount: 2
Fore
SplineSet
57 519 m 1,0,1
 221.645 534.059 221.645 534.059 280.117 534.059 c 128,-1,2
 338.588 534.059 338.588 534.059 396 519 c 1,3,4
 416.5 490.5 416.5 490.5 416.5 468 c 128,-1,5
 416.5 445.5 416.5 445.5 396 429 c 1,6,7
 344.512 445.953 344.512 445.953 279.966 445.953 c 128,-1,8
 215.419 445.953 215.419 445.953 157 440 c 2,9,-1
 57 429 l 1,10,11
 39.5 454.5 39.5 454.5 39.5 477 c 128,-1,12
 39.5 499.5 39.5 499.5 57 519 c 1,0,1
57 519 m 1,13,-1
 57 519 l 1,14,-1
 57 519 l 1,13,-1
226 737 m 0,15,16
 227 737.029 227 737.029 227.986 737.029 c 0,17,18
 261.514 737.029 261.514 737.029 279 704 c 0,19,20
 287.036 689 287.036 689 287.036 676.072 c 128,-1,21
 287.036 663.143 287.036 663.143 281 652 c 0,22,23
 262.734 620.84 262.734 620.84 215.362 620.84 c 0,24,25
 183.64 620.84 183.64 620.84 171.275 637.784 c 128,-1,26
 158.909 654.727 158.909 654.727 158.909 670.546 c 128,-1,27
 158.909 686.364 158.909 686.364 172 706 c 0,28,29
 193 737 193 737 226 737 c 0,15,16
253 799 m 0,30,31
 243 801 243 801 237.923 801.009 c 2,32,-1
 231.695 801.017 l 2,33,34
 166.138 801.017 166.138 801.017 117 745 c 0,35,36
 78.8889 701.444 78.8889 701.444 78.8889 656.679 c 0,37,38
 78.8889 627.556 78.8889 627.556 94 603 c 0,39,40
 128 551 128 551 207 551 c 128,-1,41
 286 551 286 551 332 597 c 0,42,43
 363.846 628.846 363.846 628.846 363.846 664.269 c 128,-1,44
 363.846 699.692 363.846 699.692 345 732 c 0,45,46
 312 788 312 788 253 799 c 0,30,31
EndSplineSet
Validated: 9
EndChar

StartChar: guillemotright
Encoding: 187 187 124
Width: 754
GlyphClass: 2
Flags: MW
LayerCount: 2
Fore
SplineSet
117 507 m 1,0,1
 314 403 314 403 462 261 c 1,2,3
 301 124 301 124 102 66 c 1,4,5
 55 67 55 67 48 102 c 2,6,-1
 42 141 l 1,7,8
 219 157 219 157 315 262 c 0,9,10
 320 268 320 268 324 273 c 1,11,12
 274 343 274 343 168 384 c 2,13,-1
 55 426 l 2,14,15
 52 427 52 427 48 429 c 1,16,17
 47.7922 432.481 47.7922 432.481 47.7922 435.81 c 0,18,19
 47.7922 496.571 47.7922 496.571 117 507 c 1,0,1
408 501 m 1,20,21
 516 444 516 444 635 327 c 2,22,-1
 729 234 l 1,23,24
 539 69 539 69 384 24 c 1,25,26
 337 25 337 25 330 60 c 2,27,-1
 324 99 l 1,28,29
 473 112 473 112 585 239 c 0,30,31
 588 242 588 242 591 246 c 1,32,33
 531 331 531 331 421 385 c 0,34,35
 418 387 418 387 339 423 c 1,36,37
 338.792 426.532 338.792 426.532 338.792 429.908 c 0,38,39
 338.792 491.519 338.792 491.519 408 501 c 1,20,21
EndSplineSet
Validated: 1
EndChar

StartChar: onequarter
Encoding: 188 188 125
Width: 754
GlyphClass: 3
Flags: MW
LayerCount: 2
Fore
SplineSet
573 348 m 1,0,-1
 567 240 l 1,1,2
 525.261 230.217 525.261 230.217 495.006 230.217 c 0,3,4
 478.87 230.217 478.87 230.217 466 233 c 2,5,6
 464 233 464 233 462 234 c 1,7,-1
 529 291 l 2,8,9
 557 318 557 318 573 348 c 1,0,-1
591 432 m 1,10,11
 541 366 541 366 426 267 c 0,12,13
 371 219 371 219 351 201 c 1,14,15
 360 199 360 199 407 180 c 0,16,17
 434.5 169 434.5 169 469.75 169 c 128,-1,18
 505 169 505 169 548 180 c 0,19,20
 553 182 553 182 558 183 c 1,21,22
 558.083 181.833 558.083 181.833 558.083 180.361 c 0,23,24
 558.083 164.167 558.083 164.167 548 111 c 256,25,26
 545.049 95.439 545.049 95.439 545.049 81.9655 c 0,27,28
 545.049 45.2195 545.049 45.2195 567 24 c 1,29,-1
 633 21 l 1,30,31
 615.667 47.6667 615.667 47.6667 615.667 87.2222 c 0,32,33
 615.667 107 615.667 107 620 130 c 0,34,35
 629 179 629 179 630 189 c 1,36,-1
 717 186 l 1,37,-1
 717 249 l 1,38,-1
 630 243 l 1,39,40
 638.45 279.4 638.45 279.4 638.45 342.84 c 0,41,42
 638.45 377 638.45 377 636 419 c 0,43,44
 636 425 636 425 636 429 c 1,45,-1
 591 432 l 1,10,11
99 714 m 1,46,47
 117.818 710.727 117.818 710.727 135.893 710.727 c 0,48,49
 184.091 710.727 184.091 710.727 227 734 c 0,50,51
 272 759 272 759 290 761 c 2,52,53
 292 762 292 762 294 762 c 1,54,55
 266.966 582.414 266.966 582.414 266.966 501.643 c 0,56,57
 266.966 498.759 266.966 498.759 267 496 c 0,58,59
 268 444 268 444 276 399 c 1,60,61
 254.031 381.215 254.031 381.215 235.345 381.215 c 0,62,63
 218.308 381.215 218.308 381.215 204 396 c 1,64,65
 204.25 400.5 204.25 400.5 204.25 411.25 c 0,66,67
 204.25 443.5 204.25 443.5 202 532 c 0,68,69
 201.852 539.482 201.852 539.482 201.852 546.722 c 0,70,71
 201.852 637.222 201.852 637.222 225 690 c 1,72,73
 222.84 690.36 222.84 690.36 220.277 690.36 c 0,74,75
 201.48 690.36 201.48 690.36 161 671 c 0,76,77
 138 661 138 661 123 657 c 1,78,-1
 106 683 l 2,79,80
 100 695 100 695 99 714 c 1,46,47
27 72 m 1,81,82
 134 122 134 122 235 264 c 0,83,84
 249 284 249 284 350 441 c 0,85,86
 457 606 457 606 549 685 c 0,87,88
 598 727 598 727 651 756 c 1,89,90
 711 753 711 753 717 712 c 0,91,92
 717.5 707 717.5 707 717.5 700.75 c 128,-1,93
 717.5 694.5 717.5 694.5 717 687 c 1,94,95
 597 639 597 639 482 488 c 0,96,97
 462 461 462 461 358 308 c 256,98,99
 254 155 254 155 172 88 c 0,100,101
 131 55 131 55 87 33 c 1,102,103
 72.5882 30.0588 72.5882 30.0588 61.8962 30.0588 c 0,104,105
 36.2353 30.0588 36.2353 30.0588 32 47 c 2,106,-1
 27 72 l 1,81,82
EndSplineSet
Validated: 9
LCarets2: 2 0 0 
Ligature2: "'frac' Diagonal Fractions in Latin lookup 0 subtable" one slash four
EndChar

StartChar: onehalf
Encoding: 189 189 126
Width: 754
GlyphClass: 3
Flags: MW
LayerCount: 2
Fore
SplineSet
434 254 m 2,0,-1
 429 190 l 1,1,2
 458 299 458 299 524 345 c 0,3,4
 550.947 362.965 550.947 362.965 571.591 362.965 c 0,5,6
 587.719 362.965 587.719 362.965 600 352 c 0,7,8
 617.779 336.623 617.779 336.623 617.779 306.007 c 0,9,10
 617.779 272.909 617.779 272.909 597 222 c 0,11,12
 563 140 563 140 479 34 c 1,13,14
 581.773 17.5909 581.773 17.5909 682.308 17.5909 c 0,15,16
 698.182 17.5909 698.182 17.5909 714 18 c 1,17,18
 716 28.5 716 28.5 716 38.375 c 0,19,20
 716 68 716 68 698 92 c 1,21,22
 695.625 92.25 695.625 92.25 693.297 92.25 c 0,23,24
 677 92.25 677 92.25 663 80 c 0,25,26
 653 71.6667 653 71.6667 636.21 71.6667 c 0,27,28
 622.778 71.6667 622.778 71.6667 605 77 c 0,29,30
 594 81 594 81 579 87 c 1,31,32
 693.259 238.534 693.259 238.534 693.259 333.596 c 0,33,34
 693.259 355.845 693.259 355.845 687 375 c 0,35,36
 669 432 669 432 606 438 c 0,37,38
 600 438.455 600 438.455 594.107 438.455 c 0,39,40
 535.182 438.455 535.182 438.455 487 393 c 0,41,42
 433.738 342.541 433.738 342.541 433.738 265.014 c 0,43,44
 433.738 259.574 433.738 259.574 434 254 c 2,0,-1
99 714 m 1,45,46
 117.818 710.727 117.818 710.727 135.893 710.727 c 0,47,48
 184.091 710.727 184.091 710.727 227 734 c 0,49,50
 272 759 272 759 290 761 c 2,51,52
 292 762 292 762 294 762 c 1,53,54
 266.966 582.414 266.966 582.414 266.966 501.643 c 0,55,56
 266.966 498.759 266.966 498.759 267 496 c 0,57,58
 268 444 268 444 276 399 c 1,59,60
 254.031 381.215 254.031 381.215 235.345 381.215 c 0,61,62
 218.308 381.215 218.308 381.215 204 396 c 1,63,64
 204.25 400.5 204.25 400.5 204.25 411.25 c 0,65,66
 204.25 443.5 204.25 443.5 202 532 c 0,67,68
 201.852 539.482 201.852 539.482 201.852 546.722 c 0,69,70
 201.852 637.222 201.852 637.222 225 690 c 1,71,72
 222.84 690.36 222.84 690.36 220.277 690.36 c 0,73,74
 201.48 690.36 201.48 690.36 161 671 c 0,75,76
 138 661 138 661 123 657 c 1,77,-1
 106 683 l 2,78,79
 100 695 100 695 99 714 c 1,45,46
27 72 m 1,80,81
 134 122 134 122 235 264 c 0,82,83
 249 284 249 284 350 441 c 0,84,85
 457 606 457 606 549 685 c 0,86,87
 598 727 598 727 651 756 c 1,88,89
 711 753 711 753 717 712 c 0,90,91
 717.5 707 717.5 707 717.5 700.75 c 128,-1,92
 717.5 694.5 717.5 694.5 717 687 c 1,93,94
 597 639 597 639 482 488 c 0,95,96
 462 461 462 461 358 308 c 256,97,98
 254 155 254 155 172 88 c 0,99,100
 131 55 131 55 87 33 c 1,101,102
 72.5882 30.0588 72.5882 30.0588 61.8962 30.0588 c 0,103,104
 36.2353 30.0588 36.2353 30.0588 32 47 c 2,105,-1
 27 72 l 1,80,81
EndSplineSet
Validated: 9
LCarets2: 2 0 0 
Ligature2: "'frac' Diagonal Fractions in Latin lookup 0 subtable" one slash two
EndChar

StartChar: threequarters
Encoding: 190 190 127
Width: 754
GlyphClass: 3
Flags: MW
LayerCount: 2
Fore
SplineSet
55 723 m 1,0,-1
 94 681 l 1,1,2
 126 731 126 731 194 744 c 0,3,4
 212.229 747.457 212.229 747.457 226.605 747.457 c 0,5,6
 257.971 747.457 257.971 747.457 271 731 c 0,7,8
 276.734 723.431 276.734 723.431 276.734 714.232 c 0,9,10
 276.734 683.321 276.734 683.321 212 634 c 0,11,12
 178 608 178 608 126 579 c 1,13,14
 215 569 215 569 233 517 c 0,15,16
 237.356 505.178 237.356 505.178 237.356 494.323 c 0,17,18
 237.356 470.289 237.356 470.289 216 451 c 0,19,20
 195.377 432.049 195.377 432.049 168.851 432.049 c 0,21,22
 147.787 432.049 147.787 432.049 123 444 c 0,23,24
 107 452 107 452 91 466 c 1,25,-1
 38 435 l 1,26,27
 81.6279 382.802 81.6279 382.802 147.713 382.802 c 0,28,29
 166.453 382.802 166.453 382.802 187 387 c 0,30,31
 259 401 259 401 299 451 c 0,32,33
 321.05 478.3 321.05 478.3 321.05 502.568 c 0,34,35
 321.05 524.525 321.05 524.525 303 544 c 0,36,37
 273 575 273 575 200 588 c 1,38,39
 321 631 321 631 341 695 c 0,40,41
 344.629 706.371 344.629 706.371 344.629 716.688 c 0,42,43
 344.629 749.016 344.629 749.016 309 771 c 0,44,45
 276.877 790.938 276.877 790.938 234.324 790.938 c 0,46,47
 200.046 790.938 200.046 790.938 159 778 c 0,48,49
 106 761 106 761 55 723 c 1,0,-1
573 348 m 1,50,-1
 567 240 l 1,51,52
 525.261 230.217 525.261 230.217 495.006 230.217 c 0,53,54
 478.87 230.217 478.87 230.217 466 233 c 2,55,56
 464 233 464 233 462 234 c 1,57,-1
 529 291 l 2,58,59
 557 318 557 318 573 348 c 1,50,-1
591 432 m 1,60,61
 541 366 541 366 426 267 c 0,62,63
 371 219 371 219 351 201 c 1,64,65
 360 199 360 199 407 180 c 0,66,67
 434.5 169 434.5 169 469.75 169 c 128,-1,68
 505 169 505 169 548 180 c 0,69,70
 553 182 553 182 558 183 c 1,71,72
 558.083 181.833 558.083 181.833 558.083 180.361 c 0,73,74
 558.083 164.167 558.083 164.167 548 111 c 256,75,76
 545.049 95.439 545.049 95.439 545.049 81.9655 c 0,77,78
 545.049 45.2195 545.049 45.2195 567 24 c 1,79,-1
 633 21 l 1,80,81
 615.667 47.6667 615.667 47.6667 615.667 87.2222 c 0,82,83
 615.667 107 615.667 107 620 130 c 0,84,85
 629 179 629 179 630 189 c 1,86,-1
 717 186 l 1,87,-1
 717 249 l 1,88,-1
 630 243 l 1,89,90
 638.45 279.4 638.45 279.4 638.45 342.84 c 0,91,92
 638.45 377 638.45 377 636 419 c 0,93,94
 636 425 636 425 636 429 c 1,95,-1
 591 432 l 1,60,61
27 72 m 1,96,97
 134 122 134 122 235 264 c 0,98,99
 249 284 249 284 350 441 c 0,100,101
 457 606 457 606 549 685 c 0,102,103
 598 727 598 727 651 756 c 1,104,105
 711 753 711 753 717 712 c 0,106,107
 717.5 707 717.5 707 717.5 700.75 c 128,-1,108
 717.5 694.5 717.5 694.5 717 687 c 1,109,110
 597 639 597 639 482 488 c 0,111,112
 462 461 462 461 358 308 c 256,113,114
 254 155 254 155 172 88 c 0,115,116
 131 55 131 55 87 33 c 1,117,118
 72.5882 30.0588 72.5882 30.0588 61.8962 30.0588 c 0,119,120
 36.2353 30.0588 36.2353 30.0588 32 47 c 2,121,-1
 27 72 l 1,96,97
EndSplineSet
Validated: 9
LCarets2: 2 0 0 
Ligature2: "'frac' Diagonal Fractions in Latin lookup 0 subtable" three slash four
EndChar

StartChar: questiondown
Encoding: 191 191 128
Width: 560
GlyphClass: 2
Flags: MW
LayerCount: 2
Fore
SplineSet
264 710 m 1,0,1
 306 749 306 749 310 756 c 0,2,3
 314.491 762.456 314.491 762.456 314.491 768.203 c 0,4,5
 314.491 782.93 314.491 782.93 285 793 c 0,6,7
 280 794 280 794 274 796 c 1,8,9
 252.061 808.755 252.061 808.755 235.849 808.755 c 0,10,11
 220.286 808.755 220.286 808.755 210 797 c 0,12,13
 200 785 200 785 188 756 c 1,14,15
 196 723 196 723 207 717 c 0,16,17
 217.769 709.308 217.769 709.308 245.698 709.308 c 0,18,19
 254.077 709.308 254.077 709.308 264 710 c 1,0,1
393 224 m 1,20,-1
 448 229 l 1,21,22
 467 227 467 227 482 200 c 1,23,24
 469 88 469 88 368 35 c 0,25,26
 308.955 3.41791 308.955 3.41791 246.611 3.41791 c 0,27,28
 218.149 3.41791 218.149 3.41791 189 10 c 0,29,30
 101 30 101 30 75 101 c 0,31,32
 66.4894 124.83 66.4894 124.83 66.4894 151.285 c 0,33,34
 66.4894 249.17 66.4894 249.17 183 383 c 0,35,-1
 197 399 l 1,36,37
 198 425 198 425 214 514 c 0,38,39
 219.297 543.892 219.297 543.892 219.297 567.627 c 0,40,41
 219.297 606.622 219.297 606.622 205 629 c 1,42,-1
 282 629 l 1,43,44
 305.203 595.763 305.203 595.763 305.203 552.3 c 0,45,46
 305.203 526.458 305.203 526.458 297 497 c 2,47,-1
 271 408 l 2,48,49
 268 397 268 397 267 387 c 1,50,51
 161.963 279.018 161.963 279.018 161.963 181.637 c 0,52,53
 161.963 179.817 161.963 179.817 162 178 c 0,54,55
 163 113 163 113 208 91 c 0,56,57
 224.32 83.32 224.32 83.32 241.459 83.32 c 0,58,59
 277.88 83.32 277.88 83.32 318 118 c 0,60,61
 360 154 360 154 393 224 c 1,20,-1
EndSplineSet
Validated: 9
EndChar

StartChar: Aring
Encoding: 197 197 134
Width: 463
GlyphClass: 2
Flags: MW
LayerCount: 2
Fore
SplineSet
234 954 m 0,0,1
 233.059 954.029 233.059 954.029 232.13 954.029 c 0,2,3
 201.471 954.029 201.471 954.029 184 922 c 0,4,5
 176.16 907.44 176.16 907.44 176.16 895.28 c 128,-1,6
 176.16 883.12 176.16 883.12 181 873 c 0,7,8
 197.078 838.7 197.078 838.7 244.38 838.7 c 0,9,10
 276.6 838.7 276.6 838.7 291 863 c 0,11,12
 298.2 875 298.2 875 298.2 891 c 128,-1,13
 298.2 907 298.2 907 279.6 930.5 c 128,-1,14
 261 954 261 954 234 954 c 0,0,1
211.25 404.5 m 2,15,-1
 257.999 401.219 l 2,16,17
 293.094 401.219 293.094 401.219 299 424 c 0,18,19
 300 427 300 427 300 430 c 0,20,21
 294 529 294 529 269 593 c 0,22,23
 254.566 631.208 254.566 631.208 237.248 631.208 c 0,24,25
 234.17 631.208 234.17 631.208 231 630 c 1,26,27
 202 577 202 577 190 488 c 0,28,29
 186.952 464.381 186.952 464.381 186.952 440.619 c 128,-1,30
 186.952 416.857 186.952 416.857 195 402 c 1,31,32
 199 404.5 199 404.5 211.25 404.5 c 2,15,-1
204 789 m 1,33,34
 139 809 139 809 116 860 c 0,35,36
 107.468 879.29 107.468 879.29 107.468 905.661 c 128,-1,37
 107.468 932.032 107.468 932.032 132 966 c 0,38,39
 170.76 1018.02 170.76 1018.02 228.816 1018.02 c 128,-1,40
 286.873 1018.02 286.873 1018.02 328.905 970.779 c 128,-1,41
 370.938 923.538 370.938 923.538 370.938 881.509 c 0,42,43
 370.938 856.488 370.938 856.488 359 835 c 0,44,45
 338 798 338 798 292 786 c 1,46,47
 319 759 319 759 335 710 c 1,48,-1
 367 353 l 2,49,50
 383.2 133.4 383.2 133.4 383.2 74.85 c 128,-1,51
 383.2 16.3 383.2 16.3 383 6 c 1,52,53
 366.953 0.305882 366.953 0.305882 353.853 0.305882 c 0,54,55
 316.341 0.305883 316.341 0.305883 303 47 c 0,56,57
 298 65 298 65 289 160 c 0,58,59
 280.881 259.706 280.881 259.706 238 285 c 1,60,61
 192 283 192 283 180 207 c 2,62,-1
 166 76 l 2,63,64
 152 -2 152 -2 99 -3 c 0,65,66
 87 -3 87 -3 72 0 c 1,67,68
 71.9512 4.53659 71.9512 4.53659 71.9512 9.26175 c 0,69,70
 71.9512 198.268 71.9512 198.268 150 689 c 0,71,72
 151 694 151 694 151 695 c 1,73,74
 175 761 175 761 204 789 c 1,33,34
EndSplineSet
Validated: 1
EndChar

StartChar: AE
Encoding: 198 198 135
Width: 646
GlyphClass: 2
Flags: MW
LayerCount: 2
Fore
SplineSet
182 636 m 1,0,1
 153 583 153 583 141 494 c 0,2,3
 137.952 470.381 137.952 470.381 137.952 452.277 c 0,4,5
 137.952 422.857 137.952 422.857 146 408 c 1,6,7
 150 410.5 150 410.5 162.25 410.5 c 128,-1,8
 174.5 410.5 174.5 410.5 195 408 c 0,9,10
 202.5 407.219 202.5 407.219 208.999 407.219 c 0,11,12
 244.094 407.219 244.094 407.219 250 430 c 0,13,14
 251 433 251 433 251 436 c 0,15,16
 245 535 245 535 220 599 c 0,17,18
 205.566 637.208 205.566 637.208 188.248 637.208 c 0,19,20
 185.17 637.208 185.17 637.208 182 636 c 1,0,1
221 809 m 1,21,22
 314 793.984 314 793.984 402.308 793.984 c 0,23,24
 496.312 793.984 496.312 793.984 585 811 c 1,25,26
 592.934 794.049 592.934 794.049 592.934 775.537 c 0,27,28
 592.934 742.721 592.934 742.721 568 705 c 0,29,30
 559 692 559 692 545 674 c 1,31,32
 485.417 671.917 485.417 671.917 442.153 671.917 c 0,33,34
 381.583 671.917 381.583 671.917 353 676 c 0,35,36
 302 682 302 682 265 699 c 1,37,38
 316 628 316 628 337 509 c 0,39,40
 343.125 472.25 343.125 472.25 343.125 443.156 c 0,41,42
 343.125 439 343.125 439 343 435 c 1,43,44
 382.9 425.2 382.9 425.2 419.737 425.2 c 0,45,46
 488.15 425.2 488.15 425.2 546 459 c 0,47,48
 560 466 560 466 572 476 c 1,49,50
 602 440 602 440 603 419 c 0,51,52
 603.083 417.5 603.083 417.5 603.083 415.986 c 0,53,54
 603.083 399.333 603.083 399.333 593 381 c 0,55,56
 561 337 561 337 469 315 c 0,57,58
 424.6 304.2 424.6 304.2 383.8 304.2 c 0,59,60
 356.6 304.2 356.6 304.2 331 309 c 1,61,62
 330.667 297.833 330.667 297.833 330.667 287.056 c 0,63,64
 330.667 233.167 330.667 233.167 339 189 c 0,65,66
 351 133 351 133 355 108 c 1,67,68
 467 109 467 109 490 112 c 0,69,70
 546 120 546 120 587 148 c 1,71,72
 590.457 129.457 590.457 129.457 590.457 110.322 c 0,73,74
 590.457 68.5714 590.457 68.5714 574 24 c 1,75,76
 498 0 498 0 418 0 c 0,77,78
 334 0 334 0 324 0 c 0,79,80
 262 1 262 1 246 70 c 0,81,82
 243 86 243 86 236 174 c 0,83,84
 230 261 230 261 195 287 c 0,85,-1
 189 291 l 1,86,87
 143 289 143 289 131 213 c 2,88,-1
 117 82 l 2,89,90
 103 4 103 4 50 3 c 0,91,92
 38 3 38 3 23 6 c 1,93,94
 22.9512 10.5366 22.9512 10.5366 22.9512 15.2617 c 0,95,96
 22.9512 204.268 22.9512 204.268 101 695 c 0,97,98
 102 700 102 700 102 701 c 1,99,100
 142.95 815.075 142.95 815.075 197.209 815.075 c 0,101,102
 198.6 815.075 198.6 815.075 200 815 c 0,103,104
 211 814 211 814 221 809 c 1,21,22
EndSplineSet
Validated: 1
EndChar

StartChar: Eth
Encoding: 208 208 145
Width: 549
GlyphClass: 2
Flags: MW
LayerCount: 2
Fore
SplineSet
21 435 m 1,0,1
 61.3846 426.346 61.3846 426.346 120.075 426.346 c 0,2,3
 163.115 426.346 163.115 426.346 216 431 c 0,4,5
 251 434 251 434 264 435 c 1,6,7
 275.605 411.789 275.605 411.789 275.605 392.549 c 0,8,9
 275.605 376.974 275.605 376.974 268 364 c 0,10,11
 262 355 262 355 252 345 c 1,12,13
 183.75 333.975 183.75 333.975 128.73 333.975 c 0,14,15
 78.95 333.975 78.95 333.975 40 343 c 0,16,17
 30 345 30 345 21 348 c 1,18,19
 9.5 365 9.5 365 9.5 386.75 c 128,-1,20
 9.5 408.5 9.5 408.5 21 435 c 1,0,1
177 694 m 1,21,22
 165.242 649.145 165.242 649.145 165.242 559.723 c 0,23,24
 165.242 443.806 165.242 443.806 185 253 c 0,25,26
 197 135 197 135 199 111 c 1,27,28
 214.517 99.8276 214.517 99.8276 237.354 99.8276 c 0,29,30
 251.31 99.8276 251.31 99.8276 268 104 c 0,31,32
 288 110 288 110 294 111 c 1,33,34
 366.51 200.373 366.51 200.373 366.51 345.194 c 0,35,36
 366.51 372.137 366.51 372.137 364 401 c 0,37,38
 352 552 352 552 284 658 c 0,39,40
 272 676 272 676 260 690 c 1,41,42
 245.7 702.1 245.7 702.1 222.022 702.1 c 0,43,44
 202.65 702.1 202.65 702.1 177 694 c 1,21,22
104 792 m 1,45,46
 144 809.857 144 809.857 179.918 809.857 c 0,47,48
 194.286 809.857 194.286 809.857 208 807 c 1,49,50
 337 802 337 802 413 662 c 0,51,52
 475.645 544.882 475.645 544.882 475.645 391.495 c 0,53,54
 475.645 375.934 475.645 375.934 475 360 c 0,55,56
 468 184 468 184 385 85 c 0,57,58
 318 4 318 4 217 4 c 2,59,-1
 139 11 l 2,60,61
 121 15 121 15 116 25 c 1,62,63
 82.36 297.02 82.36 297.02 82.36 503.778 c 0,64,65
 82.36 653.5 82.36 653.5 100 769 c 0,66,67
 102 781 102 781 104 792 c 1,45,46
EndSplineSet
Validated: 5
EndChar

StartChar: multiply
Encoding: 215 215 152
Width: 610
GlyphClass: 2
Flags: MW
LayerCount: 2
Fore
SplineSet
471 507 m 0,0,1
 481.5 514.5 481.5 514.5 496.25 514.5 c 128,-1,2
 511 514.5 511 514.5 530 507 c 0,3,4
 556.947 495.211 556.947 495.211 556.947 482.003 c 0,5,6
 556.947 479.526 556.947 479.526 556 477 c 1,7,-1
 552 471 l 0,8,9
 494 407 494 407 367 249 c 0,10,11
 267 125 267 125 192 64 c 0,12,13
 162 40 162 40 129 18 c 0,14,15
 113.259 7.2963 113.259 7.2963 90.7792 7.2963 c 0,16,17
 77.5556 7.2963 77.5556 7.2963 62 11 c 0,18,19
 36.3111 16.2889 36.3111 16.2889 36.3111 29.5699 c 0,20,21
 36.3111 33.8667 36.3111 33.8667 39 39 c 1,22,-1
 199 261 l 2,23,24
 266 349 266 349 379 438 c 0,25,26
 418 469 418 469 471 507 c 0,0,1
171 519 m 0,27,28
 237 468 237 468 351 335 c 0,29,30
 488 175 488 175 561 102 c 0,31,32
 570.587 92.413 570.587 92.413 570.587 78.8663 c 0,33,34
 570.587 62.7391 570.587 62.7391 557 41 c 0,35,36
 534 5 534 5 507 4 c 0,37,38
 499 4 499 4 492 9 c 0,39,40
 367 94 367 94 208 294 c 2,41,-1
 84 453 l 2,42,43
 77.6471 460.765 77.6471 460.765 77.6471 469.277 c 0,44,45
 77.6471 484.882 77.6471 484.882 99 503 c 0,46,47
 124.081 525.73 124.081 525.73 147.319 525.73 c 0,48,49
 153.73 525.73 153.73 525.73 160 524 c 0,50,51
 166 523 166 523 171 519 c 0,27,28
EndSplineSet
Validated: 5
EndChar

StartChar: Oslash
Encoding: 216 216 153
Width: 635
GlyphClass: 2
Flags: MW
LayerCount: 2
Fore
SplineSet
468 750 m 1,0,1
 492 778 492 778 515 798 c 1,2,3
 531.289 802.124 531.289 802.124 544.601 802.124 c 0,4,5
 595.856 802.124 595.856 802.124 603 741 c 1,6,7
 562 702 562 702 516 642 c 1,8,9
 558.481 491.962 558.481 491.962 558.481 333.754 c 0,10,11
 558.481 316.923 558.481 316.923 558 300 c 0,12,13
 554 143 554 143 503 87 c 0,14,15
 405.448 -4.2069 405.448 -4.2069 314.816 -4.2069 c 0,16,17
 291.172 -4.2069 291.172 -4.2069 268 2 c 0,18,19
 206 19 206 19 159 82 c 1,20,21
 134 45 134 45 111 18 c 1,22,23
 98.3239 16.5915 98.3239 16.5915 87.4729 16.5915 c 0,24,25
 22.9565 16.5915 22.9565 16.5915 22.9565 66.3814 c 0,26,27
 22.9565 67.6739 22.9565 67.6739 23 69 c 0,28,-1
 23 75 l 1,29,30
 59 120 59 120 108 196 c 1,31,32
 68 319.333 68 319.333 68 436.444 c 0,33,34
 68 495 68 495 78 552 c 0,35,36
 96 658 96 658 146 716 c 1,37,38
 260.914 814.892 260.914 814.892 347.136 814.892 c 0,39,40
 416.982 814.892 416.982 814.892 468 750 c 1,0,1
390 650 m 1,41,42
 357.761 669.343 357.761 669.343 320.037 669.343 c 0,43,44
 287.552 669.343 287.552 669.343 251 655 c 0,45,46
 204 637 204 637 170 600 c 1,47,48
 163.436 568.564 163.436 568.564 163.436 526.148 c 0,49,50
 163.436 445.782 163.436 445.782 187 326 c 1,51,52
 332 569 332 569 390 650 c 1,41,42
440 535 m 1,53,54
 410 488 410 488 268 252 c 0,55,56
 242 210 242 210 223 178 c 1,57,-1
 227 164 l 1,58,59
 270.793 96.163 270.793 96.163 331.546 96.163 c 0,60,61
 341.543 96.163 341.543 96.163 352 98 c 0,62,63
 396 105 396 105 435 146 c 1,64,65
 466.736 207.83 466.736 207.83 466.736 310.977 c 0,66,67
 466.736 396.34 466.736 396.34 445 510 c 0,68,69
 443 522 443 522 440 535 c 1,53,54
EndSplineSet
Validated: 1
EndChar

StartChar: Thorn
Encoding: 222 222 159
Width: 649
GlyphClass: 2
Flags: MW
LayerCount: 2
Fore
SplineSet
200 101 m 1,0,1
 224.742 98.3608 224.742 98.3608 247.308 98.3608 c 0,2,3
 361.546 98.3608 361.546 98.3608 420 166 c 0,4,5
 459.014 210.903 459.014 210.903 459.014 265.559 c 0,6,7
 459.014 285.153 459.014 285.153 454 306 c 0,8,9
 434 385 434 385 354 423 c 0,10,11
 303.4 447.2 303.4 447.2 238.28 447.2 c 0,12,13
 214.6 447.2 214.6 447.2 189 444 c 1,14,15
 187.04 402.28 187.04 402.28 187.04 357.032 c 0,16,17
 187.04 240.68 187.04 240.68 200 101 c 1,0,1
188 504 m 1,18,19
 244.941 518.235 244.941 518.235 293.823 518.235 c 0,20,21
 396.029 518.235 396.029 518.235 463 456 c 0,22,23
 536 389 536 389 536 284 c 0,24,25
 535 179 535 179 462 111 c 0,26,27
 392.333 46.4667 392.333 46.4667 286.636 46.4667 c 0,28,29
 248.2 46.4667 248.2 46.4667 205 55 c 1,30,-1
 200 -106 l 1,31,32
 175.818 -132.255 175.818 -132.255 145.908 -132.255 c 0,33,34
 132.527 -132.255 132.527 -132.255 118 -127 c 2,35,-1
 74 -109 l 1,36,37
 119.021 -30.7021 119.021 -30.7021 119.021 245.881 c 0,38,39
 119.021 251.894 119.021 251.894 119 258 c 0,40,41
 118 514 118 514 84 650 c 0,42,43
 72 702 72 702 57 711 c 1,44,45
 83.2308 725.785 83.2308 725.785 113.783 725.785 c 0,46,47
 147.292 725.785 147.292 725.785 186 708 c 1,48,-1
 188 504 l 1,18,19
EndSplineSet
Validated: 1
EndChar

StartChar: germandbls
Encoding: 223 223 160
Width: 517
GlyphClass: 2
Flags: MW
LayerCount: 2
Fore
SplineSet
156 390 m 0,0,1
 153.426 329.617 153.426 329.617 153.426 273.123 c 0,2,3
 153.426 88.2341 153.426 88.2341 181 -55 c 1,4,-1
 28 -55 l 1,5,6
 94.3289 -7.35526 94.3289 -7.35526 94.3289 133.674 c 0,7,8
 94.3289 143.605 94.3289 143.605 94 154 c 0,9,10
 93 181 93 181 75 334 c 0,11,12
 70 380 70 380 70 394 c 0,13,14
 74 675 74 675 193 783 c 0,15,16
 233.798 820.032 233.798 820.032 278.535 820.032 c 0,17,18
 305.074 820.032 305.074 820.032 333 807 c 0,19,20
 400 775 400 775 431 691 c 0,21,22
 448.761 641.349 448.761 641.349 448.761 591.86 c 0,23,24
 448.761 518.752 448.761 518.752 410 446 c 0,25,26
 362 356 362 356 278 286 c 1,27,28
 406 244 406 244 432 152 c 0,29,30
 437.226 133.71 437.226 133.71 437.226 116.431 c 0,31,32
 437.226 74.1935 437.226 74.1935 406 38 c 0,33,34
 373.531 0.265305 373.531 0.265305 328.74 0.265306 c 0,35,36
 322.49 0.265306 322.49 0.265306 316 1 c 0,37,38
 236 10 236 10 208 82 c 1,39,-1
 266 114 l 1,40,41
 288 50 288 50 324 50 c 256,42,43
 360 50 360 50 368 70 c 0,44,45
 373.641 83.9531 373.641 83.9531 373.641 100.198 c 0,46,47
 373.641 138.672 373.641 138.672 342 190 c 0,48,49
 307 248 307 248 182 268 c 1,50,51
 336 387 336 387 356 540 c 0,52,53
 358.323 557.032 358.323 557.032 358.323 573.165 c 0,54,55
 358.323 640.387 358.323 640.387 318 692 c 0,56,57
 296.308 720.32 296.308 720.32 273.526 720.32 c 0,58,59
 258.5 720.32 258.5 720.32 243 708 c 0,60,61
 176 657 176 657 158 417 c 0,62,63
 157 404 157 404 156 390 c 0,0,1
EndSplineSet
Validated: 1
EndChar

StartChar: ae
Encoding: 230 230 167
Width: 661
GlyphClass: 2
Flags: MW
LayerCount: 2
Fore
SplineSet
326 234 m 1,0,1
 329.556 218 329.556 218 329.556 196.469 c 0,2,3
 329.556 169.556 329.556 169.556 324 134 c 1,4,5
 297 71 297 71 230 60 c 0,6,7
 216 58 216 58 199 58 c 0,8,9
 195.122 57.7805 195.122 57.7805 191.324 57.7805 c 0,10,11
 143.22 57.7805 143.22 57.7805 108 93 c 0,12,13
 83.619 117.381 83.619 117.381 83.619 144.664 c 0,14,15
 83.619 153.19 83.619 153.19 86 162 c 0,16,17
 103 226 103 226 159 237 c 0,18,19
 169.667 238.778 169.667 238.778 193.173 238.778 c 0,20,21
 222.556 238.778 222.556 238.778 272 236 c 0,22,23
 303 234 303 234 326 234 c 1,0,1
585 261 m 0,24,25
 641.64 293.708 641.64 293.708 641.64 356.963 c 0,26,27
 641.64 373 641.64 373 638 391 c 0,28,29
 630 432 630 432 604 471 c 0,30,31
 573.71 514.841 573.71 514.841 498.944 514.841 c 0,32,33
 479.913 514.841 479.913 514.841 458 512 c 0,34,35
 379 501 379 501 343 405 c 1,36,37
 333 460 333 460 273 491 c 0,38,39
 236 510 236 510 191 510 c 0,40,41
 46 510 46 510 20 413 c 0,42,43
 18.4348 406.478 18.4348 406.478 18.4348 400.229 c 0,44,45
 18.4348 382.522 18.4348 382.522 31 367 c 0,46,47
 38.3333 357.667 38.3333 357.667 46.5556 357.667 c 0,48,49
 50.6667 357.667 50.6667 357.667 55 360 c 0,50,51
 82 373 82 373 103 404 c 0,52,53
 120 429 120 429 145 434 c 0,54,55
 161 438 161 438 187 438 c 0,56,57
 275 436 275 436 308 348 c 0,58,59
 315 329 315 329 318 310 c 1,60,-1
 318 308 l 1,61,62
 270 314.429 270 314.429 229.485 314.429 c 0,63,64
 80.9286 314.429 80.9286 314.429 33 228 c 0,65,66
 23 210 23 210 18 187 c 0,67,68
 14.878 172.561 14.878 172.561 14.878 158.731 c 0,69,70
 14.878 101.683 14.878 101.683 68 55 c 0,71,72
 125 6 125 6 199 4 c 0,73,74
 201.366 3.94366 201.366 3.94366 203.71 3.94366 c 0,75,76
 284.577 3.94366 284.577 3.94366 339 71 c 1,77,78
 353 36 353 36 403 16 c 0,79,80
 428 6 428 6 452 6 c 0,81,82
 546 6 546 6 588 51 c 0,83,84
 610.042 73.0417 610.042 73.0417 610.042 104.267 c 0,85,86
 610.042 105.625 610.042 105.625 610 107 c 0,87,88
 610 117 610 117 591 122 c 0,89,90
 580 125 580 125 575 127 c 1,91,92
 486.25 74.4896 486.25 74.4896 443.994 74.4896 c 0,93,94
 429.115 74.4896 429.115 74.4896 420 81 c 0,95,96
 397.119 97.9762 397.119 97.9762 397.119 168.886 c 0,97,98
 397.119 194.048 397.119 194.048 400 226 c 1,99,-1
 471 225 l 2,100,101
 532 230 532 230 585 261 c 0,24,25
565 415 m 0,102,103
 577.071 387.143 577.071 387.143 577.071 377.393 c 0,104,105
 577.071 376.643 577.071 376.643 577 376 c 0,106,107
 575 358 575 358 528 315 c 0,108,109
 513.161 302.097 513.161 302.097 468.77 302.097 c 0,110,111
 444.355 302.097 444.355 302.097 411 306 c 1,112,-1
 412 369 l 2,113,114
 420 434 420 434 487 446 c 1,115,-1
 524 441 l 2,116,117
 557 433 557 433 565 415 c 0,102,103
EndSplineSet
Validated: 9
EndChar

StartChar: eth
Encoding: 240 240 177
Width: 517
GlyphClass: 2
Flags: MW
LayerCount: 2
Fore
SplineSet
264 673 m 1,0,1
 343.808 721.077 343.808 721.077 390.331 721.077 c 0,2,3
 392.192 721.077 392.192 721.077 394 721 c 1,4,5
 421 694 421 694 425 687 c 0,6,7
 429.5 676.5 429.5 676.5 429.5 661.5 c 0,8,9
 429.5 656.5 429.5 656.5 429 651 c 1,10,11
 423.661 651.831 423.661 651.831 417.829 651.831 c 0,12,13
 374.508 651.831 374.508 651.831 304 606 c 1,14,15
 443.922 359.295 443.922 359.295 443.922 210.752 c 0,16,17
 443.922 157.589 443.922 157.589 426 117 c 0,18,19
 381 16 381 16 222 6 c 0,20,21
 214.117 5.52427 214.117 5.52427 206.575 5.52427 c 0,22,23
 103.146 5.52427 103.146 5.52427 64 95 c 0,24,25
 45.5 137 45.5 137 45.5 185.5 c 128,-1,26
 45.5 234 45.5 234 64 289 c 0,27,28
 100 399 100 399 184 450 c 0,29,30
 229 477 229 477 281 478 c 1,31,32
 261 518 261 518 236 561 c 1,33,34
 171 519 171 519 132 515 c 1,35,36
 95 525 95 525 92 544 c 0,37,38
 91.5556 546.667 91.5556 546.667 91.5556 550.173 c 0,39,40
 91.5556 562.444 91.5556 562.444 97 585 c 1,41,42
 134 590 134 590 196 629 c 1,43,44
 151 700 151 700 114 750 c 1,45,-1
 183 795 l 1,46,-1
 246 702 l 2,47,48
 255 687 255 687 264 673 c 1,0,1
314 408 m 1,49,50
 244 404 244 404 181 322 c 0,51,52
 121 244 121 244 119 170 c 0,53,54
 118.947 167.92 118.947 167.92 118.947 165.888 c 0,55,56
 118.947 91.7333 118.947 91.7333 190 82 c 0,57,58
 200 80.6667 200 80.6667 210.889 80.6667 c 0,59,60
 216.333 80.6667 216.333 80.6667 222 81 c 0,61,62
 362.453 90.4084 362.453 90.4084 362.453 217.238 c 0,63,64
 362.453 279.135 362.453 279.135 329 369 c 0,65,66
 322 388 322 388 314 408 c 1,49,50
EndSplineSet
Validated: 1
EndChar

StartChar: divide
Encoding: 247 247 184
Width: 676
GlyphClass: 2
Flags: MW
LayerCount: 2
Fore
SplineSet
318 258 m 256,0,1
 356 251 356 251 373.5 207 c 128,-1,2
 391 163 391 163 365 131 c 128,-1,3
 339 99 339 99 290 109 c 128,-1,4
 241 119 241 119 227.5 157 c 0,5,6
 223.581 168.032 223.581 168.032 223.581 178.812 c 0,7,8
 223.581 205.161 223.581 205.161 247 230 c 0,9,10
 274.5 259.167 274.5 259.167 305.472 259.167 c 0,11,12
 311.667 259.167 311.667 259.167 318 258 c 256,0,1
387 606 m 0,13,14
 366 567 366 567 311 561 c 0,15,16
 303.562 560.189 303.562 560.189 296.655 560.189 c 0,17,18
 252.486 560.189 252.486 560.189 230.016 593.366 c 0,19,20
 219.208 609.325 219.208 609.325 219.208 626.282 c 0,21,22
 219.208 650.09 219.208 650.09 240.516 675.866 c 0,23,24
 275.044 717.634 275.044 717.634 314.513 717.634 c 0,25,26
 316.748 717.634 316.748 717.634 319 717.5 c 0,27,28
 361 715 361 715 382.5 676 c 0,29,30
 394.507 654.221 394.507 654.221 394.507 634.936 c 0,31,32
 394.507 619.688 394.507 619.688 387 606 c 0,13,14
93 456 m 1,33,34
 131.528 445.972 131.528 445.972 187.326 445.972 c 0,35,36
 237.25 445.972 237.25 445.972 301 454 c 0,37,38
 412.951 468.098 412.951 468.098 460.604 468.098 c 0,39,40
 470.415 468.098 470.415 468.098 477.5 467.5 c 0,41,42
 519 464 519 464 546 456 c 1,43,44
 567 434 567 434 567 413.75 c 128,-1,45
 567 393.5 567 393.5 546 375 c 1,46,47
 515.018 380.236 515.018 380.236 472.04 380.236 c 0,48,49
 416.527 380.236 416.527 380.236 341 371.5 c 0,50,51
 256.224 361.694 256.224 361.694 197.865 361.694 c 0,52,53
 163.98 361.694 163.98 361.694 139 365 c 0,54,55
 116 369 116 369 93 375 c 1,56,57
 67.1951 387.902 67.1951 387.902 67.1951 408.043 c 0,58,59
 67.1951 423.805 67.1951 423.805 83 444 c 2,60,-1
 93 456 l 1,33,34
93 456 m 1,61,-1
 93 456 l 1,61,-1
EndSplineSet
Validated: 33
EndChar

StartChar: oslash
Encoding: 248 248 185
Width: 395
GlyphClass: 2
Flags: MW
LayerCount: 2
Fore
SplineSet
294 475 m 1,0,1
 314 496 314 496 333 509 c 1,2,3
 346 514.452 346 514.452 355.307 514.452 c 0,4,5
 368.194 514.452 368.194 514.452 374 504 c 0,6,7
 376 500 376 500 384 474 c 1,8,9
 355 446 355 446 322 400 c 1,10,11
 335.031 351.054 335.031 351.054 335.031 300.694 c 0,12,13
 335.031 192.605 335.031 192.605 275 78 c 0,14,15
 273 73 273 73 270 68 c 0,16,17
 226.5 -2.08333 226.5 -2.08333 175.862 -2.08333 c 0,18,19
 163.639 -2.08333 163.639 -2.08333 151 2 c 0,20,21
 121 12 121 12 95 47 c 1,22,23
 80 29 80 29 66 14 c 1,24,25
 54.2857 12.2857 54.2857 12.2857 45.4286 12.2857 c 0,26,27
 23.2857 12.2857 23.2857 12.2857 19 23 c 0,28,29
 16 30 16 30 15 49 c 1,30,31
 38 71 38 71 63 104 c 1,32,33
 33.5467 177.32 33.5467 177.32 33.5467 252.996 c 0,34,35
 33.5467 298.08 33.5467 298.08 44 344 c 0,36,37
 56 396 56 396 82 439 c 0,38,39
 122 516 122 516 184.5 532 c 0,40,41
 195.864 534.909 195.864 534.909 206.682 534.909 c 0,42,43
 255.364 534.909 255.364 534.909 293 476 c 1,44,-1
 294 475 l 1,0,1
227 382 m 1,45,46
 202.182 409.655 202.182 409.655 181.386 409.655 c 0,47,48
 172.855 409.655 172.855 409.655 165 405 c 0,49,50
 152 398 152 398 138 380 c 1,51,52
 102.867 315.59 102.867 315.59 102.867 250.757 c 0,53,54
 102.867 215.94 102.867 215.94 113 181 c 1,55,-1
 227 382 l 1,45,46
256 299 m 1,56,-1
 151 125 l 1,57,58
 159.936 121.936 159.936 121.936 168.416 121.936 c 0,59,60
 193.149 121.936 193.149 121.936 214 148 c 0,61,62
 222 158 222 158 228 170 c 1,63,64
 257.761 211.022 257.761 211.022 257.761 269.512 c 0,65,66
 257.761 283.739 257.761 283.739 256 299 c 1,56,-1
EndSplineSet
Validated: 1
EndChar

StartChar: thorn
Encoding: 254 254 191
Width: 649
GlyphClass: 2
Flags: MW
LayerCount: 2
Fore
SplineSet
196 146 m 1,0,1
 223.546 143.324 223.546 143.324 249.061 143.324 c 0,2,3
 385.639 143.324 385.639 143.324 464 220 c 0,4,5
 525.038 279.269 525.038 279.269 525.038 356.537 c 0,6,7
 525.038 366.615 525.038 366.615 524 377 c 256,8,9
 515 467 515 467 435 517 c 0,10,11
 371.965 555.224 371.965 555.224 284.197 555.224 c 0,12,13
 241.082 555.224 241.082 555.224 192 546 c 1,14,15
 186.958 446.083 186.958 446.083 186.958 357.51 c 0,16,17
 186.958 252.833 186.958 252.833 194 164 c 0,18,-1
 196 146 l 1,0,1
191 606 m 1,19,20
 254.149 618.511 254.149 618.511 308.425 618.511 c 0,21,22
 436.362 618.511 436.362 618.511 515 549 c 0,23,24
 593.107 479.571 593.107 479.571 593.107 372.949 c 0,25,26
 593.107 369 593.107 369 593 365 c 0,27,28
 590 255 590 255 508 177 c 0,29,30
 421.22 93.4646 421.22 93.4646 287.082 93.4646 c 0,31,32
 255.827 93.4646 255.827 93.4646 222 98 c 0,33,34
 211 99 211 99 200 101 c 1,35,-1
 200 -106 l 1,36,37
 175.818 -132.255 175.818 -132.255 145.908 -132.255 c 0,38,39
 132.527 -132.255 132.527 -132.255 118 -127 c 2,40,-1
 74 -109 l 1,41,42
 119 -30 119 -30 120 282 c 0,43,44
 120 564 120 564 88 718 c 0,45,46
 75 780 75 780 60 789 c 1,47,48
 86.2308 803.785 86.2308 803.785 116.783 803.785 c 0,49,50
 150.292 803.785 150.292 803.785 189 786 c 1,51,-1
 191 606 l 1,19,20
EndSplineSet
Validated: 33
EndChar

StartChar: dotlessi
Encoding: 305 305 239
Width: 303
GlyphClass: 2
Flags: MW
LayerCount: 2
Fore
SplineSet
101 504 m 1,0,1
 134 516.5 134 516.5 159.25 516.5 c 128,-1,2
 184.5 516.5 184.5 516.5 202 504 c 1,3,4
 202.562 497.25 202.562 497.25 202.562 486.211 c 0,5,6
 202.562 438.375 202.562 438.375 192 310 c 0,7,8
 185.578 235.956 185.578 235.956 185.578 179.751 c 0,9,10
 185.578 87.1778 185.578 87.1778 203 43 c 0,11,12
 214 15 214 15 232 0 c 1,13,-1
 88 5 l 2,14,-1
 66 7 l 1,15,16
 118.513 35.7179 118.513 35.7179 118.513 197.738 c 0,17,18
 118.513 233.179 118.513 233.179 116 275 c 2,19,-1
 101 489 l 2,20,21
 101 497 101 497 101 504 c 1,0,1
EndSplineSet
Validated: 1
EndChar

StartChar: kgreenlandic
Encoding: 312 312 244
Width: 515
GlyphClass: 2
Flags: MW
LayerCount: 2
Fore
SplineSet
80 464 m 1,0,1
 87 494 87 494 110 498 c 0,2,3
 117.903 499.613 117.903 499.613 125.156 499.613 c 0,4,5
 162.871 499.613 162.871 499.613 183 456 c 1,6,7
 190.111 397.333 190.111 397.333 190.111 381.333 c 0,8,9
 190.111 379.333 190.111 379.333 190 378 c 0,10,11
 189 364 189 364 188 356 c 1,12,13
 235 383 235 383 262 424 c 0,14,15
 281 454 281 454 344 475 c 0,16,17
 359.844 480.281 359.844 480.281 376.513 480.281 c 0,18,19
 400.875 480.281 400.875 480.281 427 469 c 1,20,-1
 455 386 l 1,21,22
 433.216 394.284 433.216 394.284 410.867 394.284 c 0,23,24
 360.375 394.284 360.375 394.284 307 352 c 0,25,26
 254 310 254 310 245 302 c 0,27,28
 200 262 200 262 190 260 c 1,29,30
 206 237 206 237 306 208 c 0,31,32
 365 191 365 191 382 160 c 0,33,34
 400 129 400 129 410 16 c 1,35,36
 384 0.27907 384 0.27907 362.387 0.27907 c 0,37,38
 348.256 0.27907 348.256 0.27907 336 7 c 1,39,40
 336.667 15.4444 336.667 15.4444 336.667 23.3086 c 0,41,42
 336.667 86.2222 336.667 86.2222 294 112 c 1,43,44
 293 112 293 112 223 143 c 0,45,46
 200 153 200 153 183 163 c 1,47,48
 170.929 80.3571 170.929 80.3571 170.929 10.648 c 0,49,50
 170.929 5.28572 170.929 5.28572 171 0 c 1,51,-1
 94 -2 l 2,52,53
 75 -2 75 -2 58 8 c 1,54,55
 80.0417 377.917 80.0417 377.917 80.0417 457.618 c 0,56,57
 80.0417 461.083 80.0417 461.083 80 464 c 1,0,1
EndSplineSet
Validated: 1
EndChar

StartChar: OE
Encoding: 338 338 263
Width: 783
GlyphClass: 2
Flags: MW
LayerCount: 2
Fore
SplineSet
361 819 m 0,0,1
 492 792 492 792 549 791 c 0,2,3
 560.333 790.5 560.333 790.5 571.861 790.5 c 0,4,5
 629.5 790.5 629.5 790.5 692 803 c 1,6,7
 706.694 771.694 706.694 771.694 706.694 746.512 c 0,8,9
 706.694 732.278 706.694 732.278 702 720 c 0,10,11
 694 700 694 700 675 675 c 1,12,13
 636.333 673.667 636.333 673.667 606.111 673.667 c 0,14,15
 545.667 673.667 545.667 673.667 519 679 c 0,16,17
 480 686 480 686 442 703 c 1,18,19
 482.024 647.357 482.024 647.357 482.024 551.69 c 0,20,21
 482.024 549.357 482.024 549.357 482 547 c 1,22,-1
 481.998 547.068 l 0,23,24
 481.932 547.068 481.932 547.068 480 492 c 1,25,-1
 580 465 l 2,26,27
 595 462.25 595 462.25 608.875 462.25 c 0,28,29
 650.5 462.25 650.5 462.25 682 487 c 1,30,31
 712 451 712 451 713 430 c 0,32,33
 713.083 428.5 713.083 428.5 713.083 426.986 c 0,34,35
 713.083 410.333 713.083 410.333 703 392 c 0,36,37
 682.061 362.531 682.061 362.531 627.443 362.531 c 0,38,39
 611.633 362.531 611.633 362.531 593 365 c 0,40,41
 592 365 592 365 489 384 c 1,42,-1
 486 241 l 2,43,44
 481 172 481 172 459 120 c 1,45,46
 575 121 575 121 592 123 c 0,47,48
 654 130 654 130 697 159 c 1,49,50
 700.457 140.457 700.457 140.457 700.457 121.322 c 0,51,52
 700.457 79.5713 700.457 79.5713 684 35 c 1,53,54
 573.362 -0.112305 573.362 -0.112305 464.481 -0.112305 c 0,55,56
 409.013 -0.112305 409.013 -0.112305 354 9 c 1,57,58
 337 1 337 1 285 0 c 0,59,60
 148 -2 148 -2 96 166 c 0,61,62
 60 282 60 282 75 435 c 0,63,64
 93 619 93 619 167 728 c 0,65,66
 245 843 245 843 361 819 c 0,0,1
378 606 m 1,67,68
 328 681 328 681 279 685 c 0,69,70
 263 686 263 686 249 678 c 0,71,72
 186 643 186 643 168 499 c 0,73,74
 151 354 151 354 190 229 c 0,75,76
 211 163 211 163 243 129 c 0,77,78
 278 92 278 92 335 135 c 0,79,80
 358 153 358 153 375 177 c 1,81,82
 393 290 393 290 384 477 c 0,83,84
 379 571 379 571 378 606 c 1,67,68
EndSplineSet
Validated: 33
EndChar

